<?xml version="1.0" encoding="utf-8"?>
<!-- Generator: Adobe Illustrator 22.0.1, SVG Export Plug-In . SVG Version: 6.00 Build 0)  -->
<svg version="1.1" id="Layer_1" xmlns="http://www.w3.org/2000/svg" xmlns:xlink="http://www.w3.org/1999/xlink" x="0px" y="0px"
	 viewBox="0 0 231.8 227.5" style="enable-background:new 0 0 231.8 227.5;" xml:space="preserve">
<style type="text/css">
	.st0{fill:#2E2E2E;}
</style>
<path class="st0" d="M149.6,227.3c-25.7-1.6-51.4,1.7-77.1-0.7c-5.5-0.5-7.8-2.6-9-7.6c-6.4-26.5-13.3-52.8-19.6-79.3
	c-1.7-7.2-5.1-11.3-12.7-10.3c-10.6,1.4-16.9-2.7-19.7-13.1c-1.2-4.2-3.8-8-5.8-12c-1.7-3.5-1-6,3.3-6c16.8-0.1,33.7-0.1,50.5,0
	c4.2,0,5.9,3,6.9,6.6c3.6,13.9,7.4,27.7,10.9,41.6c3.4,13.2,6.7,26.4,9.8,39.6c1.7,7.2,5.5,10.4,13.1,10.1c10.4-0.4,20.8-0.5,31.2,0
	c8.4,0.5,12.1-3.6,13.9-11.1c5.2-21.7,10.4-43.3,16-64.9c6.8-26.3,2.4-21.8,27.6-22.2c10.6-0.2,21.3,0.1,31.9,0
	c6.2-0.1,7.4,2.4,4.7,7.7c-2.8,5.5-5.4,11.1-7.9,16.8c-2.4,5.3-6.6,6.7-12.1,6.8c-15.4,0.3-15.1,0.5-18.7,15.6
	c-6,25-12.6,49.9-18.8,74.9c-1.2,4.8-3.9,7.3-8.8,7.3C156,227.3,152.8,227.3,149.6,227.3z"/>
<path class="st0" d="M116,69.9c-23,0-46,0.1-69,0C19.4,69.8,0.1,50.4,0,22.6C0,17.4,0,12.2,0.1,7c0.1-4.5,2.4-6.8,6.9-6.9
	c0.2,0,0.5,0,0.7,0c27.3-0.1,23-2.2,23.4,21c0.2,12.7,4.9,17.5,17.6,17.5c43.8,0.1,87.6,0.1,131.3,0c15.7,0,20.8-4.9,21.4-20.6
	c0.1-2.2-0.3-4.4-0.4-6.7c-0.2-8.7,2.1-11.2,10.6-11.3c22.1-0.1,19.9-1.6,20,20c0,25.7-9.9,39.8-33.6,48.1
	c-4.1,1.4-8.2,1.7-12.4,1.7C162.5,69.9,139.3,69.9,116,69.9z"/>
</svg>
