<?xml version="1.0" encoding="utf-8"?>
<!-- Generator: Adobe Illustrator 22.0.1, SVG Export Plug-In . SVG Version: 6.00 Build 0)  -->
<svg version="1.1" id="Layer_1" xmlns="http://www.w3.org/2000/svg" xmlns:xlink="http://www.w3.org/1999/xlink" x="0px" y="0px"
	 viewBox="0 0 2500 2482" style="enable-background:new 0 0 2500 2482;" xml:space="preserve">
<style type="text/css">
	.st0{fill:#DE3F6B;}
</style>
<g id="EfFV5q.tif">
	<g>
	</g>
</g>
<g>
	<path class="st0" d="M540,653.5h102.8c160.5,15.8,309,96.5,419,212.8c228.2,239.5,353.8,577.5,644.2,755.8
		c210,129,503.8,23.5,607-194.2c52.5-1,105.2-1,157.8-0.8c-72.2,221.2-282.8,380.3-513,401.5H1873
		c-141.8-11.8-279.5-66.2-386.8-160.5c-155.7-132-255.7-313-376.7-474.3C1005.5,1051.2,899.2,891,727,826.2
		c-212.8-79.8-472.8,45-550.3,257c-68.2,174.5-12.7,391,139.8,502.8c114.2,88.5,273.5,121.5,410.8,70
		c152.5-55,265.8-180,352.5-312.5c34.2,49,67.5,98.8,100.5,148.8c-135,170-322.2,316-545,336.2H544c-280.8-19.5-524.8-258-544-539.8
		v-92.2C18.2,915.2,259,674,540,653.5"/>
	<path class="st0" d="M1867.2,653.5h85.2C2235.8,672,2476.8,915.2,2500,1197v144.5c-233.8,2.2-467.8,0.7-701.5,1
		c0.2-42.2,0.2-84.2,0-126.5c184.8-0.5,369.2,0.8,553.8-0.5c-13-74.7-30-151.2-74.2-214.5c-108-165-336.2-232.5-518.8-161
		c-145.5,54-255,172.2-339.5,298.5c-32.5-46.8-64.8-94-96-141.7C1457,824.2,1643,675,1867.2,653.5"/>
</g>
</svg>
