<?xml version="1.0" encoding="utf-8"?>
<!-- Generator: Adobe Illustrator 22.0.1, SVG Export Plug-In . SVG Version: 6.00 Build 0)  -->
<svg version="1.1" id="Layer_1" xmlns="http://www.w3.org/2000/svg" xmlns:xlink="http://www.w3.org/1999/xlink" x="0px" y="0px"
	 viewBox="0 0 595.3 595.3" style="enable-background:new 0 0 595.3 595.3;" xml:space="preserve">
<style type="text/css">
	.st0{fill:#FE8D00;}
</style>
<g id="voGuaZ.tif">
	<path class="st0" d="M297.1-0.5C128.6-0.2-0.5,133.5,0,299c0.5,169.4,139.7,301.9,307.6,296.6c154.4-4.9,286.6-131,287.7-297.8
		C593.9,132.2,464.8-0.9,297.1-0.5z M422.8,162.3c-7.4-3-12.1,1.6-17.2,7.3c-24.2,27.1-48.6,54-73.3,80.7c-4.8,5.2-4.6,7.7,0.7,12.7
		c40.8,37.9,51.7,90.3,29.4,141.1c-2.6,6-3,9.5,2.1,13.8c4.5,3.7,8.6,8,12.4,12.4c6,7,11.7,10.5,22.3,8.4
		c18.2-3.6,37.4,14.4,39,33.9c1.6,19.2-14.9,37.4-34.7,38.4c-21.1,1-39.6-14.1-37.5-34.1c2.1-19.5-12-26.7-21.9-37.5
		c-4.8-5.3-7.2,0.9-9.8,3.3c-40.7,37.6-100.1,43.5-146.6,13.7c-44.5-28.5-62.9-74.7-55-124.8c7.7-48.5,46.4-87,95.3-96.9
		c6.9-1.4,10.3-3.7,9.6-11.3c-0.7-7.5-0.1-15-0.1-22.6c0-11.4,0.6-21.2-11.2-30.1c-16.1-12.2-13.7-38.4,1.5-51.8
		c16.1-14.2,37.3-12.7,52.1,3.8c12.9,14.4,11.3,39.3-4.6,51.1c-6.8,5.1-8.3,10.4-8,17.8c0.4,10.9,0.1,21.7,0.1,32.6
		c0,3.6-1,7.8,4.1,9.2c8.8,2.4,17.6,4.9,26.4,7.3c4.4,1.2,5.7-2.7,7.8-5c27.1-29.6,53.9-59.4,81.3-88.7c4.4-4.7,2.3-7.9,0.9-12
		c-7.8-22.7,3.1-45.5,25.4-53.5c22-7.9,45.3,3.2,53.4,25.6C477.2,135.5,454.7,164.4,422.8,162.3z"/>
</g>
</svg>
