<?xml version="1.0" encoding="utf-8"?>
<!-- Generator: Adobe Illustrator 22.0.1, SVG Export Plug-In . SVG Version: 6.00 Build 0)  -->
<svg version="1.1" id="Layer_1" xmlns="http://www.w3.org/2000/svg" xmlns:xlink="http://www.w3.org/1999/xlink" x="0px" y="0px"
	 viewBox="0 0 227 227" style="enable-background:new 0 0 227 227;" xml:space="preserve">
<style type="text/css">
	.st0{fill:#E38F39;}
</style>
<path class="st0" d="M113.7,43.5c-5.8,0-11.6,0.7-17.5,2.2v0c-37.4,9.6-60,47.6-50.4,85c9.6,37.4,47.6,59.9,85,50.4
	c37.4-9.5,60-47.6,50.4-85C173.2,64.5,144.8,43.6,113.7,43.5z M0,43.8v139.7h64.5c-22-15.4-36.4-41-36.4-69.8
	c0-28.9,14.4-54.4,36.4-69.8C64.5,43.8,0,43.8,0,43.8z M162.5,43.8c22,15.4,36.4,41,36.4,69.8c0,28.9-14.4,54.4-36.4,69.8H227V43.8
	H162.5z M111.6,66.9l3.5,13.5c6.3-1.2,11.3-1.2,16.1,0.8c6.2,2.5,7.7,9.3,8,10.9c0.3,1.6,0.4,4.9-0.5,7.2c-0.9,2.3-3.8,5.2-3.8,5.2
	s4.3-0.2,7.7,1.2c3.4,1.4,6.5,4.7,7.8,10.2c1.3,5.6,1.6,11.4-2.6,16.2c-4,4.7-9.1,6.7-11.5,7.6l-0.2,0.1c-1.1,0.5-3.1,1.1-5.2,1.8
	l3.5,13.6l-8.4,2.1l-3.4-13.3l-6.4,1.6l3.4,13.3l-8.4,2.1l-3.4-13.3L91.3,152l-0.8-10.5l5-1.3c1.7-0.4,2.3-0.8,2.9-1.6
	c0.5-0.8,0.4-1.9,0.2-2.7l-8.8-34.6c-0.6-2.2-0.9-2.7-2.2-3.6c-1.3-0.9-3.7-0.4-5-0.1L77.7,99l-2.2-8.7L92,86.1l-3.4-13.4l8.4-2.1
	l3.4,13.4l6.4-1.6L103.3,69L111.6,66.9L111.6,66.9z M115.3,90.9c-3,0-5,0.4-7.3,1c-2.6,0.6-5.2,1.5-5.2,1.5l4.1,16.1
	c0,0,3.9-0.9,7-1.8c3-0.9,6.1-2.4,8.1-4.3c2-1.9,2.8-4.3,2-7.3c-0.9-3-3.5-5.1-7.3-5.3C116.2,90.9,115.7,90.9,115.3,90.9z
	 M124.2,114.9c-1.9,0-3.9,0.2-5.8,0.6c-4.2,0.8-9.5,2.4-9.5,2.4l4.6,17.9c0,0,5.6-1.3,9.2-2.5c3.6-1.2,7.2-3.1,8.9-4.7
	c1.6-1.5,3.5-3.8,2.5-7.9c-1-4.1-4.2-5.1-6-5.5C127.3,115,125.9,114.9,124.2,114.9z"/>
</svg>
