<?xml version="1.0" encoding="utf-8"?>
<!-- Generator: Adobe Illustrator 22.0.1, SVG Export Plug-In . SVG Version: 6.00 Build 0)  -->
<svg version="1.1" id="Layer_1" xmlns="http://www.w3.org/2000/svg" xmlns:xlink="http://www.w3.org/1999/xlink" x="0px" y="0px"
	 viewBox="0 0 226.8 226.8" style="enable-background:new 0 0 226.8 226.8;" xml:space="preserve">
<style type="text/css">
	.st0{fill:#DB5384;}
</style>
<path class="st0" d="M130.3,116.9h-27.5V151h27.6c12.4,0,25.6-4.4,25.6-15.5C156.1,124.4,148.6,116.9,130.3,116.9z M147,87.9
	c0-10.7-10-15.4-19.8-15.4h-24.3V104h23.7C136.4,104,147,98.6,147,87.9z"/>
<path class="st0" d="M113.5,0.3C51,0.3,0.3,51,0.3,113.5c0,62.5,50.7,113.2,113.2,113.2c62.5,0,113.2-50.7,113.2-113.2
	C226.8,51,176.1,0.3,113.5,0.3z M131.7,169.5h-49v-29H52.6v-14.7h30.1v-19.5H52.6V91.5h30.1V57h52.9c18.8,0,30.8,15.8,30.8,28.1
	c0,12.4-11.4,19.4-11.4,19.4s19.6,6.5,19.6,29.4C174.7,156.9,154.9,169.5,131.7,169.5L131.7,169.5z"/>
</svg>
