<?xml version="1.0" encoding="utf-8"?>
<!-- Generator: Adobe Illustrator 22.0.1, SVG Export Plug-In . SVG Version: 6.00 Build 0)  -->
<svg version="1.1" id="Layer_1" xmlns="http://www.w3.org/2000/svg" xmlns:xlink="http://www.w3.org/1999/xlink" x="0px" y="0px"
	 viewBox="0 0 226.8 226.8" style="enable-background:new 0 0 226.8 226.8;" xml:space="preserve">
<style type="text/css">
	.st0{fill:#FCB700;}
</style>
<g id="JSeKwE.tif">
	<g>
		<path class="st0" d="M114.1,5.8c0.5,1.5,1.9,2.4,3,3.5c20,20,39.9,40,59.9,59.9c2.2,2.2,2.4,3.4,0,5.6c-6.6,6.3-13,12.7-19.3,19.3
			c-2.1,2.2-3.1,1.8-5-0.1c-12.1-12.3-24.4-24.4-36.5-36.6c-2.2-2.2-3.4-2.4-5.7-0.1C98.4,69.6,86.1,81.7,73.9,94.1
			C72,96.1,71,96,69.1,94c-6.4-6.6-12.9-13.2-19.5-19.5c-2-1.9-2.1-3,0-5.1c20.1-20,40.2-40.1,60.2-60.1c1.1-1.1,2.5-2,2.9-3.5
			C113.1,5.8,113.6,5.8,114.1,5.8z"/>
		<path class="st0" d="M5.7,112.8c1.4-0.4,2.1-1.5,3-2.4c6.4-6.3,12.7-12.6,19-19c1.5-1.5,2.5-2.1,4.3-0.3
			c6.8,6.9,13.6,13.8,20.5,20.5c1.5,1.4,1.5,2.3,0,3.7c-6.9,6.8-13.8,13.6-20.5,20.5c-1.8,1.9-2.9,1.3-4.3-0.2
			c-6.3-6.4-12.6-12.7-19-19c-0.9-0.9-1.7-2.1-3-2.4C5.7,113.8,5.7,113.3,5.7,112.8z"/>
		<path class="st0" d="M221.1,114.2c-2.2,1.1-3.6,3.1-5.3,4.7c-5.7,5.6-11.4,11.3-17,17c-1.3,1.3-2.3,1.8-3.8,0.2
			c-6.9-7-13.8-13.9-20.8-20.8c-1.5-1.4-1.5-2.3,0-3.8c6.9-6.8,13.8-13.6,20.5-20.5c1.8-1.8,2.8-1.3,4.3,0.2
			c6.3,6.4,12.6,12.7,19,19c0.9,0.9,1.7,2,3,2.5C221.1,113.3,221.1,113.8,221.1,114.2z"/>
		<path class="st0" d="M113.7,221c-1.1,0-1.4-0.8-1.9-1.3c-20.8-20.8-41.6-41.7-62.5-62.4c-1.8-1.8-1.8-2.8,0-4.5
			c6.7-6.5,13.3-13.1,19.8-19.8c1.8-1.9,2.9-2,4.8,0c12.2,12.4,24.6,24.5,36.7,36.9c2.3,2.3,3.5,2.1,5.7-0.1
			c12.2-12.4,24.5-24.6,36.7-36.9c1.7-1.7,2.7-1.9,4.5-0.1c6.6,6.8,13.3,13.4,20.1,20c1.5,1.5,2,2.4,0.2,4.3
			c-21,20.8-41.8,41.8-62.7,62.7C114.5,220.2,114.2,221,113.7,221z"/>
		<path class="st0" d="M137.7,113.2c0,1.1-0.6,1.5-1.1,2c-7.1,7.1-14.3,14.2-21.3,21.3c-1.4,1.5-2.3,1.4-3.7,0
			c-7-7.1-14-14.1-21.1-21.1c-1.4-1.4-1.6-2.3-0.1-3.7c7.2-7,14.3-14.2,21.3-21.3c1.1-1.1,1.9-1.5,3.2-0.2
			c7.2,7.3,14.5,14.6,21.8,21.8C137.1,112.4,137.5,112.9,137.7,113.2z"/>
	</g>
</g>
</svg>
