<?xml version="1.0" encoding="utf-8"?>
<!-- Generator: Adobe Illustrator 22.0.1, SVG Export Plug-In . SVG Version: 6.00 Build 0)  -->
<svg version="1.1" id="Layer_1" xmlns="http://www.w3.org/2000/svg" xmlns:xlink="http://www.w3.org/1999/xlink" x="0px" y="0px"
	 viewBox="0 0 226.8 226.8" style="enable-background:new 0 0 226.8 226.8;" xml:space="preserve">
<style type="text/css">
	.st0{fill:#F0933A;}
</style>
<path class="st0" d="M135.7,122.2c-2.6-1.3-8.4-3.1-15.4-3.5c-6.9-0.5-15.8,0-15.8,0v30c0,0,9.3,0.2,15.5-0.3
	c6.2-0.5,12.6-2,15.8-3.8c3.2-1.8,7.1-4.5,7.1-11.4C142.9,126.4,138.3,123.6,135.7,122.2z M116.2,104.8c5.1-0.2,10.5-1.4,14.5-3.5
	c3.9-2.2,6.1-5.6,6-10.7c-0.1-5.1-3.5-9.4-9.3-11.2c-5.8-1.8-9.6-1.9-14-2c-4.4-0.1-8.8,0.3-8.8,0.3v27
	C104.5,104.8,111.1,105,116.2,104.8z"/>
<path class="st0" d="M113.4,0C50.8,0,0,50.8,0,113.4C0,176,50.8,226.8,113.4,226.8S226.8,176,226.8,113.4C226.8,50.8,176,0,113.4,0z
	 M159.6,156.8c-8.4,5.9-17.5,6.9-21.5,7.5c-2,0.3-5.3,0.5-9,0.7v22.7h-14v-22.4h-10.7v22.4h-14v-22.4H63l2.9-16.8h8.4
	c2.8,0,4-0.3,5.2-1.4c1.2-1.1,1.4-2.8,1.4-4.2V85.1c0-3.6-0.3-4.6-2-6.5c-1.7-1.9-5.6-2.1-7.8-2.1H63V61.9h27.5V39.5h14v22.4h10.7
	V39.5h14v22.7c10.4,0.6,18.2,2.6,25,7.6c8.8,6.5,8.3,17.7,8.1,20.4c-0.2,2.7-1.4,7.8-3.7,11.2c-2.4,3.3-8.1,6.7-8.1,6.7
	s6.8,1.4,11.6,5c4.8,3.6,8.3,9.9,8.1,19.2C169.9,141.7,168,150.9,159.6,156.8z"/>
</svg>
