<?xml version="1.0" encoding="utf-8"?>
<!-- Generator: Adobe Illustrator 22.0.1, SVG Export Plug-In . SVG Version: 6.00 Build 0)  -->
<svg version="1.1" id="Layer_1" xmlns="http://www.w3.org/2000/svg" xmlns:xlink="http://www.w3.org/1999/xlink" x="0px" y="0px"
	 viewBox="0 0 595.3 595.3" style="enable-background:new 0 0 595.3 595.3;" xml:space="preserve">
<style type="text/css">
	.st0{fill:#001E6F;}
	.st1{fill:#6577A8;}
	.st2{fill:#263F84;}
	.st3{fill:#294186;}
	.st4{fill:#56699F;}
	.st5{fill:#BAC1D7;}
	.st6{fill:#98A4C4;}
	.st7{fill:#CBD1E1;}
	.st8{fill:#F3A300;}
</style>
<g id="J6jgRr.tif">
</g>
<g id="HsUxxd.tif">
	<g>
		<path class="st0" d="M595.2,289.1c-0.1-0.8,0.1-1.6-0.1-2.5c-0.5-15.6-2.2-31.1-5.2-46.5c-5.1-26.6-14-51.9-26.1-76.1
			c-17.4-34.6-40.8-64.7-69.9-90.3c-20.5-18-42.9-33-67.5-44.7c-17.6-8.4-35.8-15.2-54.7-19.9c-12.1-3-24.4-5.3-36.8-7
			C324,0.8,313-0.2,302,0c-4.4,0.1-8.8,0.1-13.2,0c-7.4-0.2-14.7,0.5-22,1.3c-14.9,1.8-29.7,4.4-44.2,8.2
			c-30,7.9-58.2,19.8-84.3,36.6c-28.8,18.5-54,41.2-75.1,68.3c-25.4,32.8-43.6,69.1-53.8,109.3c-5.1,20.1-8.1,40.6-9,61.3
			c-0.2,0.5-0.1,1-0.1,1.5c0,0.6,0,1.2,0,1.8c0,1,0,1.9,0,2.9c-0.1,1.2,0.2,2.4-0.2,3.6c0,1.6,0,3.2,0,4.8c0.3,1.1,0.1,2.2,0.2,3.4
			c0,1.4,0,2.8,0,4.2c0,0.6,0,1.2,0,1.8c0.1,4.8,0.2,9.5,0.6,14.2c0.6,6.4,1.3,12.8,2.3,19.2c2.1,13.6,5,27,9,40.2
			c4.4,14.8,9.9,29.2,16.6,43.1c7.1,14.8,15.3,28.9,24.6,42.4c8.8,12.6,18.5,24.4,29.1,35.5c6.9,7.2,14.2,14,21.7,20.5
			c8.9,7.7,18.3,14.7,28.1,21.3c8.4,5.6,17,10.7,25.9,15.5c9.4,5,19,9.5,28.9,13.4c8.5,3.4,17.1,6.4,25.9,8.9
			c9.5,2.8,19.1,5.1,28.8,7c6.7,1.3,13.4,2.4,20.1,3.1c6.1,0.7,12.3,1.5,18.5,1.5c1.4,0,2.8,0,4.1,0.3c0.5,0,1,0,1.5,0
			c0.7-0.3,1.4-0.1,2.1-0.2c0.7,0.1,1.4-0.2,2.1,0.2c3.7,0,7.3,0,11,0c1.3-0.3,2.6-0.1,3.9-0.2c0.9,0,1.7,0,2.6,0c0.8,0,1.5,0,2.3,0
			c2.6,0.1,5.1-0.1,7.7-0.2c2.7,0,5.3-0.3,8-0.5c5.4-0.6,10.7-1.3,16.1-2c15.5-2.1,30.7-5.7,45.6-10.4c16.4-5.2,32.3-11.7,47.6-19.8
			c9.4-4.9,18.6-10.3,27.4-16.1c14.9-9.9,28.7-21,41.7-33.2c6.4-6,12.4-12.4,18.1-19.1c6.9-8,13.6-16.3,19.7-25
			c7.1-10,13.5-20.4,19.2-31.3c5.4-10.2,10.2-20.7,14.4-31.5c4.1-10.7,7.6-21.5,10.5-32.6c3.1-11.8,5.4-23.7,7-35.7
			c1.3-9.8,2.3-19.7,2.3-29.6c0-0.6,0-1.2,0-1.7c0-0.7,0-1.4,0-2.1c0-1.1,0-2.2,0-3.3c0-2.5,0-5.1,0-7.6
			C595.2,292.1,595.2,290.6,595.2,289.1z M302.6,583.7c-160.6,2.6-293-128.3-290.8-289.9C13.9,134.4,144.4,11.3,297.6,11.5
			c160.3,0.2,286.3,131.1,286.1,285.9C584.2,452.2,458.6,581.1,302.6,583.7z"/>
		<path class="st1" d="M0.4,303.1c0,1.5,0,3,0,4.5c-0.1,0.1-0.2,0.1-0.3,0c0-1.5,0-3,0-4.5C0.2,302.9,0.3,302.9,0.4,303.1z"/>
		<path class="st2" d="M0.4,291.4c-0.1,1.2,0.3,2.4-0.3,3.6c0-1.2,0-2.4,0-3.6C0.2,291.3,0.3,291.3,0.4,291.4z"/>
		<path class="st3" d="M0.4,303.1c-0.1,0-0.2,0-0.3,0c0-1.1,0-2.2,0-3.3C0.7,300.8,0.3,302,0.4,303.1z"/>
		<path class="st4" d="M0.4,291.4c-0.1,0-0.2,0-0.3,0c0-1,0-2,0-3c0.1-0.1,0.2-0.1,0.2,0C0.4,289.4,0.4,290.4,0.4,291.4z"/>
		<path class="st5" d="M0.1,307.5c0.1,0,0.2,0,0.3,0c0,0.6,0,1.2,0,1.8c0,0-0.1,0-0.1,0l-0.1,0C0.1,308.7,0.1,308.1,0.1,307.5z"/>
		<path class="st6" d="M0.3,288.4c-0.1,0-0.2,0-0.2,0c0-0.6,0-1.2,0-1.8c0.1-0.1,0.2-0.1,0.2,0C0.3,287.2,0.3,287.8,0.3,288.4z"/>
		<path class="st7" d="M0.3,286.6c-0.1,0-0.2,0-0.2,0c0-0.5,0-1,0-1.5c0.1,0,0.2,0,0.2,0C0.3,285.7,0.3,286.1,0.3,286.6z"/>
		<path class="st8" d="M297.1,27.2c-142.9,0-269,114.4-269.9,269.1c-0.9,152.4,122.7,272.4,270,271.6
			c137.7,2.3,269.8-109.5,270.9-268.7C569.1,149.3,448.1,27.2,297.1,27.2z M295.4,483.6c-101.1-1.2-183.7-82.4-183.7-186.2
			c0-102.9,82.8-185.8,185.7-185.7c107.3,0.1,186.6,87.2,186,186C483.7,402.1,398.6,484.8,295.4,483.6z"/>
		<path class="st0" d="M466.5,297.9c1.2-92-74.5-169.3-168.9-169.4C207.2,128.5,128,202,128.8,298.9c0.8,95,77.9,167.9,169.1,167.7
			C396,466.4,467.7,385.3,466.5,297.9z M281.9,249.7c0-9.1,0-18.2,0-27.4c0-1.1,0.2-1.5,1.4-1.4c9.2,0.1,18.4-0.3,27.7,0.3
			c8.9,0.6,17.4,2.2,25.4,6.5c9.2,4.8,13.1,12.6,12.9,22.6c-0.2,10.7-6.1,17.7-15.6,22.1c-7.4,3.4-15.2,5-23.2,5.6
			c-9.2,0.7-18.3,0.5-27.5,0.6c-1.3,0-1-0.7-1-1.4C281.9,268,281.9,258.9,281.9,249.7z M282.3,140.9c6.6-0.3,13.2-0.6,19.8-1
			c1.1-0.1,1.1,0.4,1.1,1.2c0,7.2,0,14.5,0,21.7c0,7.1,0,14.2,0,21.3c0,1.1-0.3,1.4-1.4,1.4c-6.4-0.1-12.9-0.1-19.3,0
			c-1.2,0-1.4-0.4-1.4-1.5c0-13.8,0-27.7,0-41.5C281,141.4,281.2,141,282.3,140.9z M250.8,446.5c0,1.3-0.2,1.6-1.5,1.1
			c-12.9-4.4-25.1-10.3-36.5-17.7c-9.6-6.2-18.4-13.3-26.4-21.5c0,0,0,0-0.1,0c0,0,0,0,0-0.1c-7.5-7.4-14.1-15.4-19.8-24.2
			c-10.6-16.2-18.4-33.8-22.5-52.8c-3.2-14.5-4.2-29.2-3.2-44c1.7-25.8,9.4-49.8,22.8-71.9c2.4-3.9,5.2-7.6,8-11.3
			c4.3-5.7,8.7-11.3,12.2-17.8c1.6,2.1,3.1,4.1,4.6,6c-0.1,0.1-0.1,0.2-0.2,0.3c-1-0.3-2-0.7-2.9-0.9c0,4.3-0.1,8.6,0,12.9
			c0.1,4.1,0.5,8.2,1,12.3c0.2,1.2,0.6,1.3,1.6,1.3c6.1,0,12.2-0.1,18.3,0c3.8,0,7.6,0.6,11.4,1c8.1,0.9,11.9,7.9,11.9,14.5
			c0,14.1,0,28.2,0.1,42.3c0,24.9,0.1,49.8,0.1,74.7c0,4.3,0.3,8.6-0.4,12.9c-0.2,1.3-0.5,2.5-1.1,3.7c-1.2,2.7-3,4.5-6.2,5.1
			c-6.4,1.3-12.8,1.3-19.2,1c-2.7-0.1-5.5-0.1-8.2-0.2c-0.7,0-1.2,0-1.5,0.8c-3.9,11.1-6.7,22.4-6.8,34.3c0,0,0,0,0,0c0,0,0,0,0,0
			c0,0,0,0,0,0c4.3-0.2,8.7,0.2,13,0.3c15.3,0.3,30.6,0.1,46,0.1c1.4,0,2.8,0.1,4.2,0c1.2-0.1,1.4,0.3,1.4,1.4
			c-0.1,9.5,0,18.9-0.1,28.4C250.8,441.3,250.7,443.9,250.8,446.5z M249.3,186.4c-16.8,0-33.5,0.2-50.3-0.3
			c-4.1-0.1-8.1-0.3-12.5-0.5c6.1-5.4,12.2-10.3,18.5-14.8c13.6-9.7,28.1-17.7,44-23c1.7-0.6,1.7-0.6,1.7,1.2
			c0,11.9,0.1,23.8,0.1,35.7C250.9,185.9,250.8,186.4,249.3,186.4z M304.1,432.6C304.1,432.6,304,432.6,304.1,432.6
			c0,7.1,0,14.2,0,21.3c0,0.8,0.1,1.4-1.1,1.3c-6.9-0.3-13.9-0.4-20.8-0.9c-0.9-0.1-1.2-0.2-1.2-1.2C281,439,281,425,281,410.9
			c0-0.8,0.2-1.1,1.1-1.1c6.9,0,13.9,0,20.8,0c1.1,0,1.2,0.4,1.2,1.3C304.1,418.3,304.1,425.5,304.1,432.6z M293.2,373
			c-3.3,0.1-6.6,0.3-9.9,0.5c-1.1,0.1-1.4-0.1-1.4-1.3c0.1-10.3,0-20.5,0-30.8c0-10.1,0-20.2,0-30.3c0-1.2,0.2-1.6,1.5-1.6
			c9.8,0.1,19.5-0.1,29.3,0.1c10.1,0.1,20.2,1.2,29.7,5c5.3,2.1,10.6,4.5,14.5,9c8.8,10.1,8.4,26.8-1.2,35.5
			c-5.3,4.8-11.6,7.6-18.4,9.7c-6.1,1.9-12.4,2.8-18.7,3.3C310.2,372.8,301.7,372.8,293.2,373z M454.6,308.4
			c-1.8,25.4-9.1,49-22.4,70.8c-9.8,16-22.1,29.7-36.7,41.4c-17.8,14.1-37.7,24.1-59.7,29.9c-1.4,0.4-1.6,0.1-1.6-1.3
			c0-12.8,0-25.6,0-38.4c0-1,0.1-1.5,1.4-1.6c11.4-1.1,22.8-2.1,34-4.7c9.2-2.1,17.9-5.2,26-10.2c11.4-7,18.7-17.1,23-29.5
			c3.9-11.2,5-22.8,3.7-34.6c-0.7-6.4-1.8-12.6-4.7-18.4c-4.5-8.9-11.6-15.2-20.3-19.9c-4.8-2.6-9.8-4.5-15.4-5.8
			c1.9-1.3,3.6-2.3,5.2-3.5c9.9-7.4,15.4-17.5,17.7-29.5c2.2-11.3,1-22.4-3.6-33c-4.3-9.9-11.6-17-21-22c-9.5-5.1-19.8-7.8-30.3-9.6
			c-4.8-0.9-9.6-1.5-14.4-2.1c-0.8-0.1-1.2-0.3-1.2-1.2c0.1-13.4,0.1-26.8,0.1-40.2c0-0.1,0-0.3,0.1-0.5c4.6,1.2,9.1,2.5,13.5,4
			c27.6,9.8,51.1,25.7,70.1,48.1c15.5,18.3,26.4,39,32.2,62.3C454.3,275.1,455.8,291.6,454.6,308.4z"/>
	</g>
</g>
</svg>
