<?xml version="1.0" encoding="utf-8"?>
<!-- Generator: Adobe Illustrator 22.0.1, SVG Export Plug-In . SVG Version: 6.00 Build 0)  -->
<svg version="1.1" id="Layer_1" xmlns="http://www.w3.org/2000/svg" xmlns:xlink="http://www.w3.org/1999/xlink" x="0px" y="0px"
	 viewBox="0 0 226.8 226.8" style="enable-background:new 0 0 226.8 226.8;" xml:space="preserve">
<style type="text/css">
	.st0{fill:#5EB8E6;}
</style>
<path class="st0" d="M113.4,0.2C50.9,0.2,0.1,50.9,0.1,113.4c0,62.6,50.8,113.3,113.3,113.3c62.6,0,113.3-50.8,113.3-113.3
	C226.8,50.9,176,0.2,113.4,0.2z M160.8,135h-27.9c-0.3-2.2-1.1-4.2-2.4-6l19.7-19.7C156.1,116.3,160.1,125.1,160.8,135z M120.2,94.5
	c9.9,0.5,18.7,4.5,25.7,10.5l-19.7,19.7c-1.7-1.1-3.8-2.1-6-2.4C120.2,122.4,120.2,94.5,120.2,94.5z M74,40.8l40.3,36.1v45.6
	c-1.8,0.3-3.8,1.1-5.4,2.2c-3.9-3.9-27.4-27.5-34.8-35.1C74,88.2,74,40.8,74,40.8z M74,98.6l30.3,30.3c-1.1,1.8-2.1,3.9-2.4,6.1H74
	V98.6z M74,140.9h27.9c0.3,2.1,1.1,4.1,2.4,5.7l-19.7,19.9C78.6,159.7,74.7,150.8,74,140.9L74,140.9z M114.5,181.3
	c-9.9-0.5-18.7-4.5-25.7-10.5l19.7-19.7c1.7,1.1,3.8,2.1,6,2.4L114.5,181.3L114.5,181.3z M120.2,181.3v-27.9
	c2.2-0.3,4.3-1.2,6.1-2.4l19.6,19.6C139,176.7,130,180.6,120.2,181.3z M150.6,166.2l-19.8-19.7c1-1.7,1.7-3.6,2.1-5.6h28.1
	C160.2,150.5,156.4,159.2,150.6,166.2L150.6,166.2z"/>
</svg>
