<svg id="svg4215" xmlns="http://www.w3.org/2000/svg" viewBox="0 0 545.1 540.1" width="2500" height="2477"><style>.st0{fill:url(#path4774_1_)}.st1{fill:url(#path4837_1_)}.st2{fill:url(#path4774-5_1_)}.st3{fill:url(#path4837-9_1_)}.st4{fill:#fff}.st5{fill:url(#path4839_1_)}.st6{fill:url(#path4793_1_)}.st7{fill:url(#path4839-1_1_)}.st8{fill:url(#path4793-7_1_)}</style><g id="layer1"><g id="g5085" transform="matrix(1.64575 0 0 1.64575 -304.395 -188.886)"><linearGradient id="path4774_1_" gradientUnits="userSpaceOnUse" x1="5.289" y1="644.276" x2="-487.665" y2="881.661" gradientTransform="translate(450.106 -1089.056) scale(2.1668)"><stop offset="0" stop-color="#314477"/><stop offset="1" stop-color="#228cc1"/></linearGradient><path id="path4774" class="st0" d="M495.9 280.2c0 42.2-18.4 82.3-50.5 110s-74.7 40.2-116.8 34.3L349 280.2h146.9z"/><linearGradient id="path4837_1_" gradientUnits="userSpaceOnUse" x1="-191.845" y1="241.315" x2="-684.799" y2="478.7" gradientTransform="rotate(90 18.044 825.8) scale(2.1668)"><stop offset="0" stop-color="#314477"/><stop offset="1" stop-color="#228cc1"/></linearGradient><path id="path4837" class="st1" d="M347.8 426.4c-42.2 0-82.3-18.4-110-50.5-27.7-32.1-40.2-74.7-34.3-116.8l144.3 20.4v146.9z"/><linearGradient id="path4774-5_1_" gradientUnits="userSpaceOnUse" x1="-594.815" y1="438.453" x2="-1087.77" y2="675.839" gradientTransform="rotate(180 -524.657 600.416) scale(2.1668)"><stop offset="0" stop-color="#314477"/><stop offset="1" stop-color="#228cc1"/></linearGradient><path id="path4774-5" class="st2" d="M205.3 277.6c0-42.2 18.4-82.3 50.5-110s74.7-40.2 116.8-34.3l-20.4 144.3H205.3z"/><linearGradient id="path4837-9_1_" gradientUnits="userSpaceOnUse" x1="-397.673" y1="841.432" x2="-890.627" y2="1078.818" gradientTransform="rotate(-90 -1069.516 373.536) scale(2.1668)"><stop offset="0" stop-color="#314477"/><stop offset="1" stop-color="#228cc1"/></linearGradient><path id="path4837-9" class="st3" d="M353.4 131.4c42.2 0 82.3 18.4 110 50.5 27.7 32.1 40.2 74.7 34.3 116.8l-144.3-20.4V131.4z"/><circle id="path4776" class="st4" cx="350.5" cy="280.5" r="83.1"/><path d="M285.8 279.4c-11.7-7.8-20.2-18-32.9-54.3-13.1 2.1-52.5 20.4-65.4 64.3l19.1-.6 60-8.6 19.2-.8z" id="path4931"/><linearGradient id="path4839_1_" gradientUnits="userSpaceOnUse" x1="-268.555" y1="282.212" x2="-155.061" y2="275.263" gradientTransform="rotate(90 18.044 825.8) scale(2.1668)"><stop offset="0" stop-color="#228cc1"/><stop offset="1" stop-color="#314477"/></linearGradient><path id="path4839" class="st5" d="M287.7 285.3c-16.9-9.6-26.4-21.2-37.1-62-13.7 2.2-52.1 26.7-65.6 72.5l20-.6 62.7-9 20-.9z"/><path d="M350 340.9c-7.8 11.7-18 20.2-54.3 32.9 2.1 13.1 20.4 52.5 64.3 65.4l-.6-19.1-8.6-60-.8-19.2z" id="path5083"/><linearGradient id="path4793_1_" gradientUnits="userSpaceOnUse" x1="-71.417" y1="685.175" x2="42.077" y2="678.226" gradientTransform="translate(450.106 -1089.056) scale(2.1668)"><stop offset="0" stop-color="#228cc1"/><stop offset="1" stop-color="#314477"/></linearGradient><path id="path4793" class="st6" d="M354.8 340.3c-9.6 16.9-21.2 26.4-62 37.1 2.2 13.7 26.7 52.1 72.5 65.6l-.6-20-9-62.7-.9-20z"/><path d="M414.7 278.4c11.7 7.8 20.2 18 32.9 54.3 13.1-2.1 52.5-20.4 65.4-64.3l-19.1.6-60 8.6-19.2.8z" id="path5079"/><linearGradient id="path4839-1_1_" gradientUnits="userSpaceOnUse" x1="-474.387" y1="882.325" x2="-360.893" y2="875.377" gradientTransform="rotate(-90 -1069.516 373.536) scale(2.1668)"><stop offset="0" stop-color="#228cc1"/><stop offset="1" stop-color="#314477"/></linearGradient><path id="path4839-1" class="st7" d="M413.5 272.5c16.9 9.6 26.4 21.2 37.1 62 13.7-2.2 52.1-26.7 65.6-72.5l-20 .6-62.7 9-20 .9z"/><path d="M352.1 216.8c7.8-11.7 18-20.2 54.3-32.9-2.1-13.1-20.4-52.5-64.3-65.4l.6 19.1 8.6 60 .8 19.2z" id="path5077"/><linearGradient id="path4793-7_1_" gradientUnits="userSpaceOnUse" x1="-671.526" y1="479.356" x2="-558.031" y2="472.408" gradientTransform="rotate(180 -524.657 600.416) scale(2.1668)"><stop offset="0" stop-color="#228cc1"/><stop offset="1" stop-color="#314477"/></linearGradient><path id="path4793-7" class="st8" d="M346.4 217.5c9.6-16.9 21.2-26.4 62-37.1-2.2-13.7-26.7-52.1-72.5-65.6l.6 20 9 62.7.9 20z"/></g></g></svg>