<?xml version="1.0" encoding="utf-8"?>
<!-- Generator: Adobe Illustrator 22.0.1, SVG Export Plug-In . SVG Version: 6.00 Build 0)  -->
<svg version="1.1" id="Layer_1" xmlns="http://www.w3.org/2000/svg" xmlns:xlink="http://www.w3.org/1999/xlink" x="0px" y="0px"
	 viewBox="0 0 226.8 226.8" style="enable-background:new 0 0 226.8 226.8;" xml:space="preserve">
<style type="text/css">
	.st0{fill:#3775B7;}
</style>
<path class="st0" d="M113.4,0C50.8,0,0,50.8,0,113.4C0,176,50.8,226.8,113.4,226.8S226.8,176,226.8,113.4C226.8,50.8,176,0,113.4,0z
	 M56.6,104.8h45.3l-5.2,17H51.3L56.6,104.8z M173.8,96.8c-1.8,6.5-7.7,26-10.1,32.9c-2.4,6.9-6.8,12.7-12.5,16.1
	c-5.7,3.3-7.8,4.7-15.7,4.7H54.3l5.7-18.5h76.4l11.4-37.1H72l5.7-18.5h84.6c3.9,0,9,1.8,11.5,6.6C176.3,87.8,175.6,90.3,173.8,96.8
	L173.8,96.8z"/>
</svg>
