<?xml version="1.0" encoding="utf-8"?>
<!-- Generator: Adobe Illustrator 22.0.1, SVG Export Plug-In . SVG Version: 6.00 Build 0)  -->
<svg version="1.1" id="Layer_1" xmlns="http://www.w3.org/2000/svg" xmlns:xlink="http://www.w3.org/1999/xlink" x="0px" y="0px"
	 viewBox="0 0 595.3 595.3" style="enable-background:new 0 0 595.3 595.3;" xml:space="preserve">
<style type="text/css">
	.st0{fill:#00DC9F;}
	.st1{fill:#0070FF;}
</style>
<path class="st0" d="M595.3,254.1c0-102.9-83.4-186.3-186.3-186.3H261.7L362,154.9H409c54.7,0,99.2,44.5,99.2,99.2
	c0,54.7-44.5,99.2-99.2,99.2H261.7l200.7,174.2h132.9L479.2,426.7C547.3,399,595.3,332.1,595.3,254.1z"/>
<path class="st1" d="M186.3,440.4c-54.7,0-99.2-44.5-99.2-99.2c0-54.7,44.5-99.2,99.2-99.2h147.3L132.9,67.7H0l116.1,100.8
	C48,196.3,0,263.1,0,341.2c0,102.9,83.4,186.3,186.3,186.3h147.3l-100.4-87.1L186.3,440.4L186.3,440.4z"/>
</svg>
