<?xml version="1.0" encoding="utf-8"?>
<!-- Generator: Adobe Illustrator 22.0.1, SVG Export Plug-In . SVG Version: 6.00 Build 0)  -->
<svg version="1.1" id="Layer_1" xmlns="http://www.w3.org/2000/svg" xmlns:xlink="http://www.w3.org/1999/xlink" x="0px" y="0px"
	 viewBox="0 0 226.8 226.8" style="enable-background:new 0 0 226.8 226.8;" xml:space="preserve">
<style type="text/css">
	.st0{fill:#BEA649;}
</style>
<path class="st0" d="M116.3,74.9h-16.2v32h25.5v13.4h-25.5v32h17c4.4,0,35.9,0.5,35.9-37.2C152.9,77.3,122.4,74.9,116.3,74.9
	L116.3,74.9z"/>
<path class="st0" d="M113.6,0C50.9,0,0,50.9,0,113.6c0,62.7,50.9,113.6,113.6,113.6c62.7,0,113.6-50.9,113.6-113.6
	C227.2,50.9,176.4,0,113.6,0z M118.1,175H76.9v-54.7H62.4v-13.4h14.5V52.2h35.3c8.4,0,63.7-1.7,63.7,62.4
	C175.9,179.8,118.1,175,118.1,175z"/>
</svg>
