<?xml version="1.0" encoding="utf-8"?>
<!-- Generator: Adobe Illustrator 22.0.1, SVG Export Plug-In . SVG Version: 6.00 Build 0)  -->
<svg version="1.1" id="Layer_1" xmlns="http://www.w3.org/2000/svg" xmlns:xlink="http://www.w3.org/1999/xlink" x="0px" y="0px"
	 viewBox="0 0 292.5 316" style="enable-background:new 0 0 292.5 316;" xml:space="preserve">
<style type="text/css">
	.st0{fill:#AD0907;}
	.st1{fill:#030303;}
</style>
<title>icons 2</title>
<desc>Created with Sketch.</desc>
<g id="_x39_TSjx7.tif">
	<g>
		<path class="st0" d="M49.2,72.9c0-23.2,0-46.4,0-72.9C72,28.8,92.9,55,113.8,81.3c26.5,33.5,52.9,67.1,79.5,100.5
			c2.5,3.1,4.2,7.5,8.9,8.5c10.9,18.6,24.2,35.4,39.7,50.4c3.1,25,0.2,50.2,1.9,75.2c-0.9,0-1.9,0-2.8,0
			c-26.2-37.4-56.2-71.9-84.2-107.9c-22.1-28.4-45-56.2-67.6-84.3C77.2,105.8,63.9,88.8,49.2,72.9z"/>
		<path class="st1" d="M241.9,240.8c-15.6-15-28.8-31.8-39.7-50.4c-0.2-31.4-0.3-62.8-0.8-94.2c-0.1-6.9,1.1-9.6,9-9.7
			c31.7-0.7,31.7-1,31.7,30.7C242.1,158.3,242,199.5,241.9,240.8z"/>
		<path class="st1" d="M49.2,72.9c14.7,15.9,28,32.9,40.1,50.8c0.1,31-0.2,62.1,0.5,93.1c0.2,9.1-2.1,11.8-11.5,11.8
			c-29.6-0.3-29.7,0.2-29.6-30C48.8,156.7,49,114.8,49.2,72.9z"/>
	</g>
</g>
</svg>
