<?xml version="1.0" encoding="utf-8"?>
<!-- Generator: Adobe Illustrator 22.0.1, SVG Export Plug-In . SVG Version: 6.00 Build 0)  -->
<svg version="1.1" id="Layer_1" xmlns="http://www.w3.org/2000/svg" xmlns:xlink="http://www.w3.org/1999/xlink" x="0px" y="0px"
	 viewBox="0 0 2500 2482" style="enable-background:new 0 0 2500 2482;" xml:space="preserve">
<style type="text/css">
	.st0{fill:#0176B5;}
	.st1{fill:#06D0FE;}
	.st2{fill:#08A5D5;}
	.st3{fill:#01CFFE;}
	.st4{fill:#00A3D4;}
</style>
<g id="knisFk.tif">
	<g>
		<path class="st0" d="M880.5,1476.3c-173.9,1.2-347.8,2.3-521.7,3.8c-37.5,0.3-47.4-10.6-26.9-46c76-131.8,150.5-264.5,225-397.2
			c12.8-22.8,28.3-35.6,56.4-35.3c171.7,2,343.5,2.8,515.2,4c3.1,18.8-8.1,31.7-16.5,47C1034.2,1193.5,957.5,1335,880.5,1476.3z"/>
		<path class="st0" d="M1181.2,842.1c-175.7,1-351.3,2-527,3.2c-34.9,0.2-42.2-11.6-24.1-42.8c78-135,155.1-270.6,231.9-406.3
			c10.9-19.3,25.3-27,47.2-26.8c173.5,1.6,347,2.5,520.5,3.5c-3.4,31.4-22.1,55.9-36.9,82.2C1321,583.5,1243.9,708.8,1181.2,842.1z"
			/>
		<path class="st0" d="M555.5,2109.1c-173.9,1.1-347.7,2-521.6,3.5c-34.3,0.3-42.9-9.6-24.3-41.7c77.3-133.4,153.6-267.3,229-401.8
			c13.5-24.1,29.7-33.1,57-32.8c169.5,1.8,339.1,2.3,508.6,3.2c1.9,23-8.4,42-19.2,61.1C708.4,1836.7,632,1972.9,555.5,2109.1z"/>
		<path class="st1" d="M1652.8,1006c171.1-1.4,342.1-2.8,513.2-4.1c33.8-0.3,42.9,12.3,25.2,43.7c-75.4,134-150.1,268.4-224.4,403.1
			c-11.7,21.1-26.4,32.2-51.3,31.9c-166.7-1.9-333.4-3-500.1-4.4c1.8-8.4,1.6-18,5.6-25.1c66.9-118.3,134.6-236.2,201.3-354.6
			C1637.9,1068.5,1656.9,1040.9,1652.8,1006z"/>
		<path class="st2" d="M1652.8,1006c4.1,35-14.9,62.5-30.6,90.4c-66.7,118.4-134.4,236.3-201.3,354.6c-4,7.2-3.8,16.7-5.6,25.1
			c-178.3,7.1-356.5,6.8-534.8,0.1c77-141.3,153.6-282.8,231.4-423.7c8.4-15.2,19.7-28.2,16.5-47
			C1303.3,999.4,1478,998.7,1652.8,1006z"/>
		<path class="st3" d="M1338.8,1640c169.1-1,338.2-1.6,507.3-3.4c41.3-0.4,42.4,14.6,24.6,45.9c-74.9,131.8-149,264.1-222.6,396.6
			c-12.9,23.2-29.1,33.9-56.8,33.5c-166.9-2.1-333.8-2.6-500.8-3.6c37-66.1,77.2-130.7,110.3-198.8
			C1245.1,1819.2,1310.4,1738.9,1338.8,1640z"/>
		<path class="st3" d="M1964.4,373.2c166.8-1.1,333.5-2,500.3-3.5c41.3-0.4,42.1,14.8,24,46.7c-75,131.6-148.8,264-221.9,396.7
			c-13.3,24.1-30,32.8-57,32.5c-164.6-1.9-329.2-2.4-493.9-3.4c24.2-72.6,71.9-132.9,105.3-200.8
			C1865.9,550.4,1927.8,468.6,1964.4,373.2z"/>
		<path class="st4" d="M1964.4,373.2c-36.6,95.3-98.5,177.2-143.3,268.1c-33.4,67.8-81.1,128.1-105.3,200.8
			c-178.2,0-356.5,0-534.7-0.1c62.7-133.2,139.8-258.6,211.6-386.9c14.7-26.3,33.5-50.8,36.9-82.2
			C1607.9,367.8,1786.2,367.4,1964.4,373.2z"/>
		<path class="st4" d="M1338.8,1640c-28.5,99-93.7,179.2-138,270.2c-33.1,68.1-73.3,132.6-110.3,198.8c-178.3,5.4-356.7,5.3-535,0
			c76.5-136.2,152.9-272.3,229.5-408.4c10.7-19.1,21.1-38.1,19.2-61.1C982.4,1639.6,1160.6,1639.8,1338.8,1640z"/>
	</g>
</g>
</svg>
