<?xml version="1.0" encoding="utf-8"?>
<!-- Generator: Adobe Illustrator 22.0.1, SVG Export Plug-In . SVG Version: 6.00 Build 0)  -->
<svg version="1.1" id="Layer_1" xmlns="http://www.w3.org/2000/svg" xmlns:xlink="http://www.w3.org/1999/xlink" x="0px" y="0px"
	 viewBox="0 0 226.8 226.8" style="enable-background:new 0 0 226.8 226.8;" xml:space="preserve">
<style type="text/css">
	.st0{fill:#8B92AF;}
</style>
<path class="st0" d="M113.3,0C50.7,0,0,50.7,0,113.3s50.7,113.3,113.3,113.3s113.3-50.7,113.3-113.3S175.9,0,113.3,0z M111.8,188.4
	L67.1,125l44.8,26.2V188.4L111.8,188.4z M111.8,142l-45.1-26.4l45.1-19.7V142L111.8,142z M111.8,92.6l-43.6,19.1l43.6-73.3
	C111.8,38.5,111.8,92.6,111.8,92.6z M114.8,38.4L159,112l-44.2-19.4C114.8,92.6,114.8,38.4,114.8,38.4z M114.8,188.4v-37.1
	l44.8-26.2L114.8,188.4L114.8,188.4z M114.8,142V95.8l45.1,19.8L114.8,142z"/>
</svg>
