<?xml version="1.0" encoding="utf-8"?>
<!-- Generator: Adobe Illustrator 22.0.1, SVG Export Plug-In . SVG Version: 6.00 Build 0)  -->
<svg version="1.1" id="Layer_1" xmlns="http://www.w3.org/2000/svg" xmlns:xlink="http://www.w3.org/1999/xlink" x="0px" y="0px"
	 viewBox="0 0 292.5 316" style="enable-background:new 0 0 292.5 316;" xml:space="preserve">
<style type="text/css">
	.st0{fill:#01FEC2;}
	.st1{fill:#02FEC2;}
	.st2{fill:#03D5B4;}
	.st3{fill:#01EFB6;}
	.st4{fill:#03C4A6;}
	.st5{fill:#02BD9F;}
	.st6{fill:#02B599;}
	.st7{fill:#01F4BA;}
	.st8{fill:#02CDAE;}
	.st9{fill:#00CB9A;}
	.st10{fill:#01DBA6;}
	.st11{fill:#02D5B4;}
	.st12{fill:#01E6AF;}
</style>
<g id="_x37_83SRD.tif">
	<g>
		<path class="st0" d="M6.1,86.7C18.1,28.9,79.4,4.1,124.5,25c-11.3,11.7-20.6,24.6-25.9,40.2c-2,6.1-2.5,11.5,2.7,16.2
			c-1.6-0.5-3.2-1-4.8-1.4c-13.9-3.3-27.2,5.3-29.7,19.2c-2.5,13.5,6.9,26,20.9,27.9c2.3,0.3,4.7,0.3,7.1,0.6
			c18.8,2.4,31,21.1,25.5,39.2c-4.5,14.7-15.2,21.5-35.4,22.3c-16.4-2.4-32-6.7-45.8-16.3c-3.8-3.3-7.6-6.6-11.4-10
			c-0.4-2-1.7-3.2-3.5-3.9c-0.5-1-0.8-2.2-1.5-3.1c-9.4-12.1-15.1-25.8-17.4-41C5,113.4,5.4,90,6.1,86.7z"/>
		<path class="st1" d="M187.9,297.6c-7-1.4-14.1-2.6-20.5-6.2c7.1-8.4,14.9-16.4,19.5-26.6c4.1-9,10.5-17.6,7-28.5
			c21,5.1,36.7-14.4,29.6-31.9c-4.3-10.5-12.7-15.1-24-15.5c-16.6-0.6-29.4-14.1-29.6-30.3c-0.2-16,11.9-29.3,28.2-31
			c2.8-0.3,5.6-0.4,8.5-0.7c18,2.9,34.9,8.1,49.3,20c4,3.3,6.8,8,11.9,10c-0.3,2.7,1.8,4.2,3.2,6.1c37.3,52.3,7,124.4-56.5,134.6
			C211.4,298,190.4,298.1,187.9,297.6z"/>
		<path class="st2" d="M5.6,199.1c1.5-7.1,3-14.2,6.5-20.7c2.1,1.1,3.9,2.5,5.2,4.6c9.2,14.3,23.2,22.1,38.3,28.5
			c4.5,1.9,8.1,1.9,10.7-2.7c0,0.9,0,1.9,0,2.8c0.1,14.1,10,24.9,23.4,25.5c13.2,0.6,23.8-9.5,24.9-23.8c0.1-1.9,0.4-3.8,0.7-5.6
			c2.8-15.5,16.4-26.3,31.9-25.6c15.8,0.8,28.5,13.3,29.6,29.1c0.2,3.5,0.8,7,1.3,10.5c-4.8,2.4-2.6,7.2-3.5,10.8
			c-4.3,16.8-13.2,30.7-24.8,43.2c-0.5,0.5-0.9,0.9-1.4,1.4c-0.6,0.6-1.1,1.3-1.7,1.9c-1.4,0.8-3,1.3-4.3,2.3
			c-12.9,9.6-27.3,14.9-43.1,16.9c-1.7,0.2-17.6,0-19.7-0.3c-39.7-6.4-66.7-32.6-74.2-72.1C5.1,224,5.1,201.4,5.6,199.1z"/>
		<path class="st3" d="M105.7,84c-1.4-0.9-2.9-1.8-4.3-2.7c-5.2-4.7-4.8-10.1-2.7-16.2c5.2-15.6,14.6-28.5,25.9-40.2
			c5.8,1.9,11.1,4.7,15.8,8.8c-4.5-1.5-7.8-0.3-11.4,3C115.1,49.7,108.5,65.9,105.7,84z"/>
		<path class="st4" d="M70.5,199c-0.8,1.5-1.6,3-2.3,4.4c-9.2,0.3-17-4.2-24.4-8.7c-11.6-7-20.7-16.3-23.5-30.4
			c0.6-2.3,2.2-3.9,3.9-5.4c1.8,0.7,3.1,1.9,3.5,3.9c-0.7,4.8,1.5,8.7,4.1,12.4C41.2,188.9,55.1,195.2,70.5,199z"/>
		<path class="st5" d="M70.5,199c-15.4-3.9-29.3-10.1-38.7-23.7c-2.6-3.7-4.7-7.6-4.1-12.4c3.8,3.3,7.6,6.6,11.4,10
			c-0.3,2.8,0.6,5.2,2.7,6.9C51.1,187,61,192.9,73,194.7c0,0.4,0,0.9,0,1.3C72.2,197,71.3,198,70.5,199z"/>
		<path class="st6" d="M73,194.7c-11.9-1.8-21.9-7.6-31.2-14.9c-2.2-1.7-3.1-4.1-2.7-6.9c13.8,9.6,29.5,13.9,45.8,16.3
			c-2.9,1.4-5.9,2.8-8.8,4.2C75.1,193.8,74,194.3,73,194.7z"/>
		<path class="st7" d="M188.4,233.8c1.8,0.8,3.7,1.7,5.5,2.5c3.5,10.9-2.9,19.5-7,28.5c-4.6,10.1-12.4,18.1-19.5,26.6
			c-1.6-0.7-3.3-1.4-4.9-2.1c-0.7-1.3-1.9-1.8-3.3-1.9c-1.3-0.7-2.7-1.5-4-2.2c2.5-0.8,4.8-1.9,6.8-3.6
			C177.2,269.1,184.6,252.4,188.4,233.8z"/>
		<path class="st5" d="M206.6,126.9c4.5-1.7,9.4-2.6,12.8-6.3c1.7,3.4,4.8,3.8,8.1,4.7c17.7,4.3,33.7,11.3,42.5,28.8
			c0,0,0-0.1,0-0.1c-1.4,0.3-1.9,1.3-2.1,2.5c0,0-0.2,0.4-0.2,0.4c-5.1-2-7.9-6.7-11.9-10C241.5,135,224.6,129.7,206.6,126.9z"/>
		<path class="st8" d="M20.3,164.4c2.7,14.1,11.9,23.4,23.5,30.4c7.4,4.5,15.1,8.9,24.4,8.7c-0.6,1.8-1.2,3.5-1.7,5.3
			c-2.7,4.6-6.3,4.5-10.7,2.7c-15.1-6.3-29.1-14.1-38.3-28.5c-1.3-2-3.1-3.5-5.2-4.6C14.1,173.3,16.5,168.4,20.3,164.4z"/>
		<path class="st9" d="M178.1,221.8c1,2.3,2.1,4.6,3.1,6.8c-1.5,2.4-2.5,4.8-3.1,7.7c-2.9,13.8-8.7,26.1-19.5,35.6
			c-2.6,2.3-5.3,3.8-8.8,3.8c11.6-12.5,20.5-26.4,24.8-43.2C175.5,229,173.4,224.1,178.1,221.8z"/>
		<path class="st10" d="M149.8,275.8c3.5,0,6.3-1.6,8.8-3.8c10.8-9.5,16.6-21.8,19.5-35.6c0.6-2.9,1.6-5.3,3.1-7.7
			c0.9,1,1.9,2,2.8,2.9c-0.6,2-1.3,4-1.9,6.1c-4.9,18.9-13.6,35.1-32.3,43.7c-0.5-0.4-1-0.8-1.5-1.1c0-1,0.1-2,0.1-3
			C148.9,276.7,149.4,276.2,149.8,275.8z"/>
		<path class="st9" d="M148.4,277.2c0,1-0.1,2-0.1,3c-0.5-0.4-1.1-0.7-1.6-1.1C147.3,278.4,147.9,277.8,148.4,277.2z"/>
		<path class="st11" d="M224.5,110.2c2.1-10.4-0.2-19.3-8.9-25.9c-7.4-5.6-15.7-6.6-24.1-2.9c-10.1,4.5-14.3,12.8-14.7,23.8
			c-0.6,15.7-13.1,27.8-28.9,28.8c-16,1-29.7-9.7-32.5-25.5c-0.9-4.9-1.5-9.8-2.2-14.7c3.2-1.1,3-4.2,3.4-6.5
			c3.3-17.3,11.6-31.9,23.7-44.4c1.6-1.6,3.9-3,2.4-6c0-0.4,0-0.9,0-1.3c3.7,2.9,6-0.4,8.5-2.1c49-34.1,116.6-10.3,132.7,47.1
			c5.5,19.6,4.5,38.8-4.6,57.3C263.8,123.1,246.2,112.7,224.5,110.2z"/>
		<path class="st8" d="M224.5,110.2c21.6,2.6,39.3,13,54.8,27.7c-0.6,1.4-1.2,2.8-1.9,4.2c-1.3,1-2.6,1.9-3.9,2.9
			c-13.1-13-28.5-21.7-46.5-25.9c-1.2-0.3-2.2-1.7-3.3-2.5c-0.1-1.1-0.2-2.1-0.3-3.2c0,0-0.2,0.2-0.2,0.2c1.2-0.8,1.5-1.9,1.2-3.3
			L224.5,110.2z"/>
		<path class="st10" d="M142.8,35.6c0,0.4,0,0.9,0,1.3c-5.4,1.1-9.2,4.7-12.7,8.5c-12.3,13.3-18,29.1-17.3,47.2c-1.4-2-2.8-4-4.2-6
			c0.5-1.4-0.6-1.2-1.4-1.4c-0.5-0.4-0.9-0.8-1.4-1.2c2.8-18.2,9.5-34.3,23.2-47.2c3.5-3.3,6.9-4.5,11.4-3
			C141.1,34.4,141.9,35,142.8,35.6z"/>
		<path class="st4" d="M223.8,116.5c1.1,0.9,2,2.2,3.3,2.5c18,4.2,33.5,12.9,46.5,25.9c0.1,1.1,0.1,2.3,0.2,3.4
			c-0.5,2.3-2.1,4-3.7,5.7c-8.8-17.5-24.8-24.5-42.5-28.8c-3.4-0.8-6.5-1.3-8.1-4.7c0.8-1.4,1.5-2.9,2.3-4.3
			C222.4,116.3,223.1,116.4,223.8,116.5z"/>
		<path class="st11" d="M273.8,148.3c-0.1-1.1-0.1-2.3-0.2-3.4c1.3-1,2.6-1.9,3.9-2.9C276.7,144.4,275.7,146.7,273.8,148.3z"/>
		<path class="st4" d="M268,156.5c0.2-1.3,0.7-2.2,2.1-2.5C269.4,154.8,268.7,155.6,268,156.5z"/>
		<path class="st12" d="M149.9,281.3c18.8-8.7,27.4-24.8,32.3-43.7c0.5-2,1.2-4,1.9-6.1c1.5,0.7,2.9,1.5,4.4,2.2
			c-3.9,18.7-11.3,35.4-26.4,47.8c-2.1,1.7-4.4,2.8-6.8,3.6c0,0,0-0.1,0-0.1c-0.5-1.4-1.6-1.9-2.9-2
			C151.5,282.5,150.7,281.9,149.9,281.3z"/>
		<path class="st7" d="M152.3,283.1c1.4,0.1,2.4,0.6,2.9,2C154.2,284.4,153.3,283.7,152.3,283.1z"/>
		<path class="st1" d="M159.2,287.3c1.4,0.1,2.6,0.6,3.3,1.9C161.4,288.6,160.3,287.9,159.2,287.3z"/>
		<path class="st9" d="M112.7,92.6c-0.8-18.1,4.9-33.9,17.3-47.2c3.5-3.8,7.3-7.4,12.7-8.5c1.5,2.9-0.8,4.3-2.4,6
			c-12.1,12.5-20.4,27.1-23.7,44.4c-0.5,2.4-0.3,5.4-3.4,6.5C112.8,93.4,112.6,93.1,112.7,92.6z"/>
		<path class="st4" d="M73,194.7c1-0.4,2.1-0.8,3.1-1.3c-1,0.9-2.1,1.7-3.1,2.6C73,195.6,73,195.1,73,194.7z"/>
		<path class="st11" d="M223.8,116.5c-0.7-0.1-1.4-0.2-2.1-0.2c0.6-1,1.2-1.9,1.8-2.9C223.6,114.4,223.7,115.4,223.8,116.5z"/>
		<path class="st11" d="M224.6,110.3c0.3,1.4,0,2.5-1.2,3.3C223.8,112.4,224.2,111.4,224.6,110.3z"/>
		<path class="st3" d="M107.1,85.2c0.8,0.1,1.9,0,1.4,1.4C108,86.2,107.6,85.7,107.1,85.2z"/>
	</g>
</g>
</svg>
