<?xml version="1.0" encoding="utf-8"?>
<!-- Generator: Adobe Illustrator 22.0.1, SVG Export Plug-In . SVG Version: 6.00 Build 0)  -->
<svg version="1.1" id="Layer_1" xmlns="http://www.w3.org/2000/svg" xmlns:xlink="http://www.w3.org/1999/xlink" x="0px" y="0px"
	 viewBox="0 0 292.5 316" style="enable-background:new 0 0 292.5 316;" xml:space="preserve">
<style type="text/css">
	.st0{fill:#051D2C;}
	.st1{fill:#29C4E5;}
	.st2{fill:#051D2B;}
	.st3{fill:#4EBFD1;}
	.st4{fill:#4CC0D2;}
</style>
<title>icons 2</title>
<desc>Created with Sketch.</desc>
<g id="Uy9c3O.tif">
	<g>
		<path class="st0" d="M209.8,56.4c-43.4,22.4-86.2,44.5-129.4,66.7c9.3,6.4,18.2,12.6,27.5,19c-16.9,8.6-33.4,17.1-50,25.6
			c11.9,9,23.5,17.8,35.1,26.6c3.3,2.5,3.4,2.5,0.4,5.6C82,211.9,70.5,223.9,59.1,236c-1.3,1.4-2.1,1.8-3.6,0.1
			c-13.7-16.3-23.1-34.7-26.7-55.7C21.5,138.4,33,102,63.2,72C80,55.2,100.5,44.8,124,40.4C154.4,34.8,182.8,40.3,209.8,56.4z"/>
		<path class="st0" d="M88.6,262.7c15-7.7,29.6-15.2,44.3-22.8c25.6-13.2,51.2-26.5,76.9-39.6c2-1,2.4-1.4,0.3-2.8
			c-8.3-5.6-16.5-11.4-25.3-17.5c16.7-8.6,33.1-16.9,50-25.6c-4.2-3.2-8.1-6.2-12-9.2c-8.2-6.2-16.4-12.4-24.6-18.5
			c-1.2-0.9-1.8-1.5-0.5-2.9c13.4-14,26.8-28,40.1-42c0.1-0.1,0.3-0.2,0.5-0.3c33.9,39.3,39,103,2.8,149.7
			C203.7,279.3,138.4,290.3,88.6,262.7z"/>
		<path class="st1" d="M249.2,52.5c-7.8,8.3-15.6,16.6-23.4,24.8c-15,15.8-29.9,31.6-45,47.3c-1.4,1.5-1.8,2.3,0.2,3.8
			c10.5,7.8,20.9,15.8,31.9,24.1c-17,8.7-33.6,17.2-50.8,26c9.3,6.4,18.2,12.6,27.5,19.1c-5.4,2.8-10.4,5.4-15.3,8
			c-39.8,20.6-79.7,41.1-119.5,61.6c-1.4,0.7-2.9,1.3-4.3,2c-2.2,0.8-4.1,2.2-6.3,2.9c-1.3,0.4-2.2,0.3-1.7-1.4
			c7-7.4,13.9-14.8,20.9-22.2c16.1-17,32.2-34,48.4-51c1.8-1.8,1.4-2.6-0.5-4c-10-7.4-19.9-15-29.8-22.5c-0.5-0.4-0.9-0.8-1.6-1.4
			c16.9-8.6,33.5-17.1,50.7-25.9c-9.3-6.5-18.3-12.7-27.5-19.1c9.7-5,19-9.8,28.2-14.6c37.2-19.2,74.4-38.4,111.6-57.6
			c0.6-0.3,1.3-0.5,1.9-0.8c0.9-0.3,1.6-0.8,2.4-1.1C249.2,49.8,249.8,50.5,249.2,52.5z"/>
		<path class="st2" d="M231.9,44.9c-3.3,1.7-6.5,3.3-9.6,5c-1.5,0.8-2.6,0.6-4-0.4c-14.5-9.8-30.4-16.3-47.6-19.6
			c-12.8-2.5-25.7-3.1-38.6-1.4c-50.7,6.8-86.1,33.9-106.6,80.6c-8.4,19.1-10.9,39.4-9.1,60.1c2.5,28.2,13.2,53,31.8,74.3
			c1.5,1.7,1.4,2.6-0.2,4c-1.5,1.4-3.1,2.8-4.3,4.5c-1.6,2.1-2.5,1.5-4-0.1c-14.5-16.6-24.7-35.4-30.6-56.6
			c-4.3-15.3-5.8-30.9-4.7-46.6c2.2-31.8,13.7-59.9,34.7-84c19.6-22.5,44.1-37.4,73.1-44.7c17.2-4.3,34.7-5.1,52.3-2.9
			c24.1,3,45.9,11.9,65.4,26.2C230.7,43.8,231.2,44.3,231.9,44.9z"/>
		<path class="st0" d="M65.6,274.7c3.7-2,7.3-3.7,10.7-5.6c1.4-0.8,2.2,0,3.2,0.6c13.5,8.1,28,13.8,43.5,16.4
			c35,6,67.6-0.6,96.9-20.8c28.6-19.6,46.5-46.7,54-80.6c3.2-14.6,3.5-29.3,1.5-44.1c-3.3-24.6-13-46.3-28.7-65.4
			c-1.1-1.3-0.9-2,0.2-3.1c1.8-1.7,3.5-3.5,5.1-5.4c1.2-1.4,1.7-1.5,3,0c10.5,12.5,18.6,26.3,24.3,41.6c4.7,12.6,7.5,25.6,8.5,39
			c2.3,31.7-5,61-22.2,87.6c-19.9,30.6-47.6,50.7-82.8,60.4c-13.4,3.7-27.1,5.3-40.9,4.7C114.2,298.9,88.8,290.6,65.6,274.7z"/>
		<path class="st3" d="M249.2,52.5c0-1.7-0.6-2.3-2.3-1.4c-0.7,0.4-1.3,0.8-2.1,0.6c3-2.2,6.4-3.5,9.8-5
			C253.1,48.9,251.2,50.7,249.2,52.5z"/>
		<path class="st4" d="M42.4,270.7c0.8,2.5,2.3,0.6,3.2,0.3c1.6-0.6,2.9-1.9,4.8-1.8c-3.9,2.6-8.1,4.4-12.2,6.6
			c-0.2-0.3-0.4-0.5-0.6-0.8C39.2,273.5,40.8,272.1,42.4,270.7z"/>
	</g>
</g>
</svg>
