<?xml version="1.0" encoding="utf-8"?>
<!-- Generator: Adobe Illustrator 22.0.1, SVG Export Plug-In . SVG Version: 6.00 Build 0)  -->
<svg version="1.1" id="Layer_1" xmlns="http://www.w3.org/2000/svg" xmlns:xlink="http://www.w3.org/1999/xlink" x="0px" y="0px"
	 viewBox="0 0 2500 2500" style="enable-background:new 0 0 2500 2500;" xml:space="preserve">
<style type="text/css">
	.st0{fill:#F1385B;}
</style>
<path class="st0" d="M143.6,1252c0,68.3,6.4,136.6,18.8,203.8l-139,26c14.1,75.8,35.3,150,63.2,221.9l131.8-51.2
	c24.8,63.7,55.4,124.9,91.4,182.9l-120.1,74.6c40.7,65.4,87.3,127,139.2,183.8l104.4-95.4c46.1,50.5,96.7,96.6,151.3,137.8
	L499.4,2249c61.5,46.5,127.1,87.1,196.1,121.5l63-126.6c61.2,30.4,125,55.1,190.7,73.8l-38.5,136.2c74.1,21,150,35,226.8,42
	l12.8-140.8c33.6,3.1,67.9,4.6,101.8,4.6c34.3,0,68.9-1.6,102.9-4.7l12.9,140.8c76.7-7,152.6-21.2,226.8-42.2l-38.7-136
	c65.7-18.7,129.5-43.5,190.6-74l63.2,126.5c68.9-34.4,134.5-75.2,195.9-121.7l-85.3-112.7c54.5-41.3,105.1-87.4,151.2-137.9
	l104.5,95.3c51.9-56.9,98.5-118.5,139.1-184l-120.1-74.5c36-58.1,66.5-119.3,91.2-183l131.8,51.1c27.8-71.9,48.9-146.2,63-221.9
	l-138.8-25.8c12.5-67.2,18.8-135.4,18.9-203.8v-2l141.2-0.2c-0.1-77-7.4-153.9-21.6-229.6l-139,26.1
	c-12.6-67.1-31.5-132.9-56.2-196.6l131.8-51.3c-28-71.8-62.6-140.8-103.3-206.2l-120,74.7c-36.1-58-77.5-112.6-123.7-163l104.3-95.5
	c-52-56.8-109.1-108.8-170.6-155.1l-85.1,112.9c-54.6-41.1-112.8-77.2-174-107.6l62.9-126.6c-69-34.3-141.1-62.1-215.3-83
	L1554.1,184c-65.7-18.5-133.1-30.9-201.1-37.1l12.7-140.8c-37.4-3.3-75.2-5-113.5-5.1c-39.4,0-78.4,1.8-116.9,5.4l13.1,140.8
	c-68,6.3-135.3,18.9-201,37.6l-38.8-136C834.4,70,762.5,98,693.5,132.5L756.8,259c-61.1,30.6-119.2,66.8-173.7,108l-85.4-112.7
	c-61.4,46.5-118.4,98.6-170.2,155.6l104.6,95.2c-46,50.6-87.3,105.2-123.2,163.3L188.6,594c-40.6,65.5-75,134.7-102.8,206.6
	l131.9,51c-24.6,63.7-43.2,129.6-55.7,196.7l-139-25.7C9.1,1097.9,2.2,1174.4,2.2,1251v1.1L143.6,1252z M1378.6,2127.7l-7.5-52.6
	c78.6-11.2,155.1-33.7,227.2-66.7l22.1,48.4C1543.6,2091.8,1462.2,2115.7,1378.6,2127.7L1378.6,2127.7z M2137.8,1251
	c0.1,84.4-11.9,168.5-35.6,249.5l-51-15c22.3-76.2,33.5-155.1,33.5-234.5v-1.4l53.2-0.1L2137.8,1251L2137.8,1251z M1996.6,771
	c45.9,70.9,81.3,148.1,105.2,229l-51,15c-22.5-76.1-55.7-148.6-98.8-215.3L1996.6,771z M1952.7,1700.9l44.7,28.8
	c-45.7,71-101.3,135.1-165.1,190.4l-34.8-40.1C1857.5,1828,1909.7,1767.7,1952.7,1700.9L1952.7,1700.9z M1619.1,444.7
	c76.8,35,148.3,80.9,212.1,136.1l-34.8,40.2c-60-51.9-127.2-95-199.4-128L1619.1,444.7z M1485,1032.6h123.9l161.1,237.6v-237.6
	h126.2v430h-125.7L1610,1226.3v236.3h-125V1032.6z M1252.2,365.4c41.8,0,83.5,2.9,124.9,8.8l-7.4,52.6c-78.6-11.1-158.4-11-237,0.3
	l-7.6-52.6C1167.2,368.4,1209.6,365.4,1252.2,365.4L1252.2,365.4z M996.2,1032.6h132.5v262c0,23.4,6.6,41.7,19.6,54.9
	s31.1,19.8,54.1,19.8c22.9,0,41-6.5,54-19.5c13-13,19.7-31.4,19.7-55.2v-262h132.5v255.9c0.1,24.5-4.1,48.8-12.1,71.9
	c-7.8,22.3-20.6,42.5-37.4,59.1c-16.9,16.9-34.6,28.7-53.2,35.6c-25.8,9.6-56.7,14.3-92.9,14.3c-22.9-0.1-45.7-1.6-68.4-4.4
	c-24.7-2.9-45.4-8.7-62-17.4c-16.6-8.7-31.8-21-45.6-37c-13.8-16-23.4-32.5-28.4-49.5c-8.2-27.3-12.5-51.5-12.5-72.6L996.2,1032.6
	L996.2,1032.6z M1134.1,2075.1l-7.5,52.6c-83.6-11.9-165.1-35.7-242-70.8l22.1-48.4C978.9,2041.6,1055.5,2064,1134.1,2075.1z
	 M883.3,445.7l22.2,48.3c-72.1,33.1-139.2,76.4-199.1,128.5l-34.9-40.1C735.2,526.9,806.5,480.9,883.3,445.7L883.3,445.7z
	 M608.8,1032.6h327.5v92.5H742.5v75h166.2v86.2H742.5v176.2H608.8V1032.6z M707.5,1880.5l-34.8,40.2
	c-63.8-55.3-119.5-119.4-165.2-190.3l44.7-28.8C595.2,1768.3,647.5,1828.5,707.5,1880.5z M506.7,773l44.7,28.8
	c-42.9,66.8-76,139.3-98.3,215.5l-51.1-15C425.7,921.2,460.9,844,506.7,773L506.7,773z M419.8,1251.7c0,79.4,11.3,158.3,33.7,234.5
	l-51,15c-23.8-81-35.8-165-35.8-249.4L419.8,1251.7z"/>
</svg>
