<?xml version="1.0" encoding="utf-8"?>
<!-- Generator: Adobe Illustrator 22.0.1, SVG Export Plug-In . SVG Version: 6.00 Build 0)  -->
<svg version="1.1" id="Layer_1" xmlns="http://www.w3.org/2000/svg" xmlns:xlink="http://www.w3.org/1999/xlink" x="0px" y="0px"
	 viewBox="0 0 595.3 595.3" style="enable-background:new 0 0 595.3 595.3;" xml:space="preserve">
<style type="text/css">
	.st0{fill:#5C3F93;}
</style>
<g id="rm5x7c.tif">
	<g>
		<path class="st0" d="M532.8,257c-12.5,0-24.9-0.2-37.4,0.1c-4.2,0.1-5.8-1.3-6.7-5.1c-3.9-15.4-11-29.4-18.7-43.2
			c-1.8-3.2-3.9-4.3-7.4-4.1c-5.6,0.4-11.3,0.4-16.9,0.7c-3.5,0.2-4.8-1.3-4.8-4.8c0.1-17.9,0.1-35.8,0-53.7c0-3.3,1.2-4.4,4.5-4.4
			c23.9,0.1,47.9,0.1,71.8,0c4.2,0,5.7,2.4,7.4,5.4c10.4,18.5,20.6,37,31.3,55.4c8.6,14.9,18.8,28.6,31.3,40.5
			c0.6,0.5,1.1,1.1,1.6,1.7c2.1,2.5,3.9,5.7,2.9,8.4c-0.8,2-4.5,1.6-6.9,1.9C567.4,257.5,550.1,256.8,532.8,257z"/>
		<path class="st0" d="M318.9,526.9c7.5-7.5,14.4-14.2,21.1-21.2c10.3-10.8,17.8-23.1,18.2-38.6c0.1-4.5,1.9-6.1,6.8-6.1
			c19.4,0.3,38.9,0.2,58.3,0c4.4-0.1,6.4,1.2,6.6,5.6c0.9,18.5,11.1,32.3,23.5,44.8c5,5,10.4,9.7,16.5,15.5
			C419.2,526.9,369.6,526.9,318.9,526.9z"/>
		<path class="st0" d="M595.1,342.5c-0.7-1.2-2.3-1.3-3.7-1.3c-10.8-0.8-21.7-1.9-32.6-2.2c-20.4-0.4-40.9-0.1-61.3-0.5
			c-4.9-0.1-7.3,1.4-8.8,6.1c-4.6,14.1-11.1,27.4-17.2,40.8c-1.6,3.6-3.9,5.3-8.1,5.1c-7.4-0.3-14.8-0.1-22.2-0.1
			c-7.7,0-7.7,0-7.7-7.5c0-86,0.2-172.1-0.1-258.1c0-13.2,3.1-24.9,9.5-36.1c3.6-6.3,7.9-12.4,10.3-20c-14.9,0-29.3,0-43.6,0
			c-22.6,0-45.2,0-67.7-0.1c-1.7,0-3.9-1.3-5,0.2c-1.4,2,0.9,3.5,1.8,5c11.6,19,17.9,39.5,18.3,61.8c0.1,5.2-1.2,7-6.7,7
			c-30.7-0.3-61.5-0.3-92.3,0c-5.6,0-6.8-1.8-6.6-7c1-22.9,8.4-43.7,20-63.3c0.6-1.1,2.2-2.1,1.1-3.5c-0.8-1-2.2-0.3-3.3-0.3
			c-36.2,0-72.4,0-108.6,0c-1.3,0-2.9-1-3.7,0.5c-0.8,1.5,0.8,2.5,1.4,3.5c12.3,19.3,17.9,40.7,19.6,63.4c0.4,5.2-1.2,6.6-6.4,6.6
			c-25.9-0.2-51.8,0-77.7-0.2c-4.5,0-7,1.5-9.2,5.4c-8.5,15.3-17.2,30.5-25.9,45.7c-19.2,33.6-38.3,67.2-57.6,100.8
			c-1.6,2.8-1.3,4.9,0.2,7.5c4.8,8.2,9.4,16.6,14.1,24.9c23.5,41,46.9,82,70.4,123c1.4,2.4,3.1,3.6,6,3.6c23.9-0.1,47.9-0.1,71.8,0
			c4,0,4.9-1.5,4.9-5.1c-0.1-17.3-0.2-34.6,0-52c0.1-4.8-1.8-6.1-6.2-5.9c-5.2,0.3-10.5-0.1-15.8,0.1c-3.6,0.1-5.7-1.3-7.4-4.3
			c-15.9-28.1-31.9-56.1-48.1-84c-1.8-3.2-1.8-5.6-0.1-8.6c16-27.6,31.9-55.2,47.6-83c2.2-4,4.7-5.3,9.2-5.2
			c38.1,0.2,76.3,0.1,114.4,0.1c29,0,58,0.1,87-0.1c5.2,0,6.6,1.5,6.5,6.6c-0.3,16.5-0.2,33.1,0,49.6c0,3.8-1.2,5-5,5
			c-30.9-0.1-61.9-0.1-92.8,0c-4,0-4.9-1.4-4.9-5.1c0.2-14-0.2-28,0.2-42c0.1-5-1.1-6.7-6.4-6.7c-20.8,0.3-41.6,0.1-62.5,0.1
			c-9.9,0-8.3-0.3-8.3,8.6c-0.1,84.5-0.1,168.9-0.2,253.4c0,3.1,0.1,6.2-0.6,9.3c-2.6,10.9-10.1,18.1-17.9,25.2
			c-6.1,5.5-12.8,10.5-17.8,18.1c50.2,0,99.5,0,149.4,0c-0.8-3-2.9-3.9-4.4-5.2c-9.2-7.9-17.6-16.5-23.9-26.9
			c-6.6-10.9-10-22.7-9.8-35.5c0.1-4.6,1.5-6.8,6.9-6.7c13.4,0.4,26.9,0.1,40.3,0.1c72.6,0,145.2,0,217.8,0.1c4.5,0,7.2-1.3,9.2-5.3
			c3.3-6.6,7.1-13,10.6-19.4c16.5-29.8,32.6-59.8,58.3-83.2C594.3,344.5,595.8,343.8,595.1,342.5z M350.2,390.4
			c-15.4-0.2-30.7-0.1-46.1-0.1c-15.2,0-30.3-0.1-45.5,0.1c-4.2,0.1-5.8-1-5.8-5.5c0.2-16.7,0.2-33.4,0-50.2c0-3.9,0.8-5.5,5.1-5.5
			c30.9,0.2,61.8,0.1,92.7,0c4,0,4.9,1.5,4.9,5.1c-0.2,16.9-0.2,33.8,0,50.7C355.6,389.3,354.1,390.5,350.2,390.4z"/>
	</g>
</g>
</svg>
