<?xml version="1.0" encoding="utf-8"?>
<!-- Generator: Adobe Illustrator 22.0.1, SVG Export Plug-In . SVG Version: 6.00 Build 0)  -->
<svg version="1.1" id="Layer_1" xmlns="http://www.w3.org/2000/svg" xmlns:xlink="http://www.w3.org/1999/xlink" x="0px" y="0px"
	 viewBox="0 0 226.8 226.8" style="enable-background:new 0 0 226.8 226.8;" xml:space="preserve">
<style type="text/css">
	.st0{fill:none;}
	.st1{fill:#4F8484;}
	.st2{fill:#FFB900;}
	.st3{fill:#1B6565;}
	.st4{fill:#FFA700;}
</style>
<g>
	<polygon class="st0" points="113.4,113.4 113.4,65.9 113.4,113.4 	"/>
	<polygon class="st0" points="113.4,65.9 113.4,46.3 65.9,65.9 65.9,65.9 113.4,113.4 	"/>
	<polygon class="st0" points="113.4,113.4 65.9,65.9 46.3,113.4 65.9,160.9 113.4,180.5 113.4,180.5 113.4,113.4 	"/>
	<path class="st1" d="M113.4,180.5l-47.5-19.7l-19.7-47.5l19.7-47.5L34.6,34.6l-3.1,3.1L0,113.4l31.5,75.8l5.8,5.8
		c25.4,10.6,50.7,21.3,76.1,31.8L113.4,180.5L113.4,180.5z"/>
	<path class="st2" d="M65.9,65.9l47.5-19.7V0l-4.1,1.7l-4.1,1.7L90.6,9.5C72.8,16.9,55,24.4,37.3,31.8l-2.7,2.7L65.9,65.9L65.9,65.9
		z"/>
	<path class="st3" d="M195.3,189.2l31.5-75.8l-31.5-75.8l-3.1-3.1l-31.4,31.4l19.7,47.5l-19.7,47.5h0l-47.5,19.7l0,46.3
		c25.4-10.5,50.8-21.2,76.1-31.8L195.3,189.2z"/>
	<path class="st4" d="M160.9,65.9L160.9,65.9l31.4-31.4l-2.7-2.7c-17.8-7.4-35.5-14.9-53.3-22.3l-14.7-6.1l-4.1-1.7L113.4,0v46.3
		L160.9,65.9z"/>
</g>
<g>
	<polygon class="st1" points="79.8,79.8 65.9,113.4 79.8,147 113.4,160.9 113.4,65.9 	"/>
	<polygon class="st3" points="160.9,113.4 147,79.8 113.4,65.9 113.4,160.9 147,147 	"/>
</g>
</svg>
