<?xml version="1.0" encoding="utf-8"?>
<!-- Generator: Adobe Illustrator 22.0.1, SVG Export Plug-In . SVG Version: 6.00 Build 0)  -->
<svg version="1.1" id="Layer_1" xmlns="http://www.w3.org/2000/svg" xmlns:xlink="http://www.w3.org/1999/xlink" x="0px" y="0px"
	 viewBox="0 0 2500 2482" style="enable-background:new 0 0 2500 2482;" xml:space="preserve">
<style type="text/css">
	.st0{fill:url(#rect4147_1_);}
	.st1{fill:#E5F4F1;}
	.st2{fill:#A7D8D2;}
	.st3{fill:url(#path4155_1_);}
	.st4{stroke:#FFFFFF;stroke-width:2.5222;stroke-linejoin:bevel;}
</style>
<g id="EfFV5q.tif">
	<g>
	</g>
</g>
<g id="layer1">
	<g id="g4228" transform="translate(660.895 -400.733) scale(3.50002)">
		
			<linearGradient id="rect4147_1_" gradientUnits="userSpaceOnUse" x1="-38.0729" y1="460.5438" x2="-40.2071" y2="694.5829" gradientTransform="matrix(30.5522 0 0 30.5522 1208.3202 -13920.3877)">
			<stop  offset="0" style="stop-color:#54D29F"/>
			<stop  offset="1" style="stop-color:#249EAC"/>
		</linearGradient>
		<path id="rect4147" class="st0" d="M-33.5,294.6l143.4-158.3l6.5,665.7L2.5,642.3L-33.5,294.6L-33.5,294.6z"/>
		<path id="path4150" class="st1" d="M126.4,394.5l-3.1-261.7l215.5,157.7L126.4,394.5z"/>
		<path id="path4153" class="st2" d="M337.2,629.9L132,409.1l209.9-105.3L337.2,629.9L337.2,629.9z"/>
		
			<linearGradient id="path4155_1_" gradientUnits="userSpaceOnUse" x1="-31.8395" y1="481.2225" x2="-38.9534" y2="342.506" gradientTransform="matrix(30.5522 0 0 30.5522 1208.3202 -13920.3877)">
			<stop  offset="0" style="stop-color:#008597"/>
			<stop  offset="1" style="stop-color:#00AA8F"/>
		</linearGradient>
		<path id="path4155" class="st3" d="M134.2,813.7l-7.5-388.1l204.9,221.1L134.2,813.7z"/>
		<circle id="path4157-3" class="st4" cx="-38.8" cy="296.1" r="13"/>
		<circle id="path4157-6" class="st4" cx="112.1" cy="127.5" r="13"/>
		<ellipse id="path4157-7" class="st4" cx="342.8" cy="298" rx="45.6" ry="45.6"/>
		<circle id="path4157-5" class="st4" cx="115.5" cy="409.8" r="13"/>
		<circle id="path4157-35" class="st4" cx="-4.9" cy="638.6" r="13"/>
		<circle id="path4157-62" class="st4" cx="124.5" cy="810.6" r="13"/>
		<ellipse id="path4157-9" class="st4" cx="330.4" cy="642.1" rx="45.6" ry="45.6"/>
	</g>
</g>
</svg>
