<?xml version="1.0" encoding="utf-8"?>
<!-- Generator: Adobe Illustrator 22.0.1, SVG Export Plug-In . SVG Version: 6.00 Build 0)  -->
<svg version="1.1" id="Layer_1" xmlns="http://www.w3.org/2000/svg" xmlns:xlink="http://www.w3.org/1999/xlink" x="0px" y="0px"
	 viewBox="0 0 226.8 226.8" style="enable-background:new 0 0 226.8 226.8;" xml:space="preserve">
<style type="text/css">
	.st0{fill:#F4E7C9;}
</style>
<path class="st0" d="M113,149.8l12.2-20.6h-23.9L113,149.8z"/>
<path class="st0" d="M198.8,82.4L182.6,9.8l-31.7,50c-11.8-2.9-24.4-4.5-37.5-4.5c-13.2,0-25.8,1.6-37.5,4.5l-31.7-50L28,82.4
	c-17.4,13.9-28,32.1-28,52c0,43.7,50.8,79.1,113.4,79.1c62.6,0,113.4-35.4,113.4-79.1C226.8,114.6,216.2,96.4,198.8,82.4z
	 M50.3,115.7h-7.6l18.4-21.2h13.5L50.3,115.7z M112.8,167.6l-31.4-55.2l7.7-4.4l7,12.3h34.3l7.3-12.4l7.7,4.5L112.8,167.6
	L112.8,167.6z M176.5,115.7l-24.3-21.2h13.5l18.4,21.2H176.5L176.5,115.7z"/>
</svg>
