<?xml version="1.0" encoding="utf-8"?>
<!-- Generator: Adobe Illustrator 22.0.1, SVG Export Plug-In . SVG Version: 6.00 Build 0)  -->
<svg version="1.1" id="Layer_1" xmlns="http://www.w3.org/2000/svg" xmlns:xlink="http://www.w3.org/1999/xlink" x="0px" y="0px"
	 viewBox="0 0 226.8 226.8" style="enable-background:new 0 0 226.8 226.8;" xml:space="preserve">
<style type="text/css">
	.st0{fill:#3D8DB7;}
</style>
<path class="st0" d="M179.9,156.6L93.5,99.3H70.5c-8,0-14.5-6.5-14.5-14.5c0-8,6.5-14.5,14.5-14.5h31.8l86.4,57.3h37.2
	c0.1,0,0.1,0,0.2,0c0.6-4.6,0.9-9.4,0.9-14.2c0-4.8-0.3-9.5-0.9-14.1h-43.1c-8,0-14.5-6.5-14.5-14.5c0-8,6.5-14.5,14.5-14.5h35.5
	C201.4,29.1,160.8,0,113.4,0C62.2,0,18.9,34,4.8,80.6l70.9,47h22.4c8,0,14.5,6.5,14.5,14.5c0,8-6.5,14.5-14.5,14.5H67L0,112.2
	c0,0.4,0,0.8,0,1.3c0,62.7,50.8,113.4,113.4,113.4c47.4,0,88-29.1,105-70.3L179.9,156.6L179.9,156.6z"/>
</svg>
