<?xml version="1.0" encoding="utf-8"?>
<!-- Generator: Adobe Illustrator 22.0.1, SVG Export Plug-In . SVG Version: 6.00 Build 0)  -->
<svg version="1.1" id="Layer_1" xmlns="http://www.w3.org/2000/svg" xmlns:xlink="http://www.w3.org/1999/xlink" x="0px" y="0px"
	 viewBox="0 0 227 227" style="enable-background:new 0 0 227 227;" xml:space="preserve">
<style type="text/css">
	.st0{fill:#2657E7;}
</style>
<path class="st0" d="M54.9,117.2c-30.3,0-54.9,24.6-54.9,54.9c0,30.3,24.6,54.9,54.9,54.9c30.3,0,54.9-24.6,54.9-54.9
	C109.8,141.7,85.2,117.2,54.9,117.2C54.9,117.2,54.9,117.2,54.9,117.2z M54.9,210.4c-21.1,0-38.3-17.1-38.3-38.3
	s17.1-38.3,38.3-38.3c21.1,0,38.3,17.1,38.3,38.3C93.2,193.2,76.1,210.4,54.9,210.4z M172.1,0c-30.3,0-54.9,24.6-54.9,54.9
	s24.6,54.9,54.9,54.9c30.3,0,54.9-24.6,54.9-54.9C227,24.6,202.4,0,172.1,0z M172.1,93.2c-21.1,0-38.3-17.1-38.3-38.3
	c0-21.1,17.1-38.3,38.3-38.3c21.1,0,38.3,17.1,38.3,38.3C210.3,76.1,193.2,93.2,172.1,93.2z M54.9,0C28.8,0,6.3,18.4,1.1,44
	c-5.2,25.6,8.4,51.4,32.4,61.5c24.1,10.2,52,2,66.7-19.6c14.7-21.6,12.2-50.6-6-69.3h15.6V0H54.9z M93.2,54.9
	c0,21.1-17.1,38.3-38.3,38.3c-21.1,0-38.3-17.1-38.3-38.3s17.1-38.3,38.3-38.3C76.1,16.7,93.2,33.8,93.2,54.9L93.2,54.9z"/>
</svg>
