<?xml version="1.0" encoding="utf-8"?>
<!-- Generator: Adobe Illustrator 22.0.1, SVG Export Plug-In . SVG Version: 6.00 Build 0)  -->
<svg version="1.1" id="Layer_1" xmlns="http://www.w3.org/2000/svg" xmlns:xlink="http://www.w3.org/1999/xlink" x="0px" y="0px"
	 viewBox="0 0 595.3 595.3" style="enable-background:new 0 0 595.3 595.3;" xml:space="preserve">
<style type="text/css">
	.st0{fill:#333333;}
</style>
<g id="Hdh5Qt.tif">
	<g>
		<path class="st0" d="M0,295.6c0.7-6,4.4-10.2,8.3-14.5c41.4-45,82.7-90,124-135c9.6-10.4,19.2-20.8,28.9-31.2c0.6-0.6,1.1-1.2,2-2
			c43.6,48.5,87.2,97,131,145.7c45.9-49.3,91.3-98.1,136.8-147.1c5.8,6.3,11.5,12.5,17.2,18.6c34.4,37.4,68.9,74.7,103.3,112.1
			c12.5,13.6,24.9,27.4,37.3,41.2c4.2,4.6,6.6,10,6.4,16.4c-0.1,3-1.1,5.6-3.1,7.8c-27.9,30.5-55.6,61.2-83.6,91.6
			c-25.4,27.7-51,55.1-76.6,82.7c-0.4,0.5-0.9,1-1.3,1.5c-45.2-47.3-90.1-94.3-135.2-141.5c-43.8,47.2-87.5,94.3-131.4,141.6
			c-5.1-5.6-10.2-11-15.2-16.4c-29.7-32.2-59.5-64.3-89.1-96.6c-18.1-19.7-35.9-39.7-54-59.4c-3.2-3.5-4.8-7.6-5.7-12.1
			C0,298,0,296.8,0,295.6z M334.8,299.7c32.2,32.4,64.4,64.7,96.9,97.5c0.6-0.9,1.1-1.7,1.7-2.4c11.1-11.6,22.4-23.1,33.3-34.8
			c13.9-15,27.6-30.1,41.1-45.4c2.8-3.2,4.7-7.4,6.1-11.4c2.4-7.2,1.3-14.1-4-20c-5.5-6.1-10.5-12.5-16.1-18.5
			c-17.8-19-35.8-37.8-53.7-56.7c-3.4-3.6-6.8-7.1-10.3-10.7C398,231.6,366.3,265.7,334.8,299.7z M164.8,197.5
			c-0.6,0.6-1.2,1.1-1.7,1.6c-15.5,16.3-31,32.6-46.3,49c-12.2,13-24.3,26.2-36.3,39.4c-5.5,6-5.5,13.8,0.1,19.7
			c24.4,26.3,48.9,52.6,73.3,78.9c3.6,3.8,7.2,7.7,10.9,11.6c31.3-33.6,62.4-67,93.5-100.5C227.1,263.9,196.1,230.8,164.8,197.5z"/>
	</g>
</g>
</svg>
