<?xml version="1.0" encoding="utf-8"?>
<!-- Generator: Adobe Illustrator 22.0.1, SVG Export Plug-In . SVG Version: 6.00 Build 0)  -->
<svg version="1.1" id="Layer_1" xmlns="http://www.w3.org/2000/svg" xmlns:xlink="http://www.w3.org/1999/xlink" x="0px" y="0px"
	 viewBox="0 0 292.5 316" style="enable-background:new 0 0 292.5 316;" xml:space="preserve">
<style type="text/css">
	.st0{fill:#586D75;}
</style>
<title>icons 2</title>
<desc>Created with Sketch.</desc>
<g id="CEPVs7.tif">
	<g>
		<path class="st0" d="M144.1,300c0.4-1.7-1.2-2.2-2-3c-7.8-8-15.8-15.8-23.6-23.8c-1.8-1.9-3.4-2.5-6.1-1.7
			c-10.7,3-21.6,5.6-32.3,8.7c-3.9,1.1-5.6,0.3-6.6-3.7c-2.7-10.8-5.9-21.5-8.6-32.3c-0.7-2.7-1.9-3.8-4.5-4.5
			c-11-2.7-21.8-5.8-32.8-8.5c-4-1-5.2-2.6-4-6.8c3.2-10.7,5.7-21.6,8.9-32.2c1-3.2,0.2-5.1-2.1-7.3c-7.9-7.7-15.5-15.7-23.4-23.3
			c-2.6-2.5-2.6-4.3,0-6.8c7.9-7.7,15.5-15.7,23.4-23.3c2.3-2.2,3-4.1,2-7.3c-3.1-10.7-5.7-21.6-8.9-32.2c-1.2-4.2-0.1-5.8,4-6.8
			c11-2.7,21.8-5.8,32.8-8.5c2.6-0.7,3.9-1.8,4.5-4.5c2.7-10.8,5.9-21.5,8.6-32.3c1-4,2.7-4.8,6.6-3.7c10.9,3.1,21.8,5.8,32.7,8.8
			c1.8,0.5,3.3,0.6,4.8-0.9c8.6-8.8,17.4-17.5,26.1-26.3c0.4-0.4,0.8-0.9,0.5-1.5c1.2,0,2.4,0,3.5,0c9.1,9.3,18.3,18.6,27.4,28
			c1.6,1.6,3.1,1.1,4.8,0.7c10.9-2.9,21.9-5.7,32.7-8.8c3.7-1.1,5.3-0.1,6.2,3.6c2.6,10.4,5.7,20.7,8.2,31.1
			c0.9,3.8,2.8,5.5,6.5,6.4c10.7,2.6,21.3,5.7,31.9,8.3c3.5,0.9,4.4,2.4,3.4,5.9c-3.1,10.7-5.7,21.6-8.9,32.2
			c-1.1,3.7-0.3,5.8,2.3,8.4c7.8,7.5,15.3,15.4,23.1,23c2.4,2.4,2.5,4.1,0,6.5c-7.8,7.6-15.3,15.5-23.1,23c-2.6,2.5-3.4,4.7-2.4,8.4
			c3.2,10.7,5.8,21.5,8.9,32.2c1,3.5,0.1,5-3.4,5.9c-10.7,2.7-21.2,5.8-31.9,8.3c-4.1,0.9-5.7,3-6.6,6.8
			c-2.5,10.3-5.5,20.4-8.1,30.6c-0.9,3.7-2.5,4.7-6.2,3.6c-10.9-3.1-21.8-5.8-32.7-8.8c-1.8-0.5-3.3-0.9-4.8,0.7
			c-9.1,9.4-18.3,18.6-27.4,28C146.5,300,145.3,300,144.1,300z M161.3,212.3c1.2-0.5,2.4-0.9,3.6-1.5c7.9-3.5,7.9-3.5,2.3-11.2
			c-2.2,4.1-4.3,8-6.5,12c-0.1,0.3-0.3,0.5-0.4,0.8C160.7,212.4,161,212.4,161.3,212.3z M21.1,148.8c3.9-1.7,7.6-3.8,11.7-5
			c4.5-1.4,4.4-4,3.1-7.7c-0.7-2-1.2-2.5-2.8-0.9c-4.2,4.3-8.3,8.6-12.5,12.9c-0.5,0.2-0.9,0.4-1.4,0.6
			C19.8,149.3,20.4,149.1,21.1,148.8z M270.9,167.5c-3.2,1.4-6.5,2.7-9.7,4.2c-6.3,2.9-6.3,2.9-4.2,9.4c0.1,0.3,0.5,0.6,0.5,0.6
			c4.8-4.5,9.4-9,14.1-13.4c0.3-0.4,0.6-0.8,0.9-1.2C271.9,166.6,271.4,167,270.9,167.5z M201.5,271.7c-0.1,0.6,0.3,0.7,0.7,0.7
			c0.1,0,0.2-0.2,0.3-0.2C202.2,272,201.8,271.9,201.5,271.7c-4-4.1-9.2-6.6-13.6-10.1c-1-0.8-1.9-0.6-2.7,0.3
			c-1.3,1.5-3.2,2.5-4.1,5C188.1,268.3,194.5,271.2,201.5,271.7z M91.2,44.3c0-0.6-0.4-0.7-0.9-0.6c-0.1,0-0.2,0.2-0.3,0.3
			C90.4,44,90.8,44.1,91.2,44.3c2.7,3.5,6.8,5.3,10.2,7.8c5.1,3.9,6.6,3.3,9.7-3.1C104.4,47.7,98.1,44.9,91.2,44.3z M70.1,242.6
			c-0.2-0.1-0.3-0.2-0.5-0.3C69.7,242.5,69.9,242.6,70.1,242.6c0.5,7,3.2,13.4,4.8,20.4c0.6-0.7,1-0.9,1-1.1
			c0.4-3.9,0.9-7.8,1.1-11.8C77.5,243.3,77.5,243.3,70.1,242.6z M206.3,268.7c0.3,0.3,0.7,0.7,1,0.1c0-0.1-0.3-0.4-0.5-0.6
			c-3.2-5.9-6.5-11.7-9.9-18c-2.5,2.6-4.7,4.7-7.1,7.1C195.5,261.2,200.9,265,206.3,268.7z M86.3,47.4c-0.3-0.1-0.6-0.2-0.9-0.3
			c0.1,0.3,0.2,0.6,0.4,0.9c2.3,4.1,4.5,8.2,6.8,12.3c3.3,5.7,3.2,5.6,8,0.8c1.9-1.9,1.7-2.8-0.4-4.2C95.4,53.8,90.9,50.6,86.3,47.4
			z M228.7,97.3c0.1,0.3,0.2,0.8,0.7,0.5c0.1-0.1-0.1-0.7-0.1-1c-1-4-2.4-7.9-2.9-11.9c-0.6-4.4-2.7-6.9-7.2-7.1
			c-1.5-0.1-3.4-2.1-4.3-0.2c-0.9,1.9-1.8,4.4,0.4,6.5C219.7,88.5,224.2,92.9,228.7,97.3z M240.3,199.5c3.5-2.4,5.9-6.1,9.3-8.7
			c3.8-2.9,4.5-6.1,2.5-10.2c-0.6-1.3,0.1-4-2.1-3.5c-1.9,0.4-4.6,0.8-5.2,3.4c-1.5,6.3-3.9,12.3-4.6,18.7c-0.5,0.1-0.6,0.3-0.4,0.7
			C239.9,199.8,240.1,199.7,240.3,199.5z M228.7,218.7c-7.7,7.1-15.1,14.3-22,22.2c-0.2,0.1-0.5,0.3-0.7,0.4
			c0.1,0.1,0.3,0.3,0.3,0.3c0.2-0.1,0.4-0.3,0.6-0.5c5.5-0.5,10.7-2.7,16.1-3.8c1.5-0.3,2-1.4,2.3-2.8c1.2-5.1,2.6-10.1,3.9-15.2
			c0.1-0.3,0.3-0.9,0.1-1C228.9,217.9,228.8,218.4,228.7,218.7z M240.3,116.5c-0.2-0.2-0.4-0.4-0.6-0.5c0.1,0.3,0.2,0.5,0.4,0.8
			c1.9,10.5,5.3,20.6,8.3,30.9c1.8-5.3,3.2-10.5,4.7-15.7c0.4-1.5,0.5-2.8-0.8-3.9C248.2,124.3,244.7,119.9,240.3,116.5z M86,75.1
			c-6-0.2-11.3,2.7-17,3.7c-0.9,0.2-1.4,0.9-1.6,1.9c-1.5,5.6-3,11.2-4,15C70.2,89.5,78,82.3,86,75.1c0.1-0.2,0.3-0.4,0.5-0.6
			c-0.1,0-0.3-0.1-0.4-0.1C85.7,74.6,85.6,74.9,86,75.1z M70.1,73.4c6.7-0.7,13-3.3,19.6-4.7c1.1-0.2,1.9-0.7,1.1-2.1
			c-4.3-7.4-8.6-14.8-13.4-23.2c-2.2,10.8-6,20.1-7.3,30c-0.1,0.1-0.2,0.3-0.4,0.4C69.8,73.6,69.9,73.5,70.1,73.4z M238.3,182.5
			c-19.1,8.7-38.1,17.4-57.2,25.9c-2.6,1.2-1.8,2.4-0.8,4c5.2,9,10.6,17.9,15.6,27c1.7,3,2.7,2.4,4.6,0.4c9.9-10,19.8-20,29.8-30
			c1.1-1.1,2.3-2.3,2.7-3.9c2-7.7,4-15.3,6-22.9c0.3-0.4,0.4-0.8-0.1-1.1C238.9,182,238.5,182.3,238.3,182.5z M146.5,192.4
			c5.6,0,11.2-0.1,16.7,0.1c2.2,0.1,3.4-0.8,4.5-2.6c5.5-9.7,11.1-19.3,16.7-29c1.2-2,1.3-3.6,0.1-5.6c-5.7-9.7-11.4-19.5-17-29.3
			c-1-1.7-2.1-2.4-4.2-2.4c-11.5,0.1-22.9,0.1-34.4,0c-2,0-3.2,0.7-4.2,2.4c-5.6,9.8-11.2,19.6-17,29.3c-1.2,2.1-1,3.7,0.1,5.6
			c5.7,9.6,11.2,19.3,16.7,29c1.1,1.9,2.3,2.7,4.5,2.6C135,192.3,140.7,192.4,146.5,192.4z M144.5,197c-2.9,0-5.9,0.4-8.8-0.1
			c-7.2-1.3-11.5,1.6-14.1,8.2c-0.8,2.1-1,3.1,1,4.5c17.9,12.5,35.7,25.2,53.5,37.9c1.4,1,2.7,1.6,4.5,1.1c3.5-1,7-2.1,10.6-2.9
			c2.2-0.5,2.5-1.1,1.4-3.1c-5.6-9.5-11.1-19-16.5-28.5c-1.1-1.9-2-2.4-4.1-1.3c-5.1,2.5-10.4,4.8-15.5,7.2
			c-1.4,0.6-2.8,1.4-4.1,0.2c-1.6-1.5-0.3-3,0.5-4.3c3-5.3,6.1-10.7,9.2-16c1.3-2.2,0.7-2.8-1.6-2.8C155,197.1,149.7,197,144.5,197z
			 M129,119c9.8,0,18.9-0.6,27.9,0.2c7.3,0.7,11.4-1.9,14.1-8.4c0.9-2.2,0.9-3.1-1.1-4.5c-17.8-12.5-35.5-25-53.2-37.6
			c-1-0.7-2-1.9-3.5-1.5c-4.7,1.2-9.4,2.5-14.5,3.9c6.2,10.7,12.2,20.8,17.9,31.1c1.2,2.2,2.4,1.9,4.2,1c4.6-2.2,9.3-4.4,14-6.4
			c1.8-0.8,3.8-2.7,5.5-0.6c1.5,1.8-0.3,3.6-1.2,5.2C135.9,107,132.6,112.7,129,119z M120.9,192.4c-5.1-8.9-10.2-16.9-14.5-25.4
			c-2.7-5.3-6-7.3-11.9-6.9c-3.7,0.3-4.9,1.1-5.2,4.9c-1.4,18-3.1,35.9-5,53.9c-1.2,12-1.4,12,7.1,20.5c0.3,0.3,0.7,0.6,0.9,0.9
			c1.5,1.9,2.5,1.8,3.8-0.4c5.3-9.4,10.7-18.9,16.3-28.2c1.4-2.3,0.6-3.3-1.2-4.5c-4.4-2.9-8.6-6.1-12.9-9.1c-1.4-1-3.4-1.7-2.8-4
			c0.7-2.3,2.8-1.7,4.4-1.8C106.7,192.4,113.4,192.4,120.9,192.4z M103.8,153.3c5-8.7,9.1-17.1,14.4-24.6c4.2-5.8,3.5-10.4-0.4-15.6
			c-1.4-1.9-2.2-2.6-4.5-1.5c-19.8,9.2-39.6,18.3-59.5,27.4c-1.5,0.7-2.7,1.5-3.2,3.3c-0.8,3.4-1.7,6.8-2.7,10.2
			c-0.8,2.4,0.1,3.1,2.5,3.1c10.9-0.1,21.7-0.1,32.6,0c2.4,0,2.9-1,3-3.1c0.4-5.4,1-10.8,1.6-16.2c0.2-1.6-0.2-3.5,1.9-4
			c2.3-0.6,2.9,1.4,3.8,2.9C96.6,141,100,146.8,103.8,153.3z M184.3,123.6c-3.1,0-6.2,0.1-9.3,0c-3.1-0.2-3.1,0.9-1.7,3.2
			c4.5,7.7,9.2,15.4,13.3,23.3c2.2,4.3,4.9,6.1,9.9,5.7c6.1-0.5,6.1-0.1,6.6-6.2c1.5-17.4,3-34.8,4.7-52.2
			c1.2-12.7,1.4-12.7-7.4-21.3c-0.1-0.1-0.2-0.2-0.3-0.3c-1.6-2.1-2.7-2-4.1,0.5c-5.2,9.3-10.6,18.6-16.1,27.8c-1.3,2.1-1,3.2,1,4.6
			c4.8,3.2,9.4,6.6,14.1,9.9c1.2,0.9,2.5,1.8,1.8,3.6c-0.6,1.5-2,1.5-3.3,1.5C190.5,123.6,187.4,123.6,184.3,123.6z M188.7,162.7
			c-5.1,8.7-9.4,17.1-14.6,24.9c-3.7,5.5-3.5,9.8,0.3,14.9c1.8,2.4,2.9,2.8,5.5,1.5c16.9-7.9,33.8-15.6,50.7-23.4
			c10.8-5,10.8-5,13.6-16.4c0-0.1,0.1-0.3,0.1-0.4c1.1-2.8-0.1-3.5-2.8-3.5c-10.6,0.1-21.1,0.1-31.7,0c-2.5,0-3.2,0.8-3.4,3.2
			c-0.3,5.4-1,10.8-1.5,16.2c-0.1,1.6,0,3.4-2,4c-2.1,0.6-2.7-1.2-3.5-2.6C196,175.3,192.6,169.3,188.7,162.7z M120.1,65.4
			c6.3,4.4,11.5,8.2,16.8,11.9c11.6,8.2,23.2,16.5,34.9,24.7c1.2,0.9,2.6,3,4.1,0.2c5.9-10.3,11.8-20.5,17.9-31
			c-15.6-4.2-30.8-8.2-45.9-12.2c-0.7-0.2-1.5-0.4-2.1-0.3C137.5,60.7,129.4,62.9,120.1,65.4z M172,250.7c-1-0.9-1.4-1.4-1.8-1.7
			c-16.5-11.7-33.1-23.4-49.6-35.2c-2.3-1.6-3.3-1.4-4.6,1c-5.1,9.1-10.3,18.1-15.6,27.1c-1.5,2.5-1.1,3.3,1.6,4
			c14.1,3.6,28.1,7.4,42.1,11c1,0.3,2.1,0.6,3,0.4C155.2,255.3,163.2,253.1,172,250.7z M53.1,133.9c0.9-0.2,1.3-0.2,1.7-0.4
			c18.8-8.6,37.6-17.3,56.4-25.8c2.8-1.3,1.9-2.5,0.9-4.3c-5.2-8.9-10.4-17.7-15.4-26.7c-1.5-2.6-2.4-3-4.6-0.7
			C82,86.2,71.7,96.4,61.6,106.6c-0.7,0.7-1.6,1.5-1.8,2.4C57.5,117.2,55.3,125.4,53.1,133.9z M213.3,89.9c-0.3,3-0.6,5.9-0.8,8.7
			c-1.6,17.7-3.2,35.4-5,53c-0.3,3.1,0.5,4.1,3.7,4c10-0.2,20-0.2,29.9,0c3.9,0.1,3.9-1.3,3-4.4c-3.8-13.4-7.3-26.9-10.9-40.3
			c-0.3-1-0.4-2.2-1-2.9C226.1,102.1,219.9,96.2,213.3,89.9z M78.6,226.6c0.5-1.3,0.7-1.7,0.7-2.2c1.9-20.3,3.8-40.6,5.7-60.9
			c0.3-2.6-0.7-3.2-3.2-3.2c-10.3,0.1-20.5,0.2-30.8,0c-3.7-0.1-3.6,1.5-2.9,4.2c3.8,13.7,7.5,27.4,11.2,41.1c0.3,1,0.6,2.1,1.2,2.8
			C66.4,214.3,72.3,220.2,78.6,226.6z M121.7,47c7.3,1.9,14.6,3.9,22,5.9c0-9.6,0-18.8,0-27.8C136.5,32.3,129.2,39.5,121.7,47z
			 M143.7,290.5c0-8.7,0-17.9,0-27.4c-7.6,2.1-14.8,4-21.7,5.8C129.5,276.4,136.7,283.6,143.7,290.5z M148.7,289.7
			c6.7-6.6,14-13.7,21.4-20.9c-6.8-1.8-14-3.7-21.4-5.7C148.7,272.6,148.7,281.8,148.7,289.7z M148.7,52.9c7.5-2,14.7-3.9,21.6-5.8
			c-7.5-7.4-14.7-14.6-21.6-21.4C148.7,34.2,148.7,43.4,148.7,52.9z M31.3,227.1c10.2,2.7,19.3,5.2,28.4,7.6
			c1.5,0.4,2.8,0.4,2.2-1.8c-1.8-6.7-3.7-13.3-5.6-20.3C48,217.4,40.1,222,31.3,227.1z M31.3,88.9c8.5,4.9,16,9.2,23.6,13.6
			c1.8,1,1.8-0.3,2.1-1.4c1.5-5.6,2.9-11.3,4.6-16.9c1.1-3.4-0.3-3.4-2.9-2.7C50,83.9,41.3,86.3,31.3,88.9z M261.1,227
			c-8.5-4.9-15.8-9.1-23.1-13.4c-1.7-1-2.2-0.5-2.6,1.2c-1.5,5.8-3.1,11.5-4.7,17.3c-0.5,2-0.3,3.2,2.2,2.5
			C241.9,232.2,250.9,229.8,261.1,227z M236.1,103.5c8.4-4.9,16.2-9.4,24.9-14.5c-10.1-2.7-19-5.1-27.8-7.5
			c-2.5-0.7-3.2,0.2-2.5,2.6C232.5,90.3,234.2,96.6,236.1,103.5z M28.9,93c3,10.9,5.6,20.7,8.5,31.5c5.4-5.5,10-10.4,14.8-15.1
			c1.5-1.5,1.3-2.3-0.4-3.3C44.5,102,37.3,97.8,28.9,93z M28.9,223c8.4-4.8,15.6-9,22.9-13.1c1.8-1,1.8-1.9,0.4-3.3
			c-4.8-4.8-9.4-9.6-14.8-15C34.6,202.3,31.9,212.1,28.9,223z M263.6,93c-8.3,4.8-15.6,9-23,13.2c-1.5,0.8-1.8,1.6-0.5,2.9
			c4.9,4.8,9.6,9.7,15,15.2C257.9,113.7,260.6,103.9,263.6,93z M255,191.5c-5.4,5.5-10.1,10.4-14.9,15.3c-0.9,1-1.5,1.8,0.1,2.7
			c7.5,4.3,15,8.6,23.4,13.5C260.6,212.1,257.9,202.3,255,191.5z M112.4,266.6c-5.6-5.4-10.5-10.2-15.3-15c-1-1-1.7-0.7-2.4,0.4
			c-4.2,7.3-8.4,14.5-13.2,22.8C92.1,272,101.6,269.5,112.4,266.6z M215,272.5c2.6-9.7,5-18.3,7.3-26.8c0.5-1.9,0.8-3.6-2.2-2.8
			c-5.6,1.5-11.3,3-16.9,4.5c-1.6,0.4-2.2,1.1-1.2,2.8C206.2,257.1,210.3,264.3,215,272.5z M196.8,65.8c4.7-8.2,9.2-16,14.2-24.6
			c-10.1,2.7-19.1,5.1-28.1,7.4c-2.3,0.6-1.7,1.4-0.6,2.6C187,56,191.7,60.7,196.8,65.8z M277.5,155.6c-6.7-6.8-13.7-13.8-20.4-20.7
			c-1.5,5.4-3.1,11.5-4.7,17.6c-0.4,1.4-1.3,3,1.3,3C261.9,155.6,270.3,155.6,277.5,155.6z M14.4,160.4c7.1,7,14.1,13.9,21.1,20.7
			c1.5-5.7,3.2-12,5-18.3c0.5-1.8,0.1-2.4-1.7-2.4C30.5,160.4,22.3,160.4,14.4,160.4z M135.8,260.4c-0.1-0.3-0.1-0.5-0.2-0.8
			c-10.4-2.8-20.8-5.5-31.2-8.3c-0.2,0.3-0.4,0.6-0.6,0.9c4,3.9,8,7.7,12,11.6c0.9,0.9,1.8,1.3,3.1,1
			C124.5,263.3,130.2,261.9,135.8,260.4z M44.1,167c-1.8,6.5-3.2,11.7-4.6,16.9c-0.3,1.3-0.8,2.5,0.4,3.7c4,4,8,8,12,12.1
			c0.3-0.2,0.6-0.4,0.9-0.6C50,188.8,47.2,178.5,44.1,167z M156.8,55.6c0,0.3,0.1,0.6,0.1,0.8c10.3,2.7,20.6,5.4,30.9,8.2
			c0.2-0.3,0.4-0.7,0.6-1c-4-3.9-8-7.7-11.9-11.6c-0.8-0.8-1.7-1.1-2.8-0.8C168.1,52.6,162.4,54.1,156.8,55.6z M137.2,56
			c-7-1.8-12.7-3.4-18.4-4.8c-1.4-0.4-7.9,4.9-8.2,6.4c-0.1,0.3,0.1,0.9,0.3,1.1c2,1.2,3.3,3.6,6.4,2.6
			C123.4,59.4,129.6,58,137.2,56z M63.8,218.1c-0.3,0.1-0.6,0.3-0.9,0.4c1.5,5.5,2.9,11,4.5,16.5c0.5,1.6,8.3,4.8,9.9,4.1
			c0.3-0.1,0.7-0.6,0.7-0.9c0-2.2,1.2-4.6-0.9-6.6C72.6,227.1,68.2,222.6,63.8,218.1z M156.8,259.6c0,0.3,0.1,0.6,0.1,0.8
			c5.5,1.4,11,2.9,16.5,4.3c1.6,0.4,8.4-4.8,8.6-6.5c0-0.4-0.2-0.9-0.4-1.1c-2-1.2-3.4-3.4-6.5-2.4C169,256.7,162.9,258,156.8,259.6
			z M52.7,117c-0.3-0.2-0.7-0.4-1-0.6c-2.9,3-5.7,6.3-8.9,8.9c-3.5,2.8-4.4,6-2.5,9.9c0.6,1.3,0,3.9,2.1,3.7c2-0.2,4.6-0.9,5.3-3.3
			C49.5,129.4,51.1,123.2,52.7,117z M80.1,266.4c0.2,0.1,0.4,0.2,0.6,0.4c2.7-4.6,5.3-9.3,8-13.9c3-5.1,2.9-5-3-6.6
			c-3-0.8-4.1-0.1-4.3,3.1C81.3,255.1,80.6,260.7,80.1,266.4z M212.3,50.3c-0.3-0.1-0.6-0.2-0.9-0.3c-3.1,5.4-6.2,10.8-9.3,16.1
			c-1,1.7-0.2,2.3,1.3,2.7c1.3,0.3,2.6,0.5,3.8,1c2.7,1.1,3.5,0.1,3.7-2.5C211.2,61.6,211.8,55.9,212.3,50.3z M273.6,160.9
			c-1.6-0.3-1.9-0.4-2.2-0.4c-4.4,0-8.8,0-13.1,0c-7.3,0-7.6,0.6-4.8,7.5c0.6,1.5,1.2,1.7,2.5,1.1
			C261.5,166.4,267,163.9,273.6,160.9z M40.9,155.3c-0.6-2.5-1.2-4.8-1.8-7c-0.3-1.3-0.8-2.1-2.4-1.4c-5.6,2.6-11.1,5.2-16.7,7.7
			c0.1,0.2,0.2,0.5,0.3,0.7C27.1,155.3,33.8,155.3,40.9,155.3z M217.9,54.3c-0.5,0.1-0.9,0.1-1.4,0.2c-0.4,4.6-0.8,9.3-1.2,13.9
			c-0.3,2.8,3.7,5.9,6.5,5c1-0.3,1-1,0.8-1.7C221.1,66,219.5,60.1,217.9,54.3z M106.3,197c-0.1,0.3-0.2,0.6-0.3,0.8
			c1.9,1.3,3.7,2.7,5.6,4c5.4,3.7,3.9,4.3,7.6-1.7c0.1-0.1,0.1-0.3,0.2-0.4c1.3-1.9,1.1-2.8-1.5-2.8
			C114.1,197.1,110.2,197,106.3,197z M186.2,119c0.1-0.3,0.3-0.5,0.4-0.8c-2.5-1.7-5.1-3.3-7.3-5.3c-2.5-2.2-3.9-1.5-5,1.3
			c-0.3,0.8-0.8,1.5-1.3,2.3c-1.2,1.9-0.6,2.6,1.5,2.6C178.4,118.9,182.3,119,186.2,119z M125.2,116.1c2.4-4.3,5.1-8,7-12.9
			c-2.2,0.9-3.6,1.5-5.1,2.2C119.6,108.8,119.6,108.8,125.2,116.1z M193.5,160.9c1.8,4.3,4.3,8.1,6.8,12.2c1.4-2,1.1-3.8,1.2-5.5
			C201.9,159.6,201.9,159.6,193.5,160.9z M92.3,142.9c-0.3,0.1-0.6,0.2-0.9,0.3c-0.1,1.7-0.2,3.5-0.3,5.2c-0.6,7.6-0.6,7.6,7.2,7
			c0.2,0,0.4-0.3,0.9-0.7C96.9,150.8,94.6,146.8,92.3,142.9z"/>
	</g>
</g>
</svg>
