<?xml version="1.0" encoding="utf-8"?>
<!-- Generator: Adobe Illustrator 22.0.1, SVG Export Plug-In . SVG Version: 6.00 Build 0)  -->
<svg version="1.1" id="svg7280" xmlns="http://www.w3.org/2000/svg" xmlns:xlink="http://www.w3.org/1999/xlink" x="0px" y="0px"
	 viewBox="0 0 2432 2500" style="enable-background:new 0 0 2432 2500;" xml:space="preserve">
<style type="text/css">
	.st0{fill:#348F8D;}
	.st1{fill:#7ABDC1;}
</style>
<g id="layer1">
	<path id="rect7839" class="st0" d="M1236.6,43.7c58.3,58.3,58.3,152.9,0,211.2l-979.3,980.8c-58.3,58.3-152.9,58.3-211.2,0
		c-58.3-58.3-58.3-152.9,0-211.2l979.3-980.8C1083.7-14.6,1178.4-14.6,1236.6,43.7z"/>
	<path id="rect7841" class="st1" d="M2385.9,1264.3c58.3,58.3,58.3,152.9,0,211.2l-979.8,980.8c-58.3,58.3-152.9,58.3-211.2,0
		c-58.3-58.3-58.3-152.9,0-211.2l979.8-980.8C2232.9,1206.1,2327.6,1206.1,2385.9,1264.3L2385.9,1264.3z"/>
	<path id="rect7843" class="st0" d="M2148.9,133.5c63.6,63.6,63.6,167,0,230.6l-400.6,401c-63.6,63.6-167,63.6-230.6,0
		c-63.6-63.6-63.6-167,0-230.6l400.6-401C1981.9,69.9,2085.3,69.9,2148.9,133.5L2148.9,133.5z"/>
	<path id="rect7845" class="st1" d="M916.2,1737.2c63.6,63.6,63.6,167,0,230.6l-400.1,401.5c-63.6,63.6-167,63.6-230.6,0
		c-63.6-63.6-63.6-167,0-230.6l400.6-401C749.2,1673.6,852.6,1673.6,916.2,1737.2L916.2,1737.2z"/>
	<path id="rect7847" class="st1" d="M689.9,1730.4c60.7-60.7,158.8-60.7,219.5,0l501.1,500.6c60.7,60.7,60.7,158.8,0,219.5
		s-158.8,60.7-219.5,0l-501.1-500.6C629.7,1889.2,629.2,1791.1,689.9,1730.4z"/>
	<path id="rect7849" class="st0" d="M1022,47.1c60.7-60.7,158.8-60.7,219.5,0l501.1,500.6c60.7,60.7,60.7,158.8,0,219.5
		c-60.7,60.7-158.8,60.7-219.5,0l-500.6-500.6C961.8,205.9,961.8,107.8,1022,47.1z"/>
	<path id="rect7851" class="st0" d="M42.2,1028.4c56.3-56.3,147.1-56.3,203.4,0l295.2,294.7c56.3,56.3,56.3,147.1,0,203.4
		c-56.3,56.3-147.1,56.3-203.4,0L42.2,1232.3C-14.1,1176-14.1,1084.7,42.2,1028.4z"/>
	<path id="rect7853" class="st1" d="M1891.1,973.5c56.3-56.3,147.1-56.3,203.4,0l295.2,294.7c56.3,56.3,56.3,147.1,0,203.4
		s-147.1,56.3-203.4,0l-295.2-294.7C1834.8,1120.6,1834.8,1029.8,1891.1,973.5z"/>
	<path id="rect7857" class="st0" d="M1553.7,477.9l2.8-75.2l138.3,5.2l-2.8,75.2L1553.7,477.9z"/>
	<path id="rect7860" class="st0" d="M1067.2,385.7l2.8-75.2l138.3,5.2l-2.8,75.2L1067.2,385.7z"/>
	<path id="rect7862" class="st0" d="M313.7,1065.4l75.2-2.1l3.9,138.3l-75.2,2.1L313.7,1065.4z"/>
	<path id="rect7862-5" class="st1" d="M2051.8,1286.3l75.2-2.1l3.9,138.3l-75.2,2.1L2051.8,1286.3z"/>
	<path id="rect7879" class="st1" d="M1227,2180.8l5.6-75l138,10.3l-5.6,75L1227,2180.8z"/>
	<path id="rect7881" class="st1" d="M738,2086.3l5.6-75l138,10.3l-5.6,75L738,2086.3z"/>
</g>
</svg>
