<?xml version="1.0" encoding="utf-8"?>
<!-- Generator: Adobe Illustrator 22.0.1, SVG Export Plug-In . SVG Version: 6.00 Build 0)  -->
<svg version="1.1" id="Layer_1" xmlns="http://www.w3.org/2000/svg" xmlns:xlink="http://www.w3.org/1999/xlink" x="0px" y="0px"
	 viewBox="0 0 595.3 595.3" style="enable-background:new 0 0 595.3 595.3;" xml:space="preserve">
<style type="text/css">
	.st0{fill:#383B5D;}
</style>
<g id="_x30_SAN14.tif">
	<g>
		<path class="st0" d="M236.6,139.7c8.9,0,17.1-0.1,25.3,0c39.2,0.7,78.3,1.4,117.5,2.1c2.3,0,4.7,0.2,6.9,0.6
			c35.9,5.6,45.8,16.9,46,53.5c0.2,56.2,0.2,112.3,0,168.5c-0.1,31.1-12.1,45.3-43,49.1c-18.7,2.3-37.7,2.7-56.6,3
			c-8.1,0.1-10.8,2.3-10.8,10.7c0.3,52.5,0.1,105,0.1,157.5c0,3.9,0,7.8,0,12.1c-29.2,0-56.9,0-85.4,0
			C236.6,444.7,236.6,293,236.6,139.7z M322.5,177.5c-0.2,3.1-0.5,6.3-0.5,9.6c0,59.1,0,118.3,0,177.4c0,13.7,1.4,14.6,14.7,13.4
			c11.2-1,10.9-8.8,10.9-16.6c0-54.8,0-109.7,0-164.5C347.6,179.1,341.4,174.3,322.5,177.5z"/>
		<path class="st0" d="M220.3,138.4c0,93.2,0,185,0,277.7c-15.7,0-30.9,0.5-46.1-0.2c-7.7-0.3-10-6.4-9.9-13.6
			c0.1-17.3,0-34.5,0-51.8c0-65.1,0-130.1,0-195.2c0-13.7,3.2-16.9,17-17C194.2,138.4,207.1,138.4,220.3,138.4z"/>
		<path class="st0" d="M210.3,64.3C210.1,29,238.4,0.4,274,0c36.4-0.4,65.2,27.3,65.8,63.1c0.6,35.2-28.6,64.9-64.1,65.2
			C240.1,128.6,210.6,99.7,210.3,64.3z"/>
	</g>
</g>
</svg>
