<?xml version="1.0" encoding="utf-8"?>
<!-- Generator: Adobe Illustrator 22.0.1, SVG Export Plug-In . SVG Version: 6.00 Build 0)  -->
<svg version="1.1" id="Layer_1" xmlns="http://www.w3.org/2000/svg" xmlns:xlink="http://www.w3.org/1999/xlink" x="0px" y="0px"
	 viewBox="0 0 2500 2482" style="enable-background:new 0 0 2500 2482;" xml:space="preserve">
<style type="text/css">
	.st0{fill:#0044EF;}
</style>
<g id="EfFV5q.tif">
	<g>
	</g>
</g>
<g id="XkgAUg.tif">
	<g>
		<path class="st0" d="M1258.2,15C564.4,14.8,23.6,555.2,23.9,1248.4C24.2,1924,568.7,2467,1246,2467
			c688.8,0.1,1230.5-538.3,1230.2-1222.7C2475.8,560.4,1935.7,15.1,1258.2,15z M2403.9,958.1c-7,37.7-47.4,19-64.6,33
			c-19.7,5.8-34.4-1-32.7-15.1c4.6-39.7,42.7-25.9,65.8-36C2389.8,932.3,2407.1,940.4,2403.9,958.1z M2236.6,771.4
			c15.5-29.2,47.6-34.2,75.8-42c10.9-3,16.7,11.1,17.8,25.3c-19.4,23.2-48.3,32.4-76.9,39.5C2242.6,796.8,2231.9,780.2,2236.6,771.4
			z M2131.8,594.2c13.1-29.4,41.8-43.2,69.7-54.2c8.8-3.4,17.2,10.2,20,26.6c-18.8,20.4-42.9,38.5-71.2,48.9
			C2142.4,618.3,2127.2,604.6,2131.8,594.2z M1996,437.5c14.9-25.8,33.1-51.3,63.5-60.3c7.9-2.3,23.5,12.5,17.2,21.4
			c-16.8,23.6-38.1,44-55.5,63.3C2003.4,455.5,1990.8,446.4,1996,437.5z M1834.6,308.7c13.8-25.8,23.4-56.1,53.2-69.5
			c10.3,6.9,25.8,12.3,18.8,24.2c-14.7,25-20.5,59.3-54.9,66.7C1843,332.1,1828,321,1834.6,308.7z M1651,209
			c13.5-23.9,6.4-63.2,45.6-68.3c10.8-1.4,21,10.1,16,21.9c-11,25.9-13,57.7-38.3,74C1656.3,231.4,1642.7,223.7,1651,209z
			 M1448.8,150.7c3.7-26.6,4.1-54.8,20.4-74.2c19.4,1.1,33.8,5.1,29.5,17.6c-9.2,26.5,6.2,64.7-32.2,77.3
			C1455.1,175.2,1447,163.4,1448.8,150.7z M1248.6,55.5c35.4-1,14.9,32.3,21.9,49.2c-5.4,16.9,10,46.8-20.8,45.6
			c-28.1-1.1-19-29.6-18.6-47.2C1231.4,85.8,1220.7,56.3,1248.6,55.5z M1018.3,77.4c42.7,3.8,19.4,45.6,33.3,61.6
			c5.1,18.9,2.2,34.1-14.2,32.6c-42.2-3.9-24.8-42.3-33.4-65.4C999.5,94,1001,75.8,1018.3,77.4z M809,139.8
			c35.6,10.1,26,50.1,43.4,70c-0.4,19.9-13.9,30.3-24.9,24.9c-27.8-13.5-28.3-46.4-39.5-71.1C780.7,147.6,797.5,136.5,809,139.8z
			 M611.8,241.6c35.3,6.6,35.4,45.2,55.1,62.4c1.6,17.2-7.7,28.2-17.6,26.1c-34.6-7.3-40.8-41.3-54.8-66.8
			C587.7,250.7,604.3,240.2,611.8,241.6z M446.1,376.9c27.4,12.1,45,36.9,60.8,60.7c-3.2,12.8-11.8,25.1-20.6,22
			c-29.1-10.1-48.6-34.2-62.4-60C418,388.7,433.6,371.3,446.1,376.9z M301.4,540.2c28.4,10.7,52.9,28.7,70.5,53.3
			c-4,12.4-11.2,25.7-21.6,21.4c-27.4-11.3-56.6-23.7-68-54.2C278.6,550.9,291.6,536.5,301.4,540.2z M192.5,728.8
			c27.2,9.8,56.4,17.5,75.3,39.8c-5.5,17.4-11.6,33.4-26.8,25.5c-24.9-12.9-62.1-10.6-69.5-47C169.8,738.9,179.7,724.2,192.5,728.8z
			 M134.3,941.9c21.7,8.1,58.2-3.4,58.7,34.6c0.3,20.7-19.5,18.4-38.3,12.3c-15.6-12.6-55.6,5.7-55.6-34
			C99.2,932.5,120.3,936.7,134.3,941.9z M65.9,1183.1c0.2-31.1,29.6-18.4,45.9-17.2c18.2,1.3,51.8-12.3,49,23.1
			c-2.2,28.6-31.7,11.4-48.2,16.3C94.6,1201.4,65.7,1211.7,65.9,1183.1z M76,1414c7-35.2,40.9-20.6,63-26.8
			c14.2-4,31.2-3.7,35.3,16.5c3.7,18.3-22.2,29.3-67.9,29.5C90,1436.3,71.9,1434.5,76,1414z M160.2,1650.3c-20.5,4.8-34-6-30.5-18.3
			c9.3-33.3,44.8-28,69.2-39c16.5-7.4,28.7,7.4,25.6,19C215.5,1645.6,178.4,1636.5,160.2,1650.3z M312.6,1800.1
			c-9.1,34.5-47.2,33.4-66.3,52.4c-16.3-1-27.3-11.2-24.5-20c10.3-32.6,43.6-38.5,69.9-50.8C303.2,1776.5,315,1790.9,312.6,1800.1z
			 M433.7,1966.5c-10.2,32-38,49.1-66.5,62.2c-6,2.8-22.7-9.9-18.7-20.8c11-29.3,39.5-42.4,60.1-59.7
			C424.2,1948.4,436.5,1957.8,433.7,1966.5z M526.7,2177.8c-11.9,4.1-27.7-12.2-20.4-23.8c15.4-24.4,27.7-54.7,59.1-63.2
			c6.7-1.8,19,9,18.6,24.6C567.4,2136.9,556.4,2167.4,526.7,2177.8z M709.1,2295.4c-12.3,3.5-26.3-9.3-18.7-24.5
			c12-24.1,15.6-56.4,45.1-66.3c12.4-4.2,20.2,11,22.4,23.5C739.7,2251.8,740.1,2286.5,709.1,2295.4z M911.4,2380.9
			c-12.3,2.5-24.1-10.7-17.9-26.9c9.5-24.8,3.9-58.9,35.4-70.4c13.5-4.9,21.7,9.3,24.6,25.2C934.1,2330.3,951,2372.7,911.4,2380.9z
			 M1158,2367.4c-5.8,19.4,10.1,55.8-27.4,54c-25.3-1.2-10.9-27.5-13.8-43.8c10.1-15.9-9.2-49.5,24.4-50.5
			C1166.8,2326.4,1162.4,2352.6,1158,2367.4z M1365.9,2421.8c-32-2.4-17.7-33.3-21-51.7c-2.7-14.7-10.5-41.3,13.7-41.7
			c38.7-0.5,13.5,37.6,26.3,49.8C1383.5,2398.8,1391.5,2423.8,1365.9,2421.8z M1585.6,2382.2c-28.5-12.4-23.7-44.3-33-68.3
			c-7.2-18.3,2.1-33.6,19.7-29.7c31.8,7,22.5,41.6,33.4,63C1613.5,2362.6,1608.8,2376.6,1585.6,2382.2z M1791.1,2296.2
			c-29.6-9.7-31.5-42.3-44.8-65.2c-9.2-15.8,6.2-28.1,16.7-25.9c35,7.1,30.3,47,49.5,63C1815.2,2289.5,1803.5,2300.2,1791.1,2296.2z
			 M1976.8,2177.4c-31.9-7.9-44-38.2-58.5-62.8c-7.5-12.8,11.1-27.8,21.4-23.5c28.4,12,41,41.1,57.2,64
			C1995.1,2168.8,1987,2180,1976.8,2177.4z M1791.1,2141.1c-14.4,9.4-31.1,15.2-46.7,22.6c-93.1,35.3-182.7,79.6-282.2,98.1
			c-174.3,32.5-346.1,21.4-517.1-20.1c-277.8-78.7-480.5-252.4-617.7-501.7c-203.9-370.5-160.2-825,105.1-1156.7
			c261.2-326.5,700.1-467.1,1101.6-352.7c411.1,117.1,712.5,462.3,756.8,887.3C2337,1559.3,2161.4,1899.6,1791.1,2141.1z
			 M2127.2,2027.6c-22.8-17.1-53.3-29.7-59.6-61.7c-1.7-8.7,9.4-18,25-17.8c20.7,17.4,49.4,31,59.6,60.2
			C2156,2019.1,2137.5,2035.4,2127.2,2027.6z M2258.5,1850.1c-27.4-10.3-57.8-19.5-70.9-49.2c-3-6.9,9.9-22.9,20.3-19.1
			c27.4,10,55.7,20.9,71.8,47C2276.3,1841.7,2269.4,1854.2,2258.5,1850.1z M2345.7,1650.2c-23.8-10.8-58.4-5.5-68.7-37
			c-4.6-14,9.9-20.8,23.7-22.1c23.3,15.8,59.2,7.9,69.2,40C2373.9,1644.1,2360.5,1656.9,2345.7,1650.2z M2387.3,1431.2
			c-16-10-52.9,11.5-58.8-25.9c-3.1-19.9,18.2-22.7,32.9-17.3c21.6,7.9,57.4-11.4,62.9,26.6
			C2427.2,1435.2,2408.2,1435.9,2387.3,1431.2z M2384.8,1204.6c-16.5,1-46.3,11.7-43.8-19.6c2.5-31.9,34.5-14.3,51.9-21.3
			c15.6,3.7,41-9.2,41.2,17.7C2434.2,1216.3,2403.2,1203.5,2384.8,1204.6z"/>
		<path class="st0" d="M1634.7,1744.7c-63.2-63.5-63.2-63.5-2.8-132.5c42.7-57.8,62.6-121.9,61.8-194.4
			c-1.7-149.9-0.8-299.9-0.3-449.9c0.2-46.6-8.3-90.4-32.9-130.5c-79.1-150.8-203.3-221.1-373.6-210.8c-34.7,2.1-69.7,0.1-104.6,0.4
			c-220.4,2.2-362.9,144.6-364.7,365.2c-1.2,156.8-1.3,313.7-1.9,470.5c-3.4,15.8-4.5,31.3,7.6,44.5
			c50.2,142.4,142.7,240.2,297.1,258.4c83.7,9.8,174.7,20.2,253-2.4c102.9-29.7,171.1-10,230.5,73.1c17.3,24.2,44.7,28.1,67.6,4.2
			c20.5-21.4,14.6-43.6-4.7-63.4C1656.2,1766.3,1645.4,1755.5,1634.7,1744.7z M1438.7,1548.9c-7.8-7.6-15.3-15.6-23.4-22.9
			c-20.3-18.2-42.6-24.5-63.8-3.3c-20.7,20.7-17.8,43.9,2,63.6c22.9,22.9,47.6,44.1,70.7,65.4c-18.5,29.7-42.4,27.1-62.3,27.6
			c-74.2,1.8-148.9,6.4-222.4-0.4c-103.1-9.5-179.5-61.6-213.6-164.6c-23.9-190.2-11.8-380.9-8.3-571.5
			c0.7-40.2,22.9-74.2,34.6-111.2c14.1-33.8,39.1-56.8,71.7-72.1c171.9-54.4,341.2-76.2,499.7,39.4c50.4,42.2,70.9,99.3,71.7,161.9
			c2,157.1,1.6,314.3,0.1,471.5c-0.3,27.8-6.7,56.7-16.3,82.9C1541.5,1618.6,1515.5,1624.2,1438.7,1548.9z"/>
	</g>
</g>
</svg>
