<?xml version="1.0" encoding="utf-8"?>
<!-- Generator: Adobe Illustrator 22.0.1, SVG Export Plug-In . SVG Version: 6.00 Build 0)  -->
<svg version="1.1" id="Layer_1" xmlns="http://www.w3.org/2000/svg" xmlns:xlink="http://www.w3.org/1999/xlink" x="0px" y="0px"
	 viewBox="0 0 250 250" style="enable-background:new 0 0 250 250;" xml:space="preserve">
<style type="text/css">
	.st0{fill:#5CA7D5;}
</style>
<path class="st0" d="M226.4,196.1c3.1,0,5.8,1.1,8.1,3.3c2.3,2.2,3.4,4.9,3.4,8.2c0,3.1-1.1,5.8-3.4,8.1c-2.3,2.3-5,3.4-8.1,3.4
	c-3.3,0-6-1.1-8.2-3.4c-2.2-2.3-3.3-5-3.3-8.1c0-1,0.1-2.1,0.4-3.1c0.3-1,0.7-2,1.2-2.7l-20.2-17.4l-41.4,29.7
	c0.3,0.5,0.4,1,0.5,1.5c0.1,0.5,0.1,0.9,0.1,1.5c0,2.2-0.8,4.1-2.4,5.7c-1.6,1.6-3.4,2.3-5.5,2.3c-2,0-3.7-0.6-5.1-1.7
	c-1.4-1.1-2.4-2.6-2.7-4.4H95.9c-0.4,1.8-1.3,3.3-2.7,4.4c-1.4,1.1-3.1,1.7-4.9,1.7c-2.2,0-4.1-0.8-5.7-2.3
	c-1.6-1.6-2.4-3.4-2.4-5.7c0-0.5,0.1-1,0.2-1.5c0.1-0.5,0.3-0.9,0.4-1.5l-36.3-26c-0.7,0.5-1.4,1-2.3,1.3c-0.8,0.3-1.8,0.5-2.8,0.5
	c-2.2,0-4.1-0.8-5.7-2.3c-1.6-1.6-2.4-3.4-2.4-5.7c0-1.4,0.4-2.7,1.1-3.9c0.7-1.1,1.7-2.1,2.8-2.7l-13.9-42.4H21
	c-2.2,0-4.1-0.8-5.7-2.3c-1.6-1.6-2.4-3.4-2.4-5.7c0-2.2,0.8-4.1,2.4-5.7c1.6-1.6,3.5-2.3,5.7-2.3h0.6l13.7-42h-0.2
	c-1-0.7-1.9-1.6-2.6-2.7c-0.7-1.2-1.1-2.5-1.1-3.9c0-2.2,0.8-4.1,2.4-5.7c1.6-1.6,3.5-2.3,5.7-2.3c1,0,2,0.2,2.8,0.5
	c0.8,0.3,1.6,0.8,2.3,1.5l36.3-26.2c-0.1-0.4-0.3-0.8-0.4-1.4c-0.1-0.5-0.2-1-0.2-1.6c0-2.2,0.8-4.1,2.4-5.7
	c1.6-1.6,3.5-2.3,5.7-2.3c1.8,0,3.5,0.6,4.9,1.8c1.4,1.2,2.4,2.6,2.7,4.3h43.9c0.4-1.8,1.3-3.3,2.7-4.4c1.4-1.1,3.1-1.7,5.1-1.7
	c2.1,0,3.9,0.8,5.5,2.3c1.6,1.6,2.4,3.5,2.4,5.7c0,0.5,0,1-0.1,1.6c-0.1,0.5-0.2,1-0.5,1.4l36.3,26.2c0.7-0.7,1.5-1.2,2.4-1.5
	c0.9-0.3,1.8-0.5,2.7-0.5c2.2,0,4.1,0.8,5.7,2.3c1.6,1.6,2.4,3.5,2.4,5.7c0,1.4-0.4,2.7-1.1,3.9s-1.6,2.1-2.6,2.7l13.7,42.2h0.6
	c2.1,0,3.9,0.8,5.5,2.3c1.6,1.6,2.4,3.4,2.4,5.7c0,2.2-0.8,4.1-2.4,5.7c-1.6,1.6-3.4,2.3-5.5,2.3h-0.6l-15.7,48.2l20.4,17.6
	c1-0.9,2.2-1.6,3.4-2.1C223.7,196.3,225,196.1,226.4,196.1L226.4,196.1z M197.6,78.3l-2.5,38.9c1.3,0.5,2.4,1.3,3.4,2.2
	c1,1,1.6,2.2,1.9,3.6h6.7c0.3-1,0.7-2,1.3-2.7c0.6-0.8,1.3-1.4,2.3-2L197.6,78.3L197.6,78.3z M193.9,75.8l-0.2-0.2
	c-0.7-0.1-1.3-0.5-2-1c-0.6-0.5-1.2-1-1.8-1.6l-13.3,5.7c0,0.3,0,0.5,0.1,0.8c0.1,0.3,0.1,0.5,0.1,0.6c0,1.2-0.3,2.3-0.8,3.3
	c-0.5,1-1.2,1.9-2,2.5l16.5,31.2c0.1-0.1,0.2-0.2,0.3-0.2h0.3L193.9,75.8L193.9,75.8z M149,117.2l14.7-31.1c-0.8-0.6-1.4-1.4-2-2.2
	c-0.5-0.9-0.9-1.8-1-2.8l-35.5-4.5c-0.3,0.5-0.6,1-0.9,1.5c-0.3,0.5-0.7,0.9-1.1,1.3l22,38.1c0.4-0.1,0.8-0.2,1.2-0.3
	c0.4-0.1,0.8-0.1,1.2-0.1c0.3,0,0.5,0,0.8,0.1C148.7,117.2,148.9,117.2,149,117.2L149,117.2z M167.2,87.9l-14.5,31.1
	c0.6,0.5,1.2,1.1,1.6,1.9c0.4,0.7,0.7,1.5,1,2.2h29.6c0.1-0.8,0.4-1.5,0.8-2.2c0.4-0.7,0.9-1.3,1.6-1.9l-16.5-31.2
	c-0.4,0.1-0.8,0.2-1.1,0.3c-0.3,0.1-0.6,0.1-0.9,0.1c-0.3,0-0.5,0-0.8-0.1C167.8,87.9,167.5,87.9,167.2,87.9L167.2,87.9z M142,119.3
	L120,81.2c-0.4,0-0.8,0-1.1,0.1c-0.4,0.1-0.7,0.1-1.1,0.1c-0.4,0-0.8,0-1.1-0.1c-0.3-0.1-0.6-0.1-0.9-0.1l-22.1,38.1
	c0.5,0.5,1,1.1,1.4,1.7c0.4,0.6,0.7,1.3,0.8,2.1h43.9c0.3-0.8,0.6-1.5,0.9-2.1C141,120.4,141.5,119.8,142,119.3L142,119.3z
	 M90.4,117.4l22-38.1c-0.4-0.4-0.8-0.8-1.1-1.3c-0.4-0.5-0.7-1.1-0.9-1.7l-35.5,4.7c-0.1,1-0.5,2-1,2.8c-0.5,0.9-1.2,1.6-2,2.2
	l14.7,31.1c0.3,0,0.5,0,0.8-0.1c0.3-0.1,0.5-0.1,0.8-0.1c0.4,0,0.8,0,1.1,0.1C89.7,117.2,90.1,117.3,90.4,117.4z M83.2,118.9
	L68.7,87.9c-0.3,0-0.5,0-0.8,0.1c-0.3,0.1-0.5,0.1-0.8,0.1c-0.4,0-0.8,0-1.1-0.1c-0.3-0.1-0.6-0.1-0.9-0.1l-16.5,31.2
	c0.6,0.5,1.2,1.1,1.6,1.8c0.4,0.7,0.7,1.4,1,2.1h29.4c0.1-0.9,0.4-1.7,0.9-2.3C82,120,82.5,119.4,83.2,118.9z M51.2,127
	c-0.2,0.8-0.6,1.5-1,2.1c-0.4,0.7-0.9,1.3-1.6,1.8l16.5,31.4c0.3-0.1,0.6-0.2,0.9-0.2h2.4l14.7-31.1c-0.6-0.5-1.2-1.1-1.7-1.8
	c-0.5-0.7-0.8-1.4-1.1-2.3C80.4,127,51.2,127,51.2,127z M86.7,132.8L72,163.9c0.8,0.6,1.4,1.4,2,2.2c0.5,0.8,0.8,1.8,1,2.8l35.5,4.5
	c0.3-0.5,0.6-1,0.9-1.6c0.3-0.5,0.7-1,1.1-1.4l-22-37.9c-0.3,0.1-0.6,0.2-1,0.3c-0.4,0.1-0.8,0.1-1.2,0.1c-0.3,0-0.5,0-0.8-0.1
	C87.2,132.8,87,132.8,86.7,132.8L86.7,132.8z M93.7,130.7l22,37.9v0.2c0.4-0.1,0.8-0.2,1.1-0.3c0.4-0.1,0.7-0.1,1.1-0.1
	c0.4,0,0.8,0,1.2,0.1c0.4,0.1,0.7,0.1,1,0.1l22-37.9c-0.5-0.5-1-1.1-1.4-1.7c-0.4-0.6-0.7-1.3-0.8-2.1H95.9
	c-0.1,0.8-0.4,1.5-0.8,2.1S94.3,130.1,93.7,130.7L93.7,130.7z M149,132.8c-0.2,0-0.4,0-0.6,0.1c-0.3,0.1-0.7,0.1-1,0.1
	c-0.4,0-0.8,0-1.1-0.1c-0.4-0.1-0.7-0.2-1.1-0.3l-21.8,37.9c0.4,0.4,0.7,0.8,1,1.4l0.8,1.6l35.7-4.5c0.1-1,0.4-2,0.9-2.8
	c0.5-0.9,1.1-1.6,1.9-2.2L149,132.8L149,132.8z M152.5,131.1l14.7,31.1h2.4c0.3,0,0.6,0.1,0.9,0.2l16.9-31.6
	c-0.6-0.4-1.2-0.9-1.6-1.6c-0.4-0.7-0.7-1.4-1-2.1h-29.6c-0.3,0.9-0.6,1.7-1.1,2.3C153.7,130,153.2,130.6,152.5,131.1L152.5,131.1z
	 M188.4,69.3c0-0.2,0-0.3-0.1-0.5c-0.1-0.2-0.1-0.5-0.1-0.7c0-0.5,0.1-1.1,0.2-1.6c0.1-0.5,0.3-1,0.4-1.4l-36.1-26.2
	c-0.1,0-0.2,0-0.2,0.1v0.1l14.9,32.9c0.2-0.1,0.4-0.1,0.6-0.1h0.8c1.3,0,2.5,0.3,3.5,0.9c1,0.6,2,1.3,2.7,2.2L188.4,69.3L188.4,69.3
	z M144.5,40.4l-20.4,28.1c0.4,0.5,0.8,1.1,1.1,1.8c0.3,0.7,0.5,1.4,0.5,2.1l35.7,4.7c0.3-0.7,0.6-1.3,1-1.9c0.4-0.6,0.9-1.1,1.6-1.5
	l-14.9-33c-0.3,0-0.5,0-0.8,0.1c-0.3,0.1-0.5,0.1-0.8,0.1c-0.5,0-1-0.1-1.5-0.2C145.5,40.7,145,40.6,144.5,40.4L144.5,40.4z
	 M95.9,35c-0.1,0.7-0.3,1.2-0.6,1.7c-0.3,0.5-0.6,0.9-1,1.5L114.9,66v0.2c0.4-0.3,0.8-0.4,1.4-0.5c0.5-0.1,1-0.1,1.6-0.1
	c0.5,0,1,0,1.5,0.1c0.4,0.1,0.9,0.2,1.3,0.3l20.8-27.9c-0.4-0.5-0.7-1-1-1.6c-0.3-0.5-0.4-1-0.6-1.6H95.9z M88.3,41
	c-0.3,0-0.5,0-0.8-0.1c-0.2-0.1-0.4-0.1-0.6-0.1L72,73.8c0.5,0.4,1,0.9,1.4,1.5s0.7,1.2,1,1.9l35.7-4.7c0.1-0.7,0.3-1.5,0.6-2.1
	c0.3-0.7,0.7-1.3,1.2-1.8L91.2,40.4c-0.4,0.1-0.8,0.3-1.4,0.4C89.3,40.9,88.8,41,88.3,41z M83.2,39.1L46.9,65.2
	c0.1,0.4,0.3,0.8,0.4,1.3c0.1,0.5,0.2,0.9,0.2,1.5v0.8c0,0.3-0.1,0.5-0.2,0.6l13.5,5.9c0.7-0.9,1.5-1.7,2.6-2.2
	c1.1-0.6,2.4-0.9,3.6-0.9h0.7c0.2,0,0.4,0.1,0.7,0.2l14.9-33C83.2,39.3,83.2,39.2,83.2,39.1C83.2,39.2,83.2,39.1,83.2,39.1z
	 M45.7,73c-0.4,0.5-0.9,1-1.6,1.5c-0.7,0.5-1.4,0.8-2.2,1.1l2.9,41.6h0.4l16.5-31.2c-0.9-0.6-1.6-1.5-2.1-2.5
	c-0.5-1-0.7-2.1-0.7-3.1v-0.8c0-0.3,0.1-0.5,0.2-0.8L45.7,73z M38.3,171.7l2.7-39.1h-0.2c-1.2-0.5-2.3-1.3-3.1-2.2
	c-0.9-1-1.6-2.1-2-3.4h-7.1c-0.3,1-0.7,2-1.3,2.7c-0.6,0.8-1.3,1.4-2.3,2L38.3,171.7L38.3,171.7z M35.7,123c0.4-1.3,1-2.4,2-3.4
	c0.9-1,2-1.7,3.3-2.2l-2.7-39.1l-12.9,39.8c0.8,0.5,1.5,1.2,2.2,2.1c0.6,0.8,1,1.8,1.2,2.8L35.7,123L35.7,123z M42,174.4
	c0.8,0.3,1.5,0.6,2.1,1c0.6,0.4,1.1,0.9,1.7,1.6l13.5-5.7c-0.1-0.3-0.2-0.5-0.2-0.7v-0.7c0-1.1,0.2-2.3,0.7-3.3
	c0.4-1,1.2-1.9,2.1-2.5l-16.5-31.2h-0.4C44.9,132.8,42,174.4,42,174.4z M47.4,180.6c0.1,0.2,0.1,0.4,0.1,0.6v0.8
	c0,0.5-0.1,1.1-0.2,1.6c-0.1,0.5-0.3,1-0.4,1.4l36.3,26l0.2-0.2l-14.9-33c-0.3,0.1-0.5,0.2-0.8,0.2h-0.8c-1.3,0-2.5-0.3-3.5-0.9
	c-1-0.6-2-1.3-2.7-2.2C60.6,174.8,47.4,180.6,47.4,180.6z M86.9,209.2c0.2,0,0.4,0,0.6-0.1c0.3-0.1,0.5-0.1,0.8-0.1
	c0.5,0,1,0.1,1.6,0.2c0.5,0.1,1,0.3,1.4,0.4l17.1-23.4l3.5-4.7c-0.5-0.6-0.9-1.3-1.2-2c-0.3-0.7-0.5-1.4-0.6-2.1l-35.5-4.5h-0.2
	c-0.3,0.6-0.6,1.3-1,1.9c-0.4,0.6-0.8,1.1-1.4,1.5L86.9,209.2L86.9,209.2z M120.8,183.7c-0.5,0.2-0.9,0.4-1.4,0.4
	c-1,0.1-2.1,0.1-3.1,0c-0.5-0.1-1-0.2-1.4-0.5l-20.6,28.3c0.4,0.4,0.7,0.9,1,1.5c0.3,0.6,0.5,1.1,0.6,1.7h43.9
	c0.1-0.5,0.3-1,0.6-1.6c0.3-0.5,0.6-1,1-1.6L120.8,183.7L120.8,183.7z M149,209.2l0.4-1.2l14.3-31.8c-0.5-0.5-1-1-1.4-1.6
	c-0.4-0.5-0.7-1.1-1-1.8l-35.7,4.5c0,0.8-0.2,1.5-0.5,2.1c-0.4,0.7-0.8,1.3-1.3,2l20.6,28.1c0.5-0.1,1-0.3,1.5-0.4
	c0.5-0.1,0.9-0.2,1.5-0.2c0.3,0,0.5,0,0.8,0.1C148.5,209.1,148.8,209.2,149,209.2L149,209.2z M152.7,210.9l39.6-28.7l-17.2-7.4v0.2
	c-0.8,0.9-1.7,1.6-2.7,2.1c-1,0.5-2.2,0.8-3.5,0.8H168c-0.3,0-0.5-0.1-0.6-0.2l-14.5,32l-0.4,1v0.2L152.7,210.9L152.7,210.9z
	 M176.7,171.3l17.4,7.6l-2.9-46.3h-0.4l-16.7,31.4c0.8,0.8,1.4,1.7,2,2.6c0.5,1,0.8,2.1,0.8,3.2c0,0.3,0,0.5-0.1,0.7
	C176.7,170.8,176.6,171.1,176.7,171.3L176.7,171.3z M195.1,132.4l2.5,39.3l12.9-40c-0.9-0.5-1.6-1.2-2.3-2c-0.6-0.8-1-1.7-1.3-2.7
	h-6.9c-0.3,1.3-0.8,2.4-1.8,3.3C197.5,131.2,196.4,131.9,195.1,132.4L195.1,132.4z"/>
</svg>
