<?xml version="1.0" encoding="utf-8"?>
<!-- Generator: Adobe Illustrator 22.0.1, SVG Export Plug-In . SVG Version: 6.00 Build 0)  -->
<svg version="1.1" id="Layer_1" xmlns="http://www.w3.org/2000/svg" xmlns:xlink="http://www.w3.org/1999/xlink" x="0px" y="0px"
	 viewBox="0 0 292.5 316" style="enable-background:new 0 0 292.5 316;" xml:space="preserve">
<title>icons 2</title>
<desc>Created with Sketch.</desc>
<g id="x4WrDu.tif">
	<g>
		<path d="M183.2,174.4c1-29-6.9-55.2-21.5-79.5C141.5,61.2,112.3,37,78.5,17.9C67.8,11.9,56.6,6.6,43.7,0c4.3,0,6.6,0,8.9,0
			c38,0,76-0.1,114,0.1c3.1,0,7.1,1,9.1,3c45.8,45.4,72.5,99.5,73.1,165c0,1.9-0.2,3.9-0.4,6.3C226.9,174.4,205.6,174.4,183.2,174.4
			z"/>
		<path d="M171.7,263.9c-27.4,17.5-54,34.6-81.5,52.1c0-66.2,0-131.6,0-199C117.8,166.7,144.6,215,171.7,263.9z"/>
	</g>
</g>
</svg>
