<?xml version="1.0" encoding="utf-8"?>
<!-- Generator: Adobe Illustrator 22.0.1, SVG Export Plug-In . SVG Version: 6.00 Build 0)  -->
<svg version="1.1" id="Layer_1" xmlns="http://www.w3.org/2000/svg" xmlns:xlink="http://www.w3.org/1999/xlink" x="0px" y="0px"
	 viewBox="0 0 292.5 316" style="enable-background:new 0 0 292.5 316;" xml:space="preserve">
<style type="text/css">
	.st0{fill:#73E6DA;}
	.st1{fill:#72DFDD;}
	.st2{fill:#77FBD2;}
	.st3{fill:#70CCE5;}
	.st4{fill:#6EC5E7;}
	.st5{fill:#6BAAF2;}
	.st6{fill:#6CB4EE;}
	.st7{fill:#6898F8;}
	.st8{fill:#6EBCEB;}
	.st9{fill:#78F6D5;}
	.st10{fill:#68A0F5;}
	.st11{fill:#76EFD8;}
	.st12{fill:#72D2E2;}
	.st13{fill:#72D9E0;}
</style>
<title>icons 2</title>
<desc>Created with Sketch.</desc>
<g id="Ed9jvY.tif">
	<g>
		<path class="st0" d="M221.9,87.4c-0.9-7-1.7-14.1-2.6-21.1c8.7-0.8,17.4-2.4,26.2-0.4c2.3,1.9,0,5.7,3,7.3c0,4.7,0,9.5,0,14.2
			C239.6,87.4,230.7,87.4,221.9,87.4z"/>
		<path class="st1" d="M221.9,87.4c8.9,0,17.7,0,26.6,0c0,3.6,0,7.1,0,10.7c-3.3,3.1-2.3,8-4.8,11.4c-8.2-5.3-17.4-1.1-25.9-2.6
			C219.1,100.3,220.5,93.9,221.9,87.4z"/>
		<path class="st2" d="M177.4,27.2c-41.1-3.1-82.2-1.2-123.3-1.4c-7.5,0-10.3-1.6-10-9.7C44.7,0.1,44.2,0,60,0
			c36.7,0,73.4-0.2,110,0.3c19.3,0.3,36,8.1,50,21.5c-6.3,3.7-13.2,1.1-19.8,1.6C192.5,23.9,184.4,22.5,177.4,27.2z"/>
		<path class="st3" d="M222.5,144.6c-10.9,9-21.2,19-36.1,21c-0.6-4.4-4-3.6-6.8-3.6c-25.1,0-50.3,0.1-75.4,0.2
			c-3.8-5.9-7.6-11.8-11.4-17.6c1.9-3.2,4.5-2,6.7-2c19.8-0.1,39.6-0.1,59.4,0c8,0,15.9-0.3,23.7-2.4c8.5,3.3,17.3,5,26.3,3.2
			C213.7,142.4,218.1,142,222.5,144.6z"/>
		<path class="st4" d="M104.1,162.2c25.1-0.1,50.3-0.1,75.4-0.2c2.8,0,6.2-0.8,6.8,3.6c-15,5.9-30.8,2.5-46.8,3.9
			c2.8,5.3,5.4,10.4,8.1,15.5c-9.6,0.7-19.3-1.3-28.7,1.9C113.4,178.9,108.2,170.9,104.1,162.2z"/>
		<path class="st5" d="M177.6,234.7c6,8.5,11.5,17.3,16,26.6c-9.5,2.6-19.1,1.7-28.8,1.9c-6.1-8.4-11.4-17.3-16-26.6
			C158.3,233.5,168.1,236.2,177.6,234.7z"/>
		<path class="st6" d="M177.6,234.7c-9.5,1.5-19.3-1.2-28.8,1.9c-6.1-8.4-11.4-17.3-16-26.6c9.5-1.1,19.4,2.2,28.7-2
			C167.7,216.5,173.1,225.3,177.6,234.7z"/>
		<path class="st7" d="M207.6,284.5c1.1,1.4,2.4,2.7,3.1,4.2c2.4,5.2,10.1,11.2,6.9,15c-5.2,6.3-12.8,11.9-22.3,12.3
			c-5.5-9.9-11-19.8-16.5-29.6C188.4,285.3,198.2,288.2,207.6,284.5z"/>
		<path class="st8" d="M161.6,208c-9.3,4.2-19.2,0.9-28.7,2c-5.5-7.2-10-15-14-23.1c9.4-3.2,19.2-1.1,28.7-1.9
			C153.2,192.1,157.6,199.9,161.6,208z"/>
		<path class="st9" d="M177.4,27.2c7.1-4.7,15.1-3.3,22.9-3.8c6.6-0.5,13.4,2.1,19.8-1.6c7,5.1,12,11.8,15.9,19.5
			c-10.1,2.2-20.5-1.7-30.5,1.9C197.1,36,187.6,30.9,177.4,27.2z"/>
		<path class="st10" d="M207.6,284.5c-9.4,3.7-19.2,0.8-28.8,1.9c-5.6-7.1-10.2-14.9-14-23.1c9.6-0.2,19.3,0.7,28.8-1.9
			C199.1,268.6,203.7,276.4,207.6,284.5z"/>
		<path class="st11" d="M205.4,43.2c10-3.6,20.4,0.3,30.5-1.9c5.4,7.3,8.5,15.6,9.6,24.6c-8.8-2-17.5-0.4-26.2,0.4
			C215.6,58,210.9,50.4,205.4,43.2z"/>
		<path class="st12" d="M222.5,144.6c-4.4-2.5-8.8-2.2-13.6-1.2c-9,1.8-17.8,0.1-26.3-3.2c9.3-4.4,17.7-10,25.1-17.2
			c0.7,4.4,4.2,3.4,7,3.4c7.1-0.1,14.1,0,21.1,1.8C232.4,134.6,228.2,140.2,222.5,144.6z"/>
		<path class="st13" d="M235.7,128.2c-6.9-1.8-14-1.9-21.1-1.8c-2.8,0-6.3,1-7-3.4c3.4-5.4,6.7-10.8,10.1-16.2
			c8.6,1.5,17.7-2.6,25.9,2.6C242.8,116.4,239.4,122.4,235.7,128.2z"/>
	</g>
</g>
</svg>
