<?xml version="1.0" encoding="utf-8"?>
<!-- Generator: Adobe Illustrator 22.0.1, SVG Export Plug-In . SVG Version: 6.00 Build 0)  -->
<svg version="1.1" id="Layer_1" xmlns="http://www.w3.org/2000/svg" xmlns:xlink="http://www.w3.org/1999/xlink" x="0px" y="0px"
	 viewBox="0 0 226.8 226.8" style="enable-background:new 0 0 226.8 226.8;" xml:space="preserve">
<style type="text/css">
	.st0{fill:#00CBA0;}
</style>
<g>
	<path class="st0" d="M191.4,88.3c-21.7-13.6-48.8-15-71.7-4.3l0-0.1c-12.4,5.6-26.9,3.3-37.1-5.8c-0.5-0.4-0.9-0.9-1.4-1.3l-46-46
		c0,0,0,0,0,0c-3-3.3-4.4-7.8-3.9-12.2c0,0,0,0,0,0c1.6-8.5-4-16.8-12.6-18.4c-8.5-1.6-16.8,4-18.4,12.6c-1.6,8.5,4,16.8,12.6,18.4
		c1.9,0.4,3.9,0.4,5.8,0l0,0C23,30.8,27.5,32,31,35.1c0,0,0,0,0,0l46.2,46.2c0.4,0.4,0.7,0.8,1,1.2c9.1,10.2,11.3,24.7,5.7,37.1l0,0
		c-10.8,22.8-9.4,50,4.3,71.7c3,4.7,6.5,9.1,10.4,13.1c12.9,12.9,30,20.5,46.9,22c4.4,0.4,67.4,0.2,67.4,0.2c3.4,0,6.9-1.7,9.3-4.1
		c2.4-2.4,4.4-6.3,4.4-9.7v-61c0-3-0.7-7.4-0.7-8c-1.5-16.9-8.7-32.2-21.6-45.1C200.5,94.8,196.1,91.3,191.4,88.3z M195.4,139.4
		c1.8,8.7,1.9,12.5,1.9,13.1v30.9c0,3.4-1.5,7.4-3.9,9.8c-2.4,2.4-6.4,3.9-9.8,3.9h-30c-0.6,0-7.6-0.1-14.1-1.9
		c-7.5-2.1-14.3-6.1-19.8-11.6c-17.7-17.7-17.7-46.4,0-64.1c17.7-17.7,46.5-17.7,64.1,0C189.4,125.3,193.9,132,195.4,139.4
		L195.4,139.4z"/>
</g>
</svg>
