<?xml version="1.0" encoding="utf-8"?>
<!-- Generator: Adobe Illustrator 22.0.1, SVG Export Plug-In . SVG Version: 6.00 Build 0)  -->
<svg version="1.1" id="Layer_1" xmlns="http://www.w3.org/2000/svg" xmlns:xlink="http://www.w3.org/1999/xlink" x="0px" y="0px"
	 viewBox="0 0 595.3 595.3" style="enable-background:new 0 0 595.3 595.3;" xml:space="preserve">
<style type="text/css">
	.st0{fill:#4953B3;}
</style>
<g id="RrprS5.tif">
	<g>
		<path class="st0" d="M159.8,590.3c-11.9,0.4-25-0.5-37.9-2.5c-27.6-4.4-53.5-13.2-75.7-30.9c-15.2-12.2-26.6-27.3-34.4-45.2
			c-5.2-12-8.6-24.5-10.2-37.3c-1.7-13.9-2-27.8-0.7-41.9c0.8-8.8,2.5-17.3,5-25.8c4.6-15.7,12.3-29.7,22.8-42.2
			c14-16.6,31.6-28.2,51.2-37c16.5-7.4,33.8-12.1,51.4-15.3c13-2.4,26.1-3.7,39.3-4.5c22.3-1.3,44.6-0.6,66.8,0.9
			c17.1,1.2,34.2,3.2,51.2,5.4c14.6,1.9,29.3,3.7,44,5.3c19.1,2,38.2,3.2,57.4,3.7c13.7,0.4,27.4-0.1,41.1-0.8
			c9.9-0.6,19.6-2.1,29.4-3.4c3.8-0.5,4-0.4,3.8,3.4c-0.6,8.7-2.4,17.2-4.2,25.7c-2.3,11.2-5.3,22.3-9,33.2
			c-6.1,18-13.6,35.3-22.8,52c-8.3,15-17.7,29.1-28.4,42.4c-25.5,31.9-56.2,57.7-91.9,77.5c-17.9,9.9-36.7,17.9-56.2,23.9
			c-14.5,4.5-29.2,7.8-44.2,10.1C192.1,589.3,176.6,590.5,159.8,590.3z"/>
		<path class="st0" d="M399.5,287.9c-14.4,0.6-28.8-0.3-43.2-1.3c-13.7-1-27.4-2.4-41.1-4.3c-14.2-2-28.6-3.3-42.8-5.2
			c-32.9-4.4-65.9-5.6-99-4.5c-13.4,0.4-26.7,1.9-39.9,4.4c-2.5,0.5-3-0.4-2.8-2.6c0.4-7.1,1.9-14,3.1-21
			c1.9-10.7,4.6-21.2,7.7-31.6c2.9-9.5,6.2-18.9,10-28.1c9.8-23.7,22.4-45.9,37.8-66.4c17-22.6,36.8-42.6,59.3-59.8
			c17-13,35.1-24.1,54.5-33.3c13.8-6.6,28.1-12.1,42.8-16.5c12.6-3.8,25.4-6.8,38.4-9c19.3-3.2,38.7-4.2,58.2-3.7
			c10.1,0.3,20.2,0.8,30.2,2.4c13.4,2.1,26.5,5.3,39.2,10.2c18.3,7.1,34.6,17,48.3,31.2c13.1,13.6,22,29.6,27.8,47.5
			c6.9,21.4,8.3,43.3,6.4,65.5c-2.7,32.1-15.6,59.4-39.8,81.1c-12.4,11.1-26.5,19.4-41.8,25.9c-13.6,5.8-27.7,10.1-42.2,12.9
			c-13.6,2.7-27.3,4.6-41.2,5.4C419.5,287.6,409.5,287.7,399.5,287.9z"/>
	</g>
</g>
</svg>
