<?xml version="1.0" encoding="utf-8"?>
<!-- Generator: Adobe Illustrator 22.0.1, SVG Export Plug-In . SVG Version: 6.00 Build 0)  -->
<svg version="1.1" id="Layer_1" xmlns="http://www.w3.org/2000/svg" xmlns:xlink="http://www.w3.org/1999/xlink" x="0px" y="0px"
	 viewBox="0 0 226.8 226.8" style="enable-background:new 0 0 226.8 226.8;" xml:space="preserve">
<style type="text/css">
	.st0{fill:#285095;}
	.st1{fill:#60A1EC;}
</style>
<g>
	<path class="st0" d="M37.1,24.5C34.8,23.4,6.4,46.9,6.4,64.2c0,23.6,33.2,77.2,38.8,97.9c4.8,17.8-8.2,39.1-4.6,40.1
		c3.3,2.1,34.3-29.3,35.5-42.7C77.7,138.2,39.9,76,36.9,60C33.3,41.3,39.6,24.9,37.1,24.5z"/>
	<path class="st1" d="M108.1,0c-2.9-1.4-39.2,28.5-39.2,50.6c0,30.2,42.3,98.5,49.5,124.9c6.1,22.7-10.4,49.9-5.9,51.1
		c4.2,2.7,43.7-37.3,45.2-54.4c2-27.2-46.2-106.4-50-126.9C103.3,21.5,111.3,0.6,108.1,0z"/>
	<path class="st0" d="M181.2,60c-3.5-18.7,2.7-35.1,0.2-35.5c-2.2-1.1-30.7,22.4-30.7,39.7c0,23.6,33.2,77.2,38.8,97.9
		c4.8,17.8-8.2,39.1-4.6,40.1c3.3,2.1,34.3-29.3,35.5-42.7C222,138.2,184.2,76,181.2,60z"/>
</g>
</svg>
