<?xml version="1.0" encoding="utf-8"?>
<!-- Generator: Adobe Illustrator 22.0.1, SVG Export Plug-In . SVG Version: 6.00 Build 0)  -->
<svg version="1.1" id="Layer_1" xmlns="http://www.w3.org/2000/svg" xmlns:xlink="http://www.w3.org/1999/xlink" x="0px" y="0px"
	 viewBox="0 0 595.3 595.3" style="enable-background:new 0 0 595.3 595.3;" xml:space="preserve">
<style type="text/css">
	.st0{fill:#4DA1DF;}
</style>
<path class="st0" d="M583.5,297.7c-8.5-5.1-19.9-4.7-30.5,1c-1.8,0.9-244.7,136.2-254.1,142c-1.8,1.1-2.6,1.6-6.3-0.4
	c-4-2.2-247.5-138.2-252.7-141.1c-2.3-1.3-5.4-3.6-5.4-8.6V250c61.8,34.7,234.1,131.3,242.9,136.2c5.7,3.2,12.2,4.9,18.7,4.9
	c6.7,0,13.5-1.8,19.7-5.2c50.8-28.2,258.1-143.2,264.4-146.6c9.4-5.2,15.2-14.6,15.1-24.5c-0.1-9.3-5.3-17.6-13.9-22.2
	c-5-2.7-142.5-78.9-269.4-149.4c-5.1-2.8-10.5-4.3-15.9-4.3c-5,0-10,1.3-14.3,3.7C192,92.9,102.4,143.1,12.9,193.4
	C4.8,197.9,0,206.2,0,215.6c0,0,0,0.1,0,0.1h0v75c0,16.5,8.5,30.6,23.2,38.7c5.1,2.8,248.7,138.9,252.9,141.2
	c17.4,9.5,31.7,5,40.6-0.4c5.6-3.4,199.6-111.8,244.1-136.4v37.7c0,0.5,0,1.9-6.6,6c-8.6,5.3-241.9,136.5-252.9,142.5
	c-4.7,2.6-5.3,2.2-7.2,1.1c-8.4-4.8-263.2-148-274.1-154.1L3,396.9c2.7,1.5,265.5,149.2,273.8,153.9c7,4,13.4,5.5,19.3,5.5
	c8.6,0,15.9-3.2,21.4-6.2c1.9-1,245.3-137.6,254.9-143.6c6.2-3.9,22.7-14.3,22.7-35.1v-51.9C595.1,310.1,590.9,302.2,583.5,297.7
	L583.5,297.7z M296.2,73.9c54.1,30,209,116,255.6,141.8c-45.3,25.1-208.5,115.6-252.8,140.2c-1.8,1-3.4,1.2-4.8,0.4
	c-9.2-5.2-197.2-110.6-250.7-140.6C92.3,188.2,257.1,95.8,296.2,73.9L296.2,73.9z"/>
</svg>
