<?xml version="1.0" encoding="UTF-8"?>
<svg width="48px" height="48px" viewBox="0 0 48 48" version="1.1" xmlns="http://www.w3.org/2000/svg" xmlns:xlink="http://www.w3.org/1999/xlink">
    <!-- Generator: Sketch 47.1 (45422) - http://www.bohemiancoding.com/sketch -->
    <title>Elements/Logomark</title>
    <desc>Created with Sketch.</desc>
    <defs>
        <path d="M0,24.0008889 C0,10.7457778 10.6915556,0.000888888889 23.8817778,0.000888888889 C37.0684444,0.000888888889 47.76,10.7457778 47.76,24.0008889 C47.76,37.2533333 37.0684444,48 23.8817778,48 C10.6915556,48 0,37.2533333 0,24.0008889 Z" id="path-1"></path>
        <linearGradient x1="0.000741099179%" y1="-0.0010490935%" x2="0.000741099179%" y2="256.406662%" id="linearGradient-3">
            <stop stop-color="#EE4037" offset="0%"></stop>
            <stop stop-color="#C1041B" offset="100%"></stop>
        </linearGradient>
        <path d="M8.08088889,0.859555556 L0.335111111,6.69866667 C0.170666667,6.82222222 0.136,7.05866667 0.259555556,7.22755556 C0.384,7.39111111 0.620444444,7.42666667 0.784,7.30133333 L8.30666667,1.63377778 L19.1733333,9.82311111 L14.4284444,9.82311111 L6.65777778,3.96622222 C6.49333333,3.84266667 6.25688889,3.87555556 6.13244444,4.04177778 C6.00888889,4.20888889 6.04355556,4.44533333 6.208,4.57066667 L14.0773333,10.5004444 C14.1422222,10.5493333 14.2204444,10.5777778 14.3022222,10.5777778 L20.2995556,10.5777778 C20.4604444,10.5777778 20.6035556,10.4746667 20.6533333,10.3191111 C20.7057778,10.1653333 20.6524444,9.99644444 20.5235556,9.90044444 L8.53155556,0.859555556 C8.46488889,0.809777778 8.38666667,0.784 8.30666667,0.784 C8.22755556,0.784 8.14844444,0.809777778 8.08088889,0.859555556 Z" id="path-4"></path>
        <path d="M2.19022222,0.652444444 L0.532444444,1.89866667 C0.44,1.96977778 0.384888889,2.08177778 0.384888889,2.2 C0.384888889,2.31733333 0.44,2.43111111 0.532444444,2.50044444 L24.1191111,20.2791111 L18.7466667,24.3271111 L17.2391111,23.1911111 C17.0728889,23.0657778 16.8391111,23.1004444 16.7146667,23.2648889 C16.5911111,23.432 16.624,23.6684444 16.7884444,23.792 L18.5217778,25.0995556 C18.5902222,25.1493333 18.6684444,25.1742222 18.7466667,25.1742222 C18.8257778,25.1742222 18.9057778,25.1493333 18.9706667,25.0995556 L24.968,20.5795556 C25.0631111,20.5093333 25.1191111,20.3973333 25.1191111,20.2791111 C25.1191111,20.1608889 25.0631111,20.0471111 24.968,19.9777778 L1.384,2.2 L2.63911111,1.25333333 C2.80533333,1.12888889 2.83822222,0.893333333 2.71377778,0.727111111 C2.64088889,0.629333333 2.528,0.575111111 2.41422222,0.575111111 C2.336,0.575111111 2.256,0.600888889 2.19022222,0.652444444 Z" id="path-6"></path>
        <path d="M0.759111111,0.271111111 C0.598222222,0.271111111 0.453333333,0.374222222 0.402666667,0.528 C0.352,0.681777778 0.404444444,0.851555556 0.532444444,0.949333333 L12.5271111,9.98844444 C12.592,10.0382222 12.672,10.0631111 12.7511111,10.0631111 C12.8293333,10.0631111 12.9093333,10.0382222 12.976,9.98844444 L20.7075556,4.16088889 C20.8728889,4.03555556 20.9066667,3.79911111 20.7813333,3.632 C20.6586667,3.46666667 20.424,3.43288889 20.2568889,3.55733333 L12.7511111,9.216 L1.88355556,1.02577778 L6.632,1.02577778 L14.3128889,6.816 C14.4791111,6.94044444 14.712,6.90666667 14.8382222,6.73955556 C14.9617778,6.57333333 14.9288889,6.33777778 14.7626667,6.21333333 L6.97866667,0.348444444 C6.91466667,0.296 6.83555556,0.271111111 6.75377778,0.271111111 L0.759111111,0.271111111 Z" id="path-8"></path>
        <path d="M6.52977778,0.859555556 L0.534222222,5.38044444 C0.44,5.44888889 0.384888889,5.56177778 0.384888889,5.67911111 C0.384888889,5.79911111 0.44,5.91111111 0.534222222,5.98133333 L24.1191111,23.7591111 L22.7848889,24.7635556 C22.6204444,24.8888889 22.5857778,25.1235556 22.712,25.2924444 C22.7831111,25.3893333 22.8977778,25.4408889 23.0097778,25.4408889 C23.0888889,25.4408889 23.1662222,25.4177778 23.2337778,25.3671111 L24.968,24.0604444 C25.0631111,23.9893333 25.1173333,23.8764444 25.1173333,23.7591111 C25.1173333,23.6391111 25.0631111,23.5288889 24.968,23.4577778 L1.384,5.67911111 L6.75377778,1.632 L8.40355556,2.87377778 C8.56888889,2.99911111 8.80355556,2.96533333 8.92888889,2.79822222 C9.05155556,2.63288889 9.01955556,2.39733333 8.85244444,2.27288889 L6.97866667,0.859555556 C6.91288889,0.809777778 6.83377778,0.784 6.75377778,0.784 C6.67555556,0.784 6.59644444,0.809777778 6.52977778,0.859555556 Z" id="path-10"></path>
    </defs>
    <g id="Symbols" stroke="none" stroke-width="1" fill="none" fill-rule="evenodd">
        <g id="Elements/Logo/RedBlack/Horizontal">
            <g id="Elements/Logo">
                <g id="Elements/Logomark/Red">
                    <g id="Elements/Logomark">
                        <g id="Group-3">
                            <mask id="mask-2" fill="white">
                                <use xlink:href="#path-1"></use>
                            </mask>
                            <g id="Clip-2"></g>
                            <polygon id="Fill-1" fill="url(#linearGradient-3)" mask="url(#mask-2)" points="0 48 47.7608889 48 47.7608889 0.000888888889 0 0.000888888889"></polygon>
                        </g>
                        <g id="S" transform="translate(10.666667, 6.666667)">
                            <g id="Group-8" transform="translate(5.333333, 0.444444)">
                                <mask id="mask-5" fill="white">
                                    <use xlink:href="#path-4"></use>
                                </mask>
                                <g id="Clip-7"></g>
                                <polygon id="Fill-6" fill="#FFFFFE" mask="url(#mask-5)" points="-0.415111111 11.1768889 21.2746667 11.1768889 21.2746667 0.183111111 -0.415111111 0.183111111"></polygon>
                            </g>
                            <g id="Group-11" transform="translate(0.888889, 8.444444)">
                                <mask id="mask-7" fill="white">
                                    <use xlink:href="#path-6"></use>
                                </mask>
                                <g id="Clip-10"></g>
                                <polygon id="Fill-9" fill="#FFFFFE" mask="url(#mask-7)" points="-0.216 25.776 25.7182222 25.776 25.7182222 -0.024 -0.216 -0.024"></polygon>
                            </g>
                            <g id="Group-14" transform="translate(0.888889, 23.555556)">
                                <mask id="mask-9" fill="white">
                                    <use xlink:href="#path-8"></use>
                                </mask>
                                <g id="Clip-13"></g>
                                <polygon id="Fill-12" fill="#FFFFFE" mask="url(#mask-9)" points="-0.216 10.664 21.4595556 10.664 21.4595556 -0.329777778 -0.216 -0.329777778"></polygon>
                            </g>
                            <g id="Group-17" transform="translate(0.888889, 0.444444)">
                                <mask id="mask-11" fill="white">
                                    <use xlink:href="#path-10"></use>
                                </mask>
                                <g id="Clip-16"></g>
                                <polygon id="Fill-15" fill="#FFFFFE" mask="url(#mask-11)" points="-0.216 26.0417778 25.7182222 26.0417778 25.7182222 0.183111111 -0.216 0.183111111"></polygon>
                            </g>
                        </g>
                    </g>
                </g>
            </g>
        </g>
    </g>
</svg>