<?xml version="1.0" encoding="utf-8"?>
<!-- Generator: Adobe Illustrator 22.0.1, SVG Export Plug-In . SVG Version: 6.00 Build 0)  -->
<svg version="1.1" id="Layer_1" xmlns="http://www.w3.org/2000/svg" xmlns:xlink="http://www.w3.org/1999/xlink" x="0px" y="0px"
	 viewBox="0 0 595.3 595.3" style="enable-background:new 0 0 595.3 595.3;" xml:space="preserve">
<g id="duJF2Y.tif">
	<g>
		<path d="M559.8,166.4c-2.3,4-3.7,6.9-5.5,9.4C460,311.4,365.6,446.9,271.2,582.4c-1.7,2.4-3,5.2-5.1,7.1c-2.5,2.4-6.4,6.3-8.4,5.6
			c-3.3-1-6.7-4.8-8.1-8.2c-7.6-19.3-14.7-38.8-21.9-58.3C164.5,358,101.3,187.2,38.1,16.5c-0.7-2-1.7-3.9-2.2-6
			C34,2.8,38.1-1.4,45.9,0.4c28.3,6.5,56.5,13.2,84.7,19.9c110.1,26,220.2,52,330.3,78c3.5,0.8,7.2,2.2,10.2,4.2
			c27,18.1,53.9,36.4,80.6,54.8C554.9,159.6,557.1,163.3,559.8,166.4z M452.1,110.6c-131.6-31-261.7-61.7-391.7-92.3
			c-0.3,0.5-0.5,1-0.8,1.5c75.4,87.8,150.8,175.7,226.6,264C341.5,226,396.2,168.9,452.1,110.6z M51.1,22.9
			c-0.4,0.4-0.8,0.8-1.3,1.1C117.1,205.7,184.4,387.3,251.7,569c2.2-6.1,2.9-11.9,3.5-17.7c8.9-84,18-167.9,26.6-251.9
			c0.4-3.7-1.1-8.5-3.4-11.3C218.6,217.9,158.5,148,98.5,78C82.7,59.6,66.9,41.3,51.1,22.9z M262.1,567.4c0.7,0.2,1.3,0.4,2,0.7
			c90.9-130.5,181.7-261,272.6-391.5c-3.5,0.1-6.1,1.2-8.6,2.5c-71.3,34.8-142.2,70.4-214,103.9c-18.2,8.5-24.7,18.8-26.3,38.3
			c-4.7,58.1-11.9,116-18.1,174C267.2,519.3,264.7,543.4,262.1,567.4z M461.5,113C408.7,168.2,356.3,222.8,304,277.5
			c0.3,0.4,0.7,0.8,1,1.2c77.3-37.8,154.6-75.5,233-113.8C511.9,147.2,487,130.3,461.5,113z"/>
	</g>
</g>
</svg>
