<?xml version="1.0" encoding="utf-8"?>
<!-- Generator: Adobe Illustrator 22.0.1, SVG Export Plug-In . SVG Version: 6.00 Build 0)  -->
<svg version="1.1" id="Layer_1" xmlns="http://www.w3.org/2000/svg" xmlns:xlink="http://www.w3.org/1999/xlink" x="0px" y="0px"
	 viewBox="0 0 226.8 226.8" style="enable-background:new 0 0 226.8 226.8;" xml:space="preserve">
<style type="text/css">
	.st0{fill:#4F9E7D;}
</style>
<path class="st0" d="M226.9,107.7c0-14.2-38.8-26.1-90.3-28.9l0-22.7h64.3V8.9H25.1v47.2h64.3v22.8C38.8,81.8,1,93.6,1,107.7
	c0,14.1,37.8,25.8,88.4,28.8v81.5h47.2v-81.4C188.1,133.8,226.9,121.9,226.9,107.7L226.9,107.7z M113.9,121.7
	c-55.3,0-100.1-8.6-100.1-19.1c0-8.9,32.1-16.5,75.6-18.5v5.4h0v22.1c7.8,0.4,16.1,0.7,24.6,0.7c7.8,0,15.4-0.2,22.7-0.6V84
	c44.4,2,77.4,9.5,77.4,18.6C214,113.1,169.2,121.7,113.9,121.7z"/>
</svg>
