<?xml version="1.0" encoding="utf-8"?>
<!-- Generator: Adobe Illustrator 22.0.1, SVG Export Plug-In . SVG Version: 6.00 Build 0)  -->
<svg version="1.1" id="Layer_1" xmlns="http://www.w3.org/2000/svg" xmlns:xlink="http://www.w3.org/1999/xlink" x="0px" y="0px"
	 viewBox="0 0 226.8 226.8" style="enable-background:new 0 0 226.8 226.8;" xml:space="preserve">
<style type="text/css">
	.st0{fill:#FE9300;}
</style>
<g id="Ze4OB6.tif">
	<g>
		<path class="st0" d="M0,6.4c11.6,0,23.1,0,34.7-0.1c2.1,0,3,0.6,3.4,2.8c7.6,40.4,15.4,80.7,23.1,121.1c0.3,1.5,0.6,2.9,0.9,4.4
			c1.4-0.1,1.1-1.2,1.3-1.9C71.6,91.7,79.8,50.8,88,9.9c0.5-2.6,1.3-3.7,4.2-3.7c9.9,0.2,19.9,0.2,29.8,0c2.5,0,2.9,0.7,2.4,3
			c-12.9,56.1-25.8,112.2-38.6,168.4c-0.5,2.1-1.4,2.7-3.5,2.7c-13.1-0.1-26.1-0.1-39.2,0c-2.6,0-3.3-0.9-3.8-3.2
			C28.2,128.7,17.1,80.3,5.9,32C4,23.9,2.7,15.7,0,7.9C0,7.4,0,6.9,0,6.4z"/>
		<path class="st0" d="M193.1,220.5c-3.2,0-6.5,0-9.7,0c-8,0-10.3-2.4-10.3-10.5c0-1.1-0.1-2.2,0.1-3.3c0.2-1.4,1-2.4,2.4-2.4
			c1.5-0.1,2.3,1.1,2.4,2.3c0.2,1.7,0.2,3.5,0.2,5.2c0,2.4,1,3.7,3.5,3.7c7.7,0,15.4-0.1,23.1,0c2.7,0,3.9-1.1,3.9-3.8
			c0-0.1,0-0.2,0-0.4c0-13.1,1-10.9-10.4-11.1c-0.9,0-1.8,0-2.6-0.2c-1.3-0.3-2.2-1.1-2.1-2.6c0.1-1.3,1-2.2,2.2-2.2
			c4.1-0.1,8.2-0.7,12.2,0.3c3.3,0.8,5.3,3.2,5.4,6.7c0.1,3.3,0.1,6.7,0.1,10.1c-0.1,5.2-2.9,8-8.1,8.2
			C201.3,220.6,197.2,220.5,193.1,220.5z"/>
		<path class="st0" d="M33.3,195.1c4,0,8-0.1,11.9,0c5.3,0.1,8.2,3,8.4,8.4c0.1,1.5,0,3,0,4.5c0,1.8-0.7,3.4-2.6,3.4
			c-2,0-2.5-1.8-2.5-3.5c0-1.2-0.1-2.5,0-3.7c0.2-2.9-1.2-4-4-4c-7.6,0.1-15.2,0.1-22.7,0c-2.7,0-3.8,1.3-3.8,3.8c0,2.5,0.1,5,0,7.5
			c-0.1,2.9,1.3,4,4.1,3.9c2.6-0.1,5.2,0,7.8,0c1.6,0,3.1,0.7,3.1,2.5c0,1.8-1.4,2.6-3,2.6c-3.4,0-6.7,0.2-10.1-0.1
			c-4.1-0.4-6.7-3.2-6.8-7.5c-0.1-3.3-0.1-6.7,0-10.1c0.2-4.7,3-7.5,7.8-7.7C25.1,195,29.2,195.1,33.3,195.1z"/>
		<path class="st0" d="M170.5,195.1c3.9,0,7.7,0,11.6,0c5.8,0.1,8.6,2.9,8.8,8.7c0.1,1.7,0.1,3.5-0.1,5.2c-0.2,1.3-1,2.4-2.4,2.3
			c-1.4-0.1-2.2-1.1-2.4-2.5c-0.1-1.5-0.2-3-0.1-4.5c0.2-2.9-0.9-4.4-4.1-4.3c-7.5,0.1-14.9,0.1-22.4,0c-3.1,0-4.3,1.3-4.2,4.3
			c0.1,1.5,0.1,3-0.1,4.5c-0.1,1.4-0.9,2.4-2.3,2.5c-1.5,0.1-2.1-1-2.5-2.3c-2.4-8.5,1.7-14,10.4-14
			C164,195.1,167.2,195.1,170.5,195.1z"/>
		<path class="st0" d="M79.1,195.1c4,0,7.9-0.1,11.9,0c5.3,0.1,8.2,3,8.3,8.4c0,1.9,0.1,3.7-0.1,5.6c-0.1,1.4-1.1,2.3-2.5,2.3
			c-1.2,0-2.1-0.9-2.2-2.1c-0.2-1.7-0.3-3.5-0.2-5.2c0.1-2.6-0.9-3.9-3.7-3.9c-7.7,0.1-15.4,0.1-23.1,0c-2.8,0-3.7,1.3-3.7,3.9
			c0,1.7,0,3.5-0.2,5.2c-0.1,1.2-1,2-2.2,2.1c-1.1,0.1-2.2-0.6-2.2-1.6c-0.3-3.9-1.3-7.9,1.2-11.5c1.6-2.3,4.1-3.1,6.8-3.1
			C71.2,195.1,75.1,195.1,79.1,195.1z"/>
		<path class="st0" d="M56.3,220.5c-3.9,0-7.7,0.1-11.6,0c-5.7-0.1-8.6-3-8.8-8.8c0-1.5-0.1-3,0-4.5c0.1-1.6,0.8-3.1,2.6-3
			c1.8,0.1,2.4,1.5,2.5,3.2c0.1,1.5,0.1,3,0,4.5c-0.1,2.6,1.2,3.6,3.6,3.6c7.7,0,15.4,0,23.1,0c2.7,0,3.9-1.2,3.8-3.9
			c0-1.6,0-3.2,0.1-4.8c0.1-1.4,0.9-2.4,2.3-2.5c1.5-0.1,2.1,0.9,2.5,2.3c2.4,8.6-1.7,14-10.5,14C62.7,220.5,59.5,220.5,56.3,220.5z
			"/>
		<path class="st0" d="M101.7,220.5c-3.7,0-7.5,0-11.2,0c-5.8-0.1-8.6-2.8-8.9-8.7c-0.1-1.5-0.1-3,0-4.5c0.1-1.6,0.6-3.1,2.5-3.1
			c1.8,0,2.5,1.4,2.5,3.1c0,1.5,0,3,0,4.5c0,2.5,1.2,3.6,3.6,3.6c7.8,0,15.7,0,23.5,0c2.3,0,3.4-1.1,3.4-3.4c0-1.7-0.1-3.5,0.1-5.2
			c0.1-1.3,0.9-2.4,2.3-2.6c1.5-0.2,2.2,0.9,2.6,2.2c2.6,8.2-1.7,14.1-10.4,14.1C108.4,220.5,105,220.5,101.7,220.5z"/>
		<path class="st0" d="M125,195.1c3.5,0,7,0,10.4,0c7,0,9.5,2.6,9.6,9.7c0,1.1,0,2.2,0,3.4c0,1.6-0.6,3.1-2.4,3.2
			c-1.8,0-2.5-1.4-2.5-3.1c0-1.5,0-3,0-4.5c0-2.4-1.1-3.6-3.6-3.6c-7.7,0-15.4,0-23.1,0c-2.6,0-3.9,1-3.8,3.8
			c0.1,1.6,0.1,3.2-0.1,4.8c-0.2,1.4-0.9,2.7-2.6,2.6c-1.4-0.1-2.1-1.2-2.4-2.5c-2.1-8.8,1.9-13.8,10.8-13.8
			C118.5,195.1,121.8,195.1,125,195.1z"/>
		<path class="st0" d="M147.7,220.5c-4,0-7.9,0.1-11.9,0c-5.4-0.1-8.2-3-8.3-8.3c0-1.9-0.1-3.7,0.1-5.6c0.1-1.4,1-2.4,2.4-2.4
			c1.4,0,2.2,1,2.3,2.4c0.1,0.7,0.1,1.5,0.1,2.2c0.1,6.5,0.1,6.5,6.8,6.5c6.3,0,12.7,0,19,0c4.5,0,4.8-0.4,4.8-5
			c0-1.4,0-2.7,0.2-4.1c0.2-1.2,1-2.1,2.2-2.2c1.4-0.1,2.2,0.9,2.6,2.3c2.4,8.7-1.7,14-10.8,14.1
			C153.9,220.5,150.8,220.5,147.7,220.5z"/>
		<path class="st0" d="M163.8,119.8c9.8,0.2,19.6,0.1,29.4,0.1c10.2,0,20.4,0,30.6,0c1.8,0,3,0,3-2.5c-0.2-12.3-0.3-24.6-3-36.7
			c-3.3-14.8-10.4-26.8-25.8-32c-8.6-2.9-17.6-3.3-26.5-2.6C149,48,135.1,59.2,130,81.3c-5.3,23-5,46.4,0.1,69.5
			c3.1,14.3,11.4,25,25.9,29.8c12.1,4,24.4,4.3,36.8,1.6c14.1-3.1,23.6-11.6,28.4-25.2c2.1-5.9,2.7-12.1,3.5-18.2
			c0.2-2.1-0.7-2.4-2.5-2.4c-7.7,0.1-15.4,0.2-23.1-0.1c-3.4-0.1-4.8,0.7-5.1,4.3c-0.4,4.7-1.8,9.3-4.3,13.4
			c-5.8,9.5-18.9,9.5-24.5-0.1c-1.5-2.5-2.4-5.1-3.2-7.9c-2-7.3-1.5-14.8-1.7-22.2C160.1,120.7,160.7,119.7,163.8,119.8z
			 M160.2,98.4c-0.1-8,0.1-15.9,4.7-23c3.8-5.8,9.4-7.3,15.9-6.4c5.8,0.9,9.1,4.6,10.9,9.9c2.1,6.1,2.2,12.4,2.8,18.7
			c0.2,2-0.9,2.2-2.5,2.2c-5,0-9.9,0-14.9,0c-4.8,0-9.7,0-14.5,0C161.6,99.9,160.2,100.1,160.2,98.4z"/>
	</g>
</g>
</svg>
