<?xml version="1.0" encoding="utf-8"?>
<!-- Generator: Adobe Illustrator 22.0.1, SVG Export Plug-In . SVG Version: 6.00 Build 0)  -->
<svg version="1.1" id="Layer_1" xmlns="http://www.w3.org/2000/svg" xmlns:xlink="http://www.w3.org/1999/xlink" x="0px" y="0px"
	 viewBox="0 0 226.8 226.8" style="enable-background:new 0 0 226.8 226.8;" xml:space="preserve">
<style type="text/css">
	.st0{fill:#305A33;}
</style>
<path class="st0" d="M210.5,54.5l-91.3,129.3c0,0-1.8,2.7-5.3,2.7c-3.6,0-5.9-2.9-5.9-2.9l-15.8-20.9L187,27.1
	C167.2,10.2,141.5,0,113.5,0C50.8,0,0,50.8,0,113.5S50.8,227,113.5,227S227,176.2,227,113.5C227,91.9,221,71.7,210.5,54.5z
	 M29,110.6l9.9-11.1l8.3,11.1C47.2,110.6,29,110.6,29,110.6z M41.8,96.2L42,96h44.7l24.5,31.9l-21.9,31.3
	C89.4,159.1,41.8,96.2,41.8,96.2z"/>
</svg>
