<?xml version="1.0" encoding="utf-8"?>
<!-- Generator: Adobe Illustrator 22.0.1, SVG Export Plug-In . SVG Version: 6.00 Build 0)  -->
<svg version="1.1" id="Layer_1" xmlns="http://www.w3.org/2000/svg" xmlns:xlink="http://www.w3.org/1999/xlink" x="0px" y="0px"
	 viewBox="0 0 595.3 595.3" style="enable-background:new 0 0 595.3 595.3;" xml:space="preserve">
<style type="text/css">
	.st0{fill:#3F95D6;}
	.st1{fill:#EBEBEB;}
</style>
<path class="st0" d="M489,164.4L343.4,18.9c-25.1-25.1-66.3-25.1-91.4,0L106.7,164.1c-8.4,8.4-8.4,22.1,0,30.5l44.1,44.1l29.3,27.1
	c8.7,8,22.1,8,30.7,0l58.7-54.3c16.1-14.9,40.9-14.9,57,0l58.7,54.3c8.6,8,22,8,30.7,0l29.3-27.1l43.8-43.8
	C497.3,186.5,497.3,172.8,489,164.4L489,164.4z"/>
<path class="st1" d="M23.9,348.4L252,576.5c25.1,25.1,66.3,25.1,91.4,0l228.1-228.1c39.5-39.5,11.7-51.3-17.3-78.7l-35.8-33.9
	c-8.6-8.1-22-8-30.7,0L429,290c-16.1,14.9-40.9,14.9-57,0l-58.7-54.3c-8.6-8-22-8-30.7,0L224,290c-16.1,14.9-40.9,14.9-57,0
	l-58.7-54.3c-8.7-8-22.1-8-30.7,0l-32.9,30.4C14.4,294.2-17.4,307.1,23.9,348.4L23.9,348.4z"/>
</svg>
