<?xml version="1.0" encoding="utf-8"?>
<!-- Generator: Adobe Illustrator 22.0.1, SVG Export Plug-In . SVG Version: 6.00 Build 0)  -->
<svg version="1.1" id="Layer_1" xmlns="http://www.w3.org/2000/svg" xmlns:xlink="http://www.w3.org/1999/xlink" x="0px" y="0px"
	 viewBox="0 0 2500 2482" style="enable-background:new 0 0 2500 2482;" xml:space="preserve">
<style type="text/css">
	.st0{fill:#F7A800;}
	.st1{fill:#67B2E8;}
	.st2{fill:#00C4B3;}
</style>
<path d="M1250.6,2482l-14.3-7.2c-558.5-327-980.9-866.3-1152.7-1510.7c-27.4-101.4-47.7-205.2-62-310.3
	C8.4,548.9,1.2,442.7,0.1,336.5c0-17.9-2.4-15.5,14.3-23.9c210-119.3,432-206.4,667-261.3C768.5,31,855.6,15.5,943.9,4.8
	c121.7-14.3,243.4-20.3,366.3-17.9c69.2,1.2,137.2,6,205.2,13.1C1858,37,2179,139.6,2479.7,307.9c4.8,2.4,8.4,4.8,13.1,7.2
	c4.8,2.4,7.2,6,7.2,11.9v17.9c-1.2,62.1-3.6,122.9-8.4,185c-7.2,88.3-19.1,175.4-35.8,262.5c-35.8,187.3-91.9,367.5-169.4,540.6
	c-122.9,275.6-291.2,521.5-503.6,736.2c-152.7,155.1-323.4,288.8-511.9,399.7C1263.7,2473.6,1257.8,2477.2,1250.6,2482L1250.6,2482z
	 M114.6,397.4v14.3c0,87.1,6,175.4,16.7,261.3c9.5,78.8,22.7,156.3,40.6,233.9c3.6,13.1,7.2,26.3,13.1,39.4
	c107.4,227.9,355.6,349.6,601.4,293.5c187.3-43,340.1-187.3,391.4-372.3c14.3-51.3,19.1-103.8,21.5-156.3
	c1.2-34.6,4.8-69.2,10.7-103.8c40.6-210,180.2-383,377.1-465.4c10.7-4.8,22.7-8.4,33.4-13.1c1.2-1.2,3.6-1.2,3.6-3.6
	c-31-10.7-216-29.8-327-32.2c-238.7-4.8-472.5,26.3-700.4,95.5C427.2,239.8,267.3,309.1,114.6,397.4L114.6,397.4z M1874.7,1826.9
	c6-3.6,9.5-8.4,11.9-11.9c47.7-59.7,93.1-121.7,134.8-186.2c149.2-231.5,254.2-480.9,312.6-750.6c20.3-91.9,33.4-183.8,41.8-276.8
	c6-63.2,8.4-126.5,8.4-190.9c0-4.8,0-8.4-1.2-13.1l-17.9-10.7c-48.9-27.4-99-53.7-149.2-77.6c-74-34.6-148-65.6-225.5-90.7
	c-94.3-29.8-189.7-33.4-285.2-9.5c-273.3,65.6-448.7,334.1-396.2,609.8c28.6,152.7,111,272.1,242.2,355.6c8.4,6,17.9,10.7,26.3,16.7
	c96.7,58.5,171.8,138.4,225.5,237.5c57.3,103.8,82.3,216,75.2,334.1C1879.4,1782.7,1877.1,1804.2,1874.7,1826.9L1874.7,1826.9z
	 M1250.6,2360.3c4.8-2.4,10.7-6,15.5-9.5c150.4-88.3,288.8-193.3,415.3-312.6c8.4-7.2,14.3-16.7,19.1-26.3
	c8.4-15.5,16.7-32.2,23.9-47.7c59.7-124.1,72.8-253,33.4-386.6c-77.6-257.7-325.8-405.7-575.2-374.7c-71.6,8.4-137.2,31-199.3,66.8
	c-118.1,66.8-244.6,94.3-380.7,81.1c-66.8-6-130.1-23.9-190.9-50.1c-47.7-21.5-93.1-47.7-133.6-79.9c-2.4-2.4-6-3.6-11.9-7.2
	c1.2,6,2.4,9.5,3.6,11.9c53.7,136,119.3,264.9,196.9,387.8c84.7,132.5,181.4,255.4,291.2,367.5c109.8,112.2,230.3,212.4,360.4,299.5
	C1177.8,2318.5,1233.9,2353.1,1250.6,2360.3L1250.6,2360.3z"/>
<path class="st0" d="M114.6,397.4c152.7-88.3,312.6-157.5,480.9-207.6c229.1-68,461.8-100.2,700.4-95.5c111,2.4,295.9,20.3,327,32.2
	c1.2,2.4-1.2,3.6-3.6,3.6c-10.7,4.8-22.7,8.4-33.4,13.1c-196.9,82.3-336.5,255.4-377.1,465.4c-6,34.6-9.5,69.2-10.7,103.8
	c-1.2,52.5-6,105-21.5,156.3c-52.5,185-204,329.3-391.4,372.3c-245.8,56.1-494-65.6-601.4-293.5c-6-13.1-10.7-26.3-13.1-39.4
	c-17.9-77.6-31-155.1-40.6-233.9c-10.7-87.1-16.7-174.2-16.7-261.3C114.6,406.9,114.6,403.3,114.6,397.4L114.6,397.4z"/>
<path class="st1" d="M1874.7,1826.9c2.4-22.7,4.8-43,6-64.4c6-118.1-19.1-230.3-75.2-334.1c-53.7-99-128.9-177.8-225.5-237.5
	c-8.4-6-17.9-10.7-26.3-16.7c-132.5-83.5-213.6-201.7-242.2-355.6c-51.3-276.8,122.9-544.1,396.2-609.8
	c96.7-22.7,190.9-20.3,285.2,9.5c77.6,23.9,151.5,56.1,225.5,90.7c51.3,23.9,100.2,50.1,149.2,77.6c6,3.6,10.7,6,17.9,10.7
	c0,4.8,1.2,8.4,1.2,13.1c0,63.2-3.6,127.7-8.4,190.9c-8.4,93.1-22.7,186.1-41.8,276.8c-58.5,269.7-162.3,519.1-312.6,750.6
	c-41.8,64.4-87.1,126.5-134.8,186.2C1884.2,1818.5,1881.8,1823.3,1874.7,1826.9z"/>
<path class="st2" d="M1250.6,2360.3c-17.9-7.2-72.8-40.6-131.3-79.9C989.3,2193.2,868.8,2093,759,1980.8
	c-109.8-112.2-207.6-235.1-291.2-367.5c-78.8-122.9-144.4-251.8-196.9-387.8c-1.2-3.6-2.4-6-3.6-11.9c6,3.6,8.4,4.8,11.9,7.2
	c41.8,32.2,85.9,59.7,133.6,79.9c60.9,26.3,124.1,44.2,190.9,50.1c134.8,13.1,261.3-14.3,380.7-81.1c62-34.6,128.9-57.3,199.3-66.8
	c249.4-31,497.6,116.9,575.2,374.7c39.4,132.5,27.4,261.3-33.4,386.6c-8.4,16.7-15.5,32.2-23.9,47.7c-4.8,9.5-10.7,19.1-19.1,26.3
	c-126.5,119.3-264.9,224.3-415.3,312.6C1261.3,2354.3,1255.4,2357.9,1250.6,2360.3L1250.6,2360.3z"/>
</svg>
