<?xml version="1.0" encoding="utf-8"?>
<!-- Generator: Adobe Illustrator 22.0.1, SVG Export Plug-In . SVG Version: 6.00 Build 0)  -->
<svg version="1.1" id="Layer_1" xmlns="http://www.w3.org/2000/svg" xmlns:xlink="http://www.w3.org/1999/xlink" x="0px" y="0px"
	 viewBox="0 0 226.8 226.8" style="enable-background:new 0 0 226.8 226.8;" xml:space="preserve">
<style type="text/css">
	.st0{fill:#9D9D9D;}
	.st1{fill:#596C75;}
	.st2{fill:#FC7C03;}
	.st3{fill:#D5F1F8;}
	.st4{fill:#F6B900;}
</style>
<g id="ywwQsx.tif">
	<g>
		<path class="st0" d="M28.9,222c-0.7-1.5-1-2.7,0.2-4.4c9-12.4,17.8-25,26.8-37.4c0.6-0.9,1.1-3.1,2.9-1.7c1.6,1.3-0.1,2.4-0.8,3.4
			c-9.4,13.4-18.8,26.8-28.2,40.2C29.5,222,29.2,222,28.9,222z"/>
		<path class="st1" d="M88.2,117.1c-6.6-5.6-7.3-8.1-4.1-16c-10.5-4.6-21.2-5.7-32.3-2.9c-1,0.2-2.2,1.8-3.1,0.2
			c-0.6-1.1,0.3-2,1-2.8C62.5,80,77.2,67.9,99,69.5c2.5,0.2,3.7-0.8,4.8-2.9c4.9-8.5,10-17,14.9-25.5c9.7-16.9,25.2-25.6,43.2-30.8
			c8.3-2.4,16.8-3.9,25.5-3.9c3.4,0,5.5,1.3,6.5,4.3c4.1,12.6,5.5,25.5,5.1,38.8c-0.6,21.5-12.6,37-25.9,52
			c-0.1,0.1-0.2,0.2-0.3,0.3c-6.7,6-8.9,11.9-5.3,21.7c5.4,14.8,0.1,29.3-7.4,42.7c-1.3,2.3-2.2,6.4-4.6,5.9
			c-2.5-0.5-1.3-4.6-1.9-7.1c-1.9-8.8-5.8-16.5-11.7-23.3c-0.7-0.8-1.5-2.2-2.8-0.7c-5.1,5.9-10.5,4.1-16,0.8
			c-1.5-1.5-3.1-2.8-5.2-3.6c-7.5-6.1-15.6-11.4-23.6-16.9C92.3,120,90.2,118.6,88.2,117.1z M193.8,43.1c-0.5-9.1-1.4-18.1-3.7-26.9
			c-0.8-3.2-2.3-4.6-5.9-4.4c-7.5,0.4-14.8,1.8-21.9,3.9c-17.6,5.2-31.8,14.6-41.1,31.4c-10.4,18.8-21.4,37.2-31.8,56
			c-2.6,4.6-2.4,6.4,1.9,9.4c11.9,8.5,23.9,16.9,35.8,25.3c3.4,2.4,6.1,2.1,8.8-1.2c13.3-15.8,26.4-31.7,40.1-47
			C188.1,76.2,194.1,61,193.8,43.1z"/>
		<path class="st2" d="M88.2,117.1c2,1.5,4.1,2.9,6.1,4.4c-5.1,6.7-8.4,14-8,22.6c0.3,6.3,5.1,10.6,10.9,9.6
			c9.4-1.6,15.8-7.6,20.7-15.4c2,0.7,3.7,2.1,5.2,3.6c-6.1,9.6-13.5,17.8-23.9,22.9c-6.3,3-12.9,4.7-19,0c-6.2-4.8-6.3-12-5.3-18.9
			C76.5,135.1,81.3,125.6,88.2,117.1z"/>
		<path class="st0" d="M63.2,192.1c-0.2,0.2-0.6,0.8-1,1.4c-4.8,6.8-9.7,13.6-14.5,20.3c-0.7,0.9-1.2,2.4-2.7,1.5
			c-1.6-1-0.4-2.1,0.3-3c4.9-6.9,9.8-13.8,14.7-20.7c0.5-0.7,0.8-2.2,2.3-1.3C62.8,190.7,63.4,190.9,63.2,192.1z"/>
		<path class="st3" d="M193.8,43.1c0.3,17.8-5.7,33.1-17.7,46.4c-13.8,15.3-26.9,31.3-40.1,47c-2.8,3.3-5.4,3.7-8.8,1.2
			c-11.9-8.5-23.9-16.8-35.8-25.3c-4.3-3.1-4.5-4.8-1.9-9.4c10.4-18.8,21.4-37.2,31.8-56c9.3-16.8,23.5-26.1,41.1-31.4
			c7.1-2.1,14.4-3.5,21.9-3.9c3.6-0.2,5,1.3,5.9,4.4C192.5,25.1,193.4,34.1,193.8,43.1z M152.9,79.3c12.2,0,22.2-9.7,22.1-21.6
			c0-11.8-9.8-21.6-21.7-21.6c-12.2,0-22.2,9.7-22.1,21.6C131.3,69.6,141,79.3,152.9,79.3z"/>
		<path class="st4" d="M117.9,138.3c-4.9,7.8-11.3,13.8-20.7,15.4c-5.8,1-10.6-3.4-10.9-9.6c-0.4-8.6,2.9-15.9,8-22.6
			C102.3,126.9,110.4,132.2,117.9,138.3z"/>
		<path class="st1" d="M152.9,79.3c-11.9,0-21.7-9.8-21.7-21.6c0-11.9,10-21.7,22.1-21.6c11.9,0,21.7,9.8,21.7,21.6
			C175.1,69.7,165.1,79.4,152.9,79.3z M153.2,73.9c9.1,0,16.4-7.1,16.5-16c0.1-9-7.3-16.4-16.6-16.4c-9,0-16.3,7.1-16.5,16
			C136.5,66.6,143.9,73.9,153.2,73.9z"/>
	</g>
</g>
</svg>
