<?xml version="1.0" encoding="utf-8"?>
<!-- Generator: Adobe Illustrator 22.0.1, SVG Export Plug-In . SVG Version: 6.00 Build 0)  -->
<svg version="1.1" id="Layer_1" xmlns="http://www.w3.org/2000/svg" xmlns:xlink="http://www.w3.org/1999/xlink" x="0px" y="0px"
	 viewBox="0 0 292.5 316" style="enable-background:new 0 0 292.5 316;" xml:space="preserve">
<style type="text/css">
	.st0{fill:#77D3F5;}
	.st1{fill:#40BAA3;}
	.st2{fill:#C2D938;}
	.st3{fill:#B9E8F7;}
	.st4{fill:#229ED7;}
	.st5{fill:#4FBE53;}
	.st6{fill:#268EA4;}
	.st7{fill:#23B7E8;}
	.st8{fill:#F3F3F4;}
	.st9{fill:#DFE0E1;}
	.st10{fill:#CACCCE;}
	.st11{fill:#DDDEDE;}
	.st12{fill:#EEEEEE;}
	.st13{fill:#D1D2D4;}
</style>
<title>icons 2</title>
<desc>Created with Sketch.</desc>
<g id="NWns7A.tif">
	<g>
		<path class="st0" d="M144.4,0c0.9,0,1.8,0,2.8,0c0.4,1.4,1.7,1.7,2.7,2.3c25.4,14.7,50.8,29.4,76.2,44.1
			c18.8,10.9,37.5,21.8,56.3,32.7c0,0.3-0.1,0.7-0.1,1c-0.3,0-0.7,0-0.9,0.1c-22.2,12.8-44.3,25.6-66.5,38.3
			c-7.8,4.5-15.2,9.6-23.5,13c-0.3,0-0.7,0.1-1,0.1c-8.4-4.9-16.8-10.1-25.3-14.8c-6.5-3.6-12.5-8.3-19.7-10.6
			c0-34,0.1-68.1,0.1-102.1c0-1.2,0.3-2.5-0.9-3.3C144.5,0.6,144.5,0.3,144.4,0z"/>
		<path class="st1" d="M9.2,79.1c0.2-0.2,0.5-0.3,0.8-0.1c14.7,8.6,29.5,17.3,44.2,25.9c15.4,9,30.9,17.9,46.3,26.9
			c0,0.3,0,0.6,0.2,0.8c-0.2,8.6-0.3,17.1-0.5,25.7c-30.3,0-60.7,0-91,0C9.2,131.8,9.2,105.5,9.2,79.1z"/>
		<path class="st2" d="M9.2,158.2c30.3,0,60.7,0,91,0c0,0,0.3,0.1,0.3,0.1c-0.1,8.5-0.5,17.1,0.2,25.6c-0.1,0.2-0.2,0.5-0.3,0.7
			c-15.8,9-31.6,18-47.3,27.1c-14.5,8.4-28.9,17-43.4,25.6c0,0-0.3,0.2-0.3,0.2l-0.3-0.2C9.2,210.9,9.2,184.6,9.2,158.2z"/>
		<path class="st3" d="M282.4,79.1c0.3,0,0.6,0,0.9,0c0,52.7,0,105.5,0,158.2l-0.4,0c0,0-0.4,0-0.4,0c-0.1-26.4-0.1-52.7-0.2-79.1
			c0-26,0-52.1,0-78.1C282.3,79.8,282.3,79.4,282.4,79.1z"/>
		<path class="st4" d="M282.2,158.2c0.1,26.4,0.1,52.7,0.2,79.1c-32.1,18.7-64.3,37.3-96.4,56c-12.2,7.1-24.3,14.1-36.5,21.1
			c-1.2,0.7-2.2,2.3-4,1.4c0-35,0.1-69.9,0.1-104.9c0.3-0.3,0.6-0.7,0.9-1l0,0c14.7-7.6,28.8-16.5,43.2-24.6
			c1.4-0.8,1.7-1.9,1.7-3.4c-0.1-7.9-0.1-15.9-0.2-23.8l0.3,0.1C221.7,158.2,252,158.2,282.2,158.2z"/>
		<path class="st5" d="M145.6,210.9c0,35-0.1,69.9-0.1,104.9c-12.9-6.6-25.2-14.3-37.8-21.5c-31.5-18.1-63-36.4-94.4-54.6
			c-1.2-0.7-2.2-1.5-3.3-2.3c14.5-8.5,28.9-17.1,43.4-25.6c15.7-9.1,31.5-18.1,47.3-27.1c2,1.1,4.1,2.1,6,3.2
			c12.9,7.3,25.7,14.7,38.6,22C145.3,210.2,145.4,210.5,145.6,210.9z"/>
		<path class="st6" d="M100.5,131.7c-15.4-9-30.9-17.9-46.3-26.9C39.5,96.2,24.8,87.6,10,78.9c15.8-9.3,31.6-18.6,47.5-27.8
			c29-16.8,58-33.6,87-50.3c1.2,0.9,0.9,2.2,0.9,3.3c0,34-0.1,68.1-0.1,102.1c0,0-0.1,0.3-0.1,0.3c-1.4,0.7-2.8,1.2-4.1,2
			C127.6,116.2,114.1,124,100.5,131.7z"/>
		<path class="st7" d="M282.2,158.2c-30.3,0-60.5,0-90.8,0c0-8.9-0.1-17.8-0.1-26.7c8.3-3.4,15.8-8.5,23.5-13
			c22.2-12.7,44.3-25.6,66.5-38.3c0.2-0.1,0.6-0.1,0.9-0.1C282.3,106.1,282.3,132.2,282.2,158.2z"/>
		<path class="st8" d="M145.3,106.3c7.2,2.3,13.2,7,19.7,10.6c8.6,4.7,16.9,9.8,25.3,14.8c-0.9,0.9-1.6,1.9-2.6,2.5
			c-10.2,5.9-20.4,11.7-30.5,17.7c-3.2,1.9-7.1,2.8-9.2,6.3c-0.6,0-1.2,0-1.8,0.1c-0.6,0-1.2,0-1.8,0l0,0c0-0.3,0-0.6,0-0.8
			c1-0.7,0.9-1.8,0.9-2.9c0-16-0.1-31.9-0.1-47.9L145.3,106.3z"/>
		<path class="st9" d="M148.1,158.1c2.1-3.5,6-4.4,9.2-6.3c10.1-6,20.4-11.8,30.5-17.7c1-0.6,1.7-1.7,2.6-2.5c0.3,0,0.7-0.1,1-0.1
			c0,8.9,0.1,17.8,0.1,26.7c0,0-0.3-0.1-0.3-0.1C176.8,158.1,162.4,158.1,148.1,158.1z"/>
		<path class="st10" d="M145.2,106.6c0,16,0.1,31.9,0.1,47.9c0,1.1,0.1,2.2-0.9,2.9c-9-5.3-18-10.7-27.1-15.8
			c-5.5-3.1-10.5-7.2-16.7-9c-0.1-0.3-0.2-0.5-0.2-0.8c13.5-7.7,27.1-15.4,40.6-23.1C142.5,107.8,143.9,107.2,145.2,106.6z"/>
		<path class="st9" d="M100.7,132.5c6.2,1.8,11.2,5.9,16.7,9c9.1,5.1,18.1,10.5,27.1,15.8c0,0.3,0,0.6,0,0.8
			c-14.6,0-29.2,0-43.9,0.1c0,0-0.3-0.1-0.3-0.1C100.4,149.6,100.5,141.1,100.7,132.5z"/>
		<path class="st11" d="M145.1,209.8c-12.9-7.3-25.7-14.7-38.6-22c-2-1.1-4-2.2-6-3.2c0-0.3,0.1-0.5,0.3-0.7
			c15-7.5,29.1-16.5,43.7-24.8c0,1.2,0.6,1.8,1.8,1.8c0.1,16.3,0.1,32.6,0.2,49c0,0,0,0,0,0C146,209.9,145.5,209.8,145.1,209.8z"/>
		<path class="st12" d="M144.4,159.1c-14.6,8.3-28.7,17.3-43.7,24.8c-0.6-8.5-0.3-17.1-0.2-25.6c14.6,0,29.2,0,43.9-0.1c0,0,0,0,0,0
			C144.4,158.5,144.4,158.8,144.4,159.1z"/>
		<path class="st13" d="M146.5,209.9c-0.1-16.3-0.1-32.6-0.2-49c0-0.9,0-1.8,0-2.8c0.6,0,1.2,0,1.8-0.1c14.4,0,28.8,0,43.1,0
			c0,7.9,0.1,15.9,0.2,23.8c0,1.5-0.2,2.6-1.7,3.4C175.2,193.5,161.2,202.3,146.5,209.9z"/>
		<path class="st13" d="M145.1,209.8c0.5,0,0.9,0,1.4,0.1c-0.3,0.3-0.6,0.7-0.9,1C145.4,210.5,145.3,210.2,145.1,209.8z"/>
		<path class="st9" d="M146.3,158.2c0,0.9,0,1.8,0,2.8c-1.2,0-1.8-0.6-1.8-1.8c0-0.3,0-0.6,0-0.9C145,158.2,145.6,158.2,146.3,158.2
			z"/>
	</g>
</g>
</svg>
