<?xml version="1.0" encoding="utf-8"?>
<!-- Generator: Adobe Illustrator 22.0.1, SVG Export Plug-In . SVG Version: 6.00 Build 0)  -->
<svg version="1.1" id="Layer_1" xmlns="http://www.w3.org/2000/svg" xmlns:xlink="http://www.w3.org/1999/xlink" x="0px" y="0px"
	 viewBox="0 0 226.8 226.8" style="enable-background:new 0 0 226.8 226.8;" xml:space="preserve">
<style type="text/css">
	.st0{fill:#3C8EC3;}
</style>
<path class="st0" d="M113.5,0.2C50.9,0.2,0.2,50.9,0.2,113.5s50.7,113.3,113.3,113.3s113.3-50.7,113.3-113.3
	C226.8,50.9,176.1,0.2,113.5,0.2z M160.9,164c-7.4,12.7-23.9,17.1-36.9,10c-13-7.1-17.6-23.2-10.3-35.9c3.1-5.3,1.2-12-4.3-14.9
	c-5.4-2.9-12.1-1.2-15.3,3.9h0v0c0,0.1-0.1,0.2-0.1,0.2c-7.4,12.7-23.9,17.1-36.9,10c-13-7.1-17.6-23.2-10.3-35.9
	c7.4-12.7,23.9-17.1,36.9-10c4.4,2.4,7.8,5.8,10.1,9.7v0l0,0c3.2,5,10.1,6.7,15.3,3.6c5.4-3.1,7.1-9.8,3.9-15
	c-7.7-12.5-3.4-28.6,9.5-36.1c12.9-7.4,29.5-3.3,37.2,9.2c7.7,12.5,3.4,28.6-9.5,36.1c-4.2,2.4-8.9,3.7-13.7,3.7l0,0v0
	c-6.2,0.2-11.1,5.2-11,11.2c0.1,6.1,5.2,11,11.5,10.9l0,0c4.7,0,9.4,1.1,13.5,3.4C163.7,135.3,168.3,151.3,160.9,164L160.9,164z"/>
</svg>
