<?xml version="1.0" encoding="utf-8"?>
<!-- Generator: Adobe Illustrator 22.0.1, SVG Export Plug-In . SVG Version: 6.00 Build 0)  -->
<svg version="1.1" id="Layer_1" xmlns="http://www.w3.org/2000/svg" xmlns:xlink="http://www.w3.org/1999/xlink" x="0px" y="0px"
	 viewBox="0 0 250 250" style="enable-background:new 0 0 250 250;" xml:space="preserve">
<style type="text/css">
	.st0{fill:#58B45E;}
</style>
<path class="st0" d="M159.6,164.8h42.4v37.1H74.6l158-158.2c5.2-5.2,6.7-13,4-19.7c-2.9-6.7-9.4-11.1-16.8-11.1H31.1
	C21,13,13,21,13,31.1v133.7l78.4-78.5H49.1V49.1h127.1L18.3,207.2c-5.2,5.2-6.7,13-4,19.7c2.9,6.7,9.4,11.1,16.8,11.1h188.7
	c9.9,0,18.1-8,18.1-18.1V86.3L159.6,164.8L159.6,164.8z"/>
</svg>
